NotoSerifTamil-SemiBold.ufo
<glyph name="exclam" format="2">
  <advance width="363.41379310344826"/>
  <unicode hex="0021"/>
  <outline>
    <contour>
      <point x="155.41379310344828" y="217.75862068965517" type="line"/>
      <point x="207.6206896551724" y="217.75862068965517" type="line"/>
      <point x="257.51724137931035" y="714.0" type="line"/>
      <point x="105.51724137931035" y="714.0" type="line"/>
    </contour>
    <contour>
      <point x="182.13793103448276" y="-7.620689655172414" type="curve" smooth="yes"/>
      <point x="222.3448275862069" y="-7.620689655172414"/>
      <point x="256.9310344827586" y="11.241379310344827"/>
      <point x="256.9310344827586" y="67.82758620689656" type="curve" smooth="yes"/>
      <point x="256.9310344827586" y="125.41379310344827"/>
      <point x="222.3448275862069" y="143.27586206896552"/>
      <point x="182.13793103448276" y="143.27586206896552" type="curve" smooth="yes"/>
      <point x="140.31034482758622" y="143.27586206896552"/>
      <point x="107.34482758620689" y="125.41379310344827"/>
      <point x="107.34482758620689" y="67.82758620689656" type="curve" smooth="yes"/>
      <point x="107.34482758620689" y="11.241379310344827"/>
      <point x="140.31034482758622" y="-7.620689655172414"/>
    </contour>
  </outline>
</glyph>
<glyph name="quotedbl" format="2">
  <advance width="470.0689655172414"/>
  <unicode hex="0022"/>
  <outline>
    <contour>
      <point x="315.3448275862069" y="454.17241379310343" type="line"/>
      <point x="373.7586206896552" y="454.17241379310343" type="line"/>
      <point x="406.86206896551727" y="714.0" type="line"/>
      <point x="269.82758620689657" y="714.0" type="line"/>
    </contour>
    <contour>
      <point x="102.51724137931035" y="454.17241379310343" type="line"/>
      <point x="160.93103448275863" y="454.17241379310343" type="line"/>
      <point x="200.24137931034483" y="714.0" type="line"/>
      <point x="63.206896551724135" y="714.0" type="line"/>
    </contour>
  </outline>
</glyph>
<glyph name="numbersign" format="2">
  <advance width="559.0"/>
  <unicode hex="0023"/>
  <outline>
    <contour>
      <point x="85.82758620689656" y="0.0" type="line"/>
      <point x="152.6551724137931" y="0.0" type="line"/>
      <point x="190.6551724137931" y="201.13793103448276" type="line"/>
      <point x="307.9310344827586" y="201.13793103448276" type="line"/>
      <point x="270.55172413793105" y="0.0" type="line"/>
      <point x="337.37931034482756" y="0.0" type="line"/>
      <point x="374.7586206896552" y="201.13793103448276" type="line"/>
      <point x="500.13793103448273" y="201.13793103448276" type="line"/>
      <point x="500.13793103448273" y="266.3448275862069" type="line"/>
      <point x="388.0" y="266.3448275862069" type="line"/>
      <point x="423.13793103448273" y="453.0344827586207" type="line"/>
      <point x="532.1379310344828" y="453.0344827586207" type="line"/>
      <point x="532.1379310344828" y="518.8620689655172" type="line"/>
      <point x="435.37931034482756" y="518.8620689655172" type="line"/>
      <point x="472.37931034482756" y="714.0" type="line"/>
      <point x="405.55172413793105" y="714.0" type="line"/>
      <point x="368.55172413793105" y="518.8620689655172" type="line"/>
      <point x="251.27586206896552" y="518.8620689655172" type="line"/>
      <point x="287.6551724137931" y="714.0" type="line"/>
      <point x="219.82758620689654" y="714.0" type="line"/>
      <point x="184.44827586206895" y="518.8620689655172" type="line"/>
      <point x="58.86206896551724" y="518.8620689655172" type="line"/>
      <point x="58.86206896551724" y="453.0344827586207" type="line"/>
      <point x="172.20689655172413" y="453.0344827586207" type="line"/>
      <point x="136.06896551724137" y="266.3448275862069" type="line"/>
      <point x="26.862068965517242" y="266.3448275862069" type="line"/>
      <point x="26.862068965517242" y="201.13793103448276" type="line"/>
      <point x="123.82758620689656" y="201.13793103448276" type="line"/>
    </contour>
    <contour>
      <point x="203.27586206896552" y="266.3448275862069" type="line"/>
      <point x="239.0344827586207" y="453.0344827586207" type="line"/>
      <point x="356.9310344827586" y="453.0344827586207" type="line"/>
      <point x="321.17241379310343" y="266.3448275862069" type="line"/>
    </contour>
  </outline>
</glyph>
<glyph name="percent" format="2">
  <advance width="902.2068965517242"/>
  <unicode hex="0025"/>
  <outline>
    <contour>
      <point x="238.10344827586206" y="0.0" type="line"/>
      <point x="311.55172413793105" y="0.0" type="line"/>
      <point x="660.1034482758621" y="714.0" type="line"/>
      <point x="587.6551724137931" y="714.0" type="line"/>
    </contour>
    <contour>
      <point x="212.10344827586206" y="280.0" type="curve" smooth="yes"/>
      <point x="328.9310344827586" y="280.0"/>
      <point x="386.0344827586207" y="369.0"/>
      <point x="386.0344827586207" y="503.0" type="curve"/>
      <point x="386.0344827586207" y="637.0"/>
      <point x="328.9310344827586" y="724.0"/>
      <point x="213.10344827586206" y="724.0" type="curve" smooth="yes"/>
      <point x="89.65517241379311" y="724.0"/>
      <point x="38.172413793103445" y="637.0"/>
      <point x="38.172413793103445" y="503.0" type="curve" smooth="yes"/>
      <point x="38.172413793103445" y="369.0"/>
      <point x="89.65517241379311" y="280.0"/>
    </contour>
    <contour>
      <point x="212.10344827586206" y="326.58620689655174" type="curve" smooth="yes"/>
      <point x="161.20689655172413" y="326.58620689655174"/>
      <point x="142.44827586206895" y="391.7241379310345"/>
      <point x="142.44827586206895" y="503.0" type="curve"/>
      <point x="142.44827586206895" y="612.2758620689655"/>
      <point x="161.20689655172413" y="676.4137931034483"/>
      <point x="213.10344827586206" y="676.4137931034483" type="curve" smooth="yes"/>
      <point x="264.0" y="676.4137931034483"/>
      <point x="280.7586206896552" y="612.2758620689655"/>
      <point x="280.7586206896552" y="503.0" type="curve" smooth="yes"/>
      <point x="280.7586206896552" y="391.7241379310345"/>
      <point x="264.0" y="326.58620689655174"/>
    </contour>
    <contour>
      <point x="690.1034482758621" y="-10.0" type="curve" smooth="yes"/>
      <point x="806.9310344827586" y="-10.0"/>
      <point x="864.0344827586207" y="79.0"/>
      <point x="864.0344827586207" y="213.0" type="curve" smooth="yes"/>
      <point x="864.0344827586207" y="347.0"/>
      <point x="806.9310344827586" y="434.0"/>
      <point x="691.1034482758621" y="434.0" type="curve" smooth="yes"/>
      <point x="567.6551724137931" y="434.0"/>
      <point x="516.1724137931035" y="347.0"/>
      <point x="516.1724137931035" y="213.0" type="curve" smooth="yes"/>
      <point x="516.1724137931035" y="79.0"/>
      <point x="567.6551724137931" y="-10.0"/>
    </contour>
    <contour>
      <point x="690.1034482758621" y="36.58620689655172" type="curve" smooth="yes"/>
      <point x="639.2068965517242" y="36.58620689655172"/>
      <point x="620.448275862069" y="101.72413793103448"/>
      <point x="620.448275862069" y="213.0" type="curve" smooth="yes"/>
      <point x="620.448275862069" y="322.2758620689655"/>
      <point x="639.2068965517242" y="386.41379310344826"/>
      <point x="691.1034482758621" y="386.41379310344826" type="curve" smooth="yes"/>
      <point x="742.0" y="386.41379310344826"/>
      <point x="758.7586206896551" y="322.2758620689655"/>
      <point x="758.7586206896551" y="213.0" type="curve" smooth="yes"/>
      <point x="758.7586206896551" y="101.72413793103448"/>
      <point x="742.0" y="36.58620689655172"/>
    </contour>
  </outline>
</glyph>
<glyph name="quotesingle" format="2">
  <advance width="263.44827586206895"/>
  <unicode hex="0027"/>
  <outline>
    <contour>
      <point x="102.51724137931035" y="454.17241379310343" type="line"/>
      <point x="160.93103448275863" y="454.17241379310343" type="line"/>
      <point x="200.24137931034483" y="714.0" type="line"/>
      <point x="63.206896551724135" y="714.0" type="line"/>
    </contour>
  </outline>
</glyph>
<glyph name="parenright" format="2">
  <advance width="379.51724137931035"/>
  <unicode hex="0029"/>
  <outline>
    <contour>
      <point x="32.0" y="-134.82758620689654" type="line"/>
      <point x="240.20689655172413" y="-51.89655172413793"/>
      <point x="322.51724137931035" y="92.13793103448276"/>
      <point x="322.51724137931035" y="317.62068965517244" type="curve" smooth="yes"/>
      <point x="322.51724137931035" y="542.1034482758621"/>
      <point x="240.20689655172413" y="684.5172413793103"/>
      <point x="32.0" y="767.448275862069" type="curve"/>
      <point x="32.0" y="711.2758620689655" type="line"/>
      <point x="160.93103448275863" y="628.8965517241379"/>
      <point x="183.13793103448276" y="476.0"/>
      <point x="183.13793103448276" y="317.62068965517244" type="curve" smooth="yes"/>
      <point x="183.13793103448276" y="158.6206896551724"/>
      <point x="160.93103448275863" y="4.724137931034483"/>
      <point x="32.0" y="-77.65517241379311" type="curve"/>
    </contour>
  </outline>
</glyph>
<glyph name="asterisk" format="2">
  <advance width="501.2413793103448"/>
  <unicode hex="002A"/>
  <outline>
    <contour>
      <point x="199.0344827586207" y="371.17241379310343" type="line"/>
      <point x="300.9310344827586" y="371.17241379310343" type="line"/>
      <point x="268.58620689655174" y="531.6551724137931" type="line"/>
      <point x="420.48275862068965" y="431.82758620689657" type="line"/>
      <point x="461.6896551724138" y="522.4827586206897" type="line"/>
      <point x="300.7586206896552" y="565.8965517241379" type="line"/>
      <point x="461.6896551724138" y="608.6896551724138" type="line"/>
      <point x="420.48275862068965" y="700.3448275862069" type="line"/>
      <point x="268.58620689655174" y="600.1379310344828" type="line"/>
      <point x="301.55172413793105" y="760.0" type="line"/>
      <point x="199.0344827586207" y="760.0" type="line"/>
      <point x="229.3793103448276" y="598.5172413793103" type="line"/>
      <point x="78.48275862068965" y="702.3448275862069" type="line"/>
      <point x="37.275862068965516" y="609.6896551724138" type="line"/>
      <point x="197.82758620689654" y="565.8965517241379" type="line"/>
      <point x="37.275862068965516" y="521.4827586206897" type="line"/>
      <point x="78.48275862068965" y="430.44827586206895" type="line"/>
      <point x="228.3793103448276" y="532.2758620689655" type="line"/>
    </contour>
  </outline>
</glyph>
<glyph name="comma" format="2">
  <advance width="277.3103448275862"/>
  <unicode hex="002C"/>
  <outline>
    <contour>
      <point x="39.310344827586206" y="-154.0" type="line"/>
      <point x="165.13793103448276" y="-119.0"/>
      <point x="212.6206896551724" y="-43.0"/>
      <point x="212.6206896551724" y="42.0" type="curve" smooth="yes"/>
      <point x="212.6206896551724" y="105.44827586206897"/>
      <point x="176.6206896551724" y="143.27586206896552"/>
      <point x="126.3103448275862" y="143.27586206896552" type="curve" smooth="yes"/>
      <point x="86.82758620689656" y="143.27586206896552"/>
      <point x="56.96551724137931" y="120.41379310344827"/>
      <point x="56.96551724137931" y="78.06896551724138" type="curve" smooth="yes"/>
      <point x="56.96551724137931" y="5.275862068965517"/>
      <point x="129.9655172413793" y="15.517241379310345"/>
      <point x="129.9655172413793" y="-23.24137931034483" type="curve" smooth="yes"/>
      <point x="129.9655172413793" y="-62.241379310344826"/>
      <point x="99.96551724137932" y="-84.79310344827586"/>
      <point x="39.310344827586206" y="-105.79310344827586" type="curve"/>
    </contour>
  </outline>
</glyph>
<glyph name="hyphen" format="2">
  <advance width="310.0"/>
  <unicode hex="002D"/>
  <outline>
    <contour>
      <point x="25.0" y="225.68965517241378" type="line"/>
      <point x="285.0" y="225.68965517241378" type="line"/>
      <point x="285.0" y="319.3103448275862" type="line"/>
      <point x="25.0" y="319.3103448275862" type="line"/>
    </contour>
  </outline>
</glyph>
<glyph name="period" format="2">
  <advance width="277.3103448275862"/>
  <unicode hex="002E"/>
  <outline>
    <contour>
      <point x="138.6551724137931" y="-7.620689655172414" type="curve" smooth="yes"/>
      <point x="178.86206896551724" y="-7.620689655172414"/>
      <point x="213.44827586206895" y="11.241379310344827"/>
      <point x="213.44827586206895" y="67.82758620689656" type="curve" smooth="yes"/>
      <point x="213.44827586206895" y="125.41379310344827"/>
      <point x="178.86206896551724" y="143.27586206896552"/>
      <point x="138.6551724137931" y="143.27586206896552" type="curve" smooth="yes"/>
      <point x="96.82758620689656" y="143.27586206896552"/>
      <point x="63.86206896551724" y="125.41379310344827"/>
      <point x="63.86206896551724" y="67.82758620689656" type="curve" smooth="yes"/>
      <point x="63.86206896551724" y="11.241379310344827"/>
      <point x="96.82758620689656" y="-7.620689655172414"/>
    </contour>
  </outline>
</glyph>
<glyph name="slash" format="2">
  <advance width="288.0"/>
  <unicode hex="002F"/>
  <outline>
    <contour>
      <point x="0.0" y="-121.0" type="line"/>
      <point x="67.06896551724138" y="-121.0" type="line"/>
      <point x="288.0" y="760.0" type="line"/>
      <point x="222.55172413793105" y="760.0" type="line"/>
    </contour>
  </outline>
</glyph>
<glyph name="zero" format="2">
  <advance width="559.0"/>
  <unicode hex="0030"/>
  <outline>
    <contour>
      <point x="280.0" y="-10.0" type="curve" smooth="yes"/>
      <point x="447.55172413793105" y="-10.0"/>
      <point x="520.8275862068965" y="137.0"/>
      <point x="520.8275862068965" y="358.0" type="curve" smooth="yes"/>
      <point x="520.8275862068965" y="580.0"/>
      <point x="447.55172413793105" y="724.0"/>
      <point x="281.0" y="724.0" type="curve" smooth="yes"/>
      <point x="103.82758620689656" y="724.0"/>
      <point x="38.172413793103445" y="580.0"/>
      <point x="38.172413793103445" y="359.0" type="curve" smooth="yes"/>
      <point x="38.172413793103445" y="137.0"/>
      <point x="103.82758620689656" y="-10.0"/>
    </contour>
    <contour>
      <point x="280.0" y="50.827586206896555" type="curve" smooth="yes"/>
      <point x="197.27586206896552" y="50.827586206896555"/>
      <point x="173.82758620689654" y="164.3448275862069"/>
      <point x="173.82758620689654" y="358.0" type="curve" smooth="yes"/>
      <point x="173.82758620689654" y="551.6551724137931"/>
      <point x="197.27586206896552" y="663.1724137931035"/>
      <point x="281.0" y="663.1724137931035" type="curve" smooth="yes"/>
      <point x="362.7241379310345" y="663.1724137931035"/>
      <point x="385.17241379310343" y="551.6551724137931"/>
      <point x="385.17241379310343" y="358.0" type="curve" smooth="yes"/>
      <point x="385.17241379310343" y="164.3448275862069"/>
      <point x="362.7241379310345" y="50.827586206896555"/>
    </contour>
  </outline>
</glyph>
<glyph name="one" format="2">
  <advance width="559.0"/>
  <unicode hex="0031"/>
  <outline>
    <contour>
      <point x="96.62068965517241" y="0.0" type="line"/>
      <point x="497.48275862068965" y="0.0" type="line"/>
      <point x="497.48275862068965" y="48.827586206896555" type="line"/>
      <point x="428.62068965517244" y="48.827586206896555" type="line" smooth="yes"/>
      <point x="385.48275862068965" y="48.827586206896555"/>
      <point x="365.86206896551727" y="66.51724137931035"/>
      <point x="365.86206896551727" y="116.48275862068965" type="curve" smooth="yes"/>
      <point x="365.86206896551727" y="718.0" type="line"/>
      <point x="272.0689655172414" y="718.0" type="line"/>
      <point x="202.06896551724137" y="666.0" type="line" smooth="yes"/>
      <point x="136.06896551724137" y="617.0"/>
      <point x="91.10344827586206" y="599.0"/>
      <point x="51.103448275862064" y="589.0" type="curve"/>
      <point x="51.103448275862064" y="548.9310344827586"/>
      <point x="75.20689655172414" y="522.5862068965517"/>
      <point x="106.06896551724138" y="522.5862068965517" type="curve" smooth="yes"/>
      <point x="146.06896551724137" y="522.5862068965517"/>
      <point x="184.06896551724137" y="564.5862068965517"/>
      <point x="235.06896551724137" y="626.5862068965517" type="curve"/>
      <point x="235.06896551724137" y="116.48275862068965" type="line" smooth="yes"/>
      <point x="235.06896551724137" y="61.55172413793103"/>
      <point x="211.10344827586206" y="48.827586206896555"/>
      <point x="172.93103448275863" y="48.827586206896555" type="curve" smooth="yes"/>
      <point x="96.62068965517241" y="48.827586206896555" type="line"/>
    </contour>
  </outline>
</glyph>
<glyph name="two" format="2">
  <advance width="559.0"/>
  <unicode hex="0032"/>
  <outline>
    <contour>
      <point x="41.06896551724138" y="0.0" type="line"/>
      <point x="497.7586206896552" y="0.0" type="line"/>
      <point x="502.7586206896552" y="195.9655172413793" type="line"/>
      <point x="450.2068965517241" y="195.9655172413793" type="line"/>
      <point x="443.7241379310345" y="169.89655172413794" type="line" smooth="yes"/>
      <point x="432.86206896551727" y="127.79310344827586"/>
      <point x="408.55172413793105" y="98.62068965517241"/>
      <point x="360.3448275862069" y="98.62068965517241" type="curve" smooth="yes"/>
      <point x="128.10344827586206" y="98.62068965517241" type="line"/>
      <point x="254.27586206896552" y="228.51724137931035" type="line" smooth="yes"/>
      <point x="418.2413793103448" y="390.44827586206895"/>
      <point x="477.7586206896552" y="464.62068965517244"/>
      <point x="477.7586206896552" y="557.6206896551724" type="curve" smooth="yes"/>
      <point x="477.7586206896552" y="659.8620689655172"/>
      <point x="398.8965517241379" y="724.0"/>
      <point x="258.62068965517244" y="724.0" type="curve" smooth="yes"/>
      <point x="119.06896551724138" y="724.0"/>
      <point x="47.724137931034484" y="663.2758620689655"/>
      <point x="47.724137931034484" y="589.3793103448276" type="curve" smooth="yes"/>
      <point x="47.724137931034484" y="525.3448275862069"/>
      <point x="94.41379310344827" y="503.2758620689655"/>
      <point x="159.79310344827587" y="503.2758620689655" type="curve"/>
      <point x="159.79310344827587" y="604.0"/>
      <point x="181.89655172413794" y="667.1724137931035"/>
      <point x="258.62068965517244" y="667.1724137931035" type="curve" smooth="yes"/>
      <point x="314.9655172413793" y="667.1724137931035"/>
      <point x="345.7241379310345" y="626.7241379310345"/>
      <point x="345.7241379310345" y="550.7241379310345" type="curve" smooth="yes"/>
      <point x="345.7241379310345" y="451.8965517241379"/>
      <point x="312.82758620689657" y="383.41379310344826"/>
      <point x="196.27586206896552" y="258.55172413793105" type="curve" smooth="yes"/>
      <point x="41.06896551724138" y="91.62068965517241" type="line"/>
    </contour>
  </outline>
</glyph>
<glyph name="three" format="2">
  <advance width="559.0"/>
  <unicode hex="0033"/>
  <outline>
    <contour>
      <point x="244.51724137931035" y="-10.0" type="curve" smooth="yes"/>
      <point x="373.7931034482759" y="-10.0"/>
      <point x="508.44827586206895" y="43.0"/>
      <point x="508.44827586206895" y="205.24137931034483" type="curve" smooth="yes"/>
      <point x="508.44827586206895" y="326.6896551724138"/>
      <point x="405.51724137931035" y="368.6551724137931"/>
      <point x="327.7931034482759" y="381.0" type="curve"/>
      <point x="416.6896551724138" y="407.3448275862069"/>
      <point x="483.44827586206895" y="472.51724137931035"/>
      <point x="483.44827586206895" y="562.5172413793103" type="curve" smooth="yes"/>
      <point x="483.44827586206895" y="665.3793103448276"/>
      <point x="396.3448275862069" y="724.0"/>
      <point x="260.41379310344826" y="724.0" type="curve" smooth="yes"/>
      <point x="120.86206896551724" y="724.0"/>
      <point x="48.89655172413793" y="667.6206896551724"/>
      <point x="48.89655172413793" y="594.3448275862069" type="curve" smooth="yes"/>
      <point x="48.89655172413793" y="537.1379310344828"/>
      <point x="92.48275862068965" y="514.448275862069"/>
      <point x="162.20689655172413" y="514.448275862069" type="curve"/>
      <point x="162.20689655172413" y="592.8275862068965"/>
      <point x="178.10344827586206" y="667.1724137931035"/>
      <point x="257.3103448275862" y="667.1724137931035" type="curve" smooth="yes"/>
      <point x="320.0344827586207" y="667.1724137931035"/>
      <point x="349.41379310344826" y="622.4137931034483"/>
      <point x="349.41379310344826" y="548.1379310344828" type="curve" smooth="yes"/>
      <point x="349.41379310344826" y="457.48275862068965"/>
      <point x="297.7931034482759" y="398.1034482758621"/>
      <point x="211.0344827586207" y="398.1034482758621" type="curve"/>
      <point x="157.9310344827586" y="398.1034482758621" type="line"/>
      <point x="157.9310344827586" y="340.2758620689655" type="line"/>
      <point x="208.55172413793105" y="340.2758620689655" type="line" smooth="yes"/>
      <point x="313.1034482758621" y="340.2758620689655"/>
      <point x="373.41379310344826" y="285.2758620689655"/>
      <point x="373.41379310344826" y="206.24137931034483" type="curve" smooth="yes"/>
      <point x="373.41379310344826" y="89.34482758620689"/>
      <point x="310.86206896551727" y="53.93103448275862"/>
      <point x="240.55172413793105" y="53.93103448275862" type="curve" smooth="yes"/>
      <point x="164.51724137931035" y="53.93103448275862"/>
      <point x="116.03448275862068" y="99.96551724137932"/>
      <point x="116.03448275862068" y="179.27586206896552" type="curve"/>
      <point x="73.06896551724138" y="179.27586206896552"/>
      <point x="39.37931034482759" y="153.41379310344828"/>
      <point x="39.37931034482759" y="106.58620689655173" type="curve" smooth="yes"/>
      <point x="39.37931034482759" y="45.10344827586207"/>
      <point x="100.72413793103448" y="-10.0"/>
    </contour>
  </outline>
</glyph>
<glyph name="four" format="2">
  <advance width="559.0"/>
  <unicode hex="0034"/>
  <outline>
    <contour>
      <point x="193.27586206896552" y="0.0" type="line"/>
      <point x="525.3103448275862" y="0.0" type="line"/>
      <point x="525.3103448275862" y="48.827586206896555" type="line"/>
      <point x="512.3103448275862" y="48.827586206896555" type="line" smooth="yes"/>
      <point x="467.3103448275862" y="48.827586206896555"/>
      <point x="430.3103448275862" y="57.827586206896555"/>
      <point x="430.3103448275862" y="120.82758620689656" type="curve" smooth="yes"/>
      <point x="430.3103448275862" y="189.79310344827587" type="line"/>
      <point x="541.8965517241379" y="189.79310344827587" type="line"/>
      <point x="541.8965517241379" y="252.0" type="line"/>
      <point x="430.3103448275862" y="252.0" type="line"/>
      <point x="430.3103448275862" y="714.0" type="line"/>
      <point x="308.0" y="714.0" type="line"/>
      <point x="14.517241379310345" y="243.20689655172413" type="line"/>
      <point x="14.517241379310345" y="189.79310344827587" type="line"/>
      <point x="303.2758620689655" y="189.79310344827587" type="line"/>
      <point x="303.2758620689655" y="120.82758620689656" type="line" smooth="yes"/>
      <point x="303.2758620689655" y="57.827586206896555"/>
      <point x="266.2758620689655" y="48.827586206896555"/>
      <point x="221.27586206896552" y="48.827586206896555" type="curve" smooth="yes"/>
      <point x="193.27586206896552" y="48.827586206896555" type="line"/>
    </contour>
    <contour>
      <point x="85.27586206896552" y="252.0" type="line"/>
      <point x="227.10344827586206" y="480.6896551724138" type="line" smooth="yes"/>
      <point x="245.13793103448276" y="509.86206896551727"/>
      <point x="297.2758620689655" y="599.0"/>
      <point x="310.2758620689655" y="628.4827586206897" type="curve"/>
      <point x="305.2758620689655" y="566.4827586206897"/>
      <point x="303.2758620689655" y="488.7931034482759"/>
      <point x="303.2758620689655" y="430.7931034482759" type="curve" smooth="yes"/>
      <point x="303.2758620689655" y="252.0" type="line"/>
    </contour>
  </outline>
</glyph>
<glyph name="five" format="2">
  <advance width="559.0"/>
  <unicode hex="0035"/>
  <outline>
    <contour>
      <point x="244.6206896551724" y="-10.0" type="curve" smooth="yes"/>
      <point x="377.7586206896552" y="-10.0"/>
      <point x="498.41379310344826" y="60.275862068965516"/>
      <point x="498.41379310344826" y="219.24137931034483" type="curve" smooth="yes"/>
      <point x="498.41379310344826" y="361.48275862068965"/>
      <point x="398.17241379310343" y="432.1034482758621"/>
      <point x="253.0344827586207" y="432.1034482758621" type="curve" smooth="yes"/>
      <point x="205.20689655172413" y="432.1034482758621"/>
      <point x="161.0" y="424.3448275862069"/>
      <point x="140.3793103448276" y="416.7241379310345" type="curve"/>
      <point x="157.51724137931035" y="615.0" type="line"/>
      <point x="360.2068965517241" y="615.0" type="line" smooth="yes"/>
      <point x="396.0" y="615.0"/>
      <point x="404.0" y="601.3793103448276"/>
      <point x="409.2413793103448" y="575.8620689655172" type="curve" smooth="yes"/>
      <point x="415.7241379310345" y="543.3793103448276" type="line"/>
      <point x="467.0344827586207" y="543.3793103448276" type="line"/>
      <point x="462.0344827586207" y="713.6206896551724" type="line"/>
      <point x="100.72413793103448" y="713.6206896551724" type="line"/>
      <point x="68.72413793103448" y="364.58620689655174" type="line"/>
      <point x="106.37931034482759" y="350.7586206896552" type="line"/>
      <point x="134.48275862068965" y="360.51724137931035"/>
      <point x="164.10344827586206" y="370.2758620689655"/>
      <point x="221.93103448275863" y="370.2758620689655" type="curve" smooth="yes"/>
      <point x="310.2068965517241" y="370.2758620689655"/>
      <point x="364.0" y="321.13793103448273"/>
      <point x="364.0" y="219.24137931034483" type="curve" smooth="yes"/>
      <point x="364.0" y="94.72413793103448"/>
      <point x="305.48275862068965" y="55.827586206896555"/>
      <point x="233.41379310344828" y="55.827586206896555" type="curve" smooth="yes"/>
      <point x="151.79310344827587" y="55.827586206896555"/>
      <point x="119.24137931034483" y="111.62068965517241"/>
      <point x="119.24137931034483" y="168.6206896551724" type="curve"/>
      <point x="73.13793103448276" y="168.6206896551724"/>
      <point x="45.689655172413794" y="146.0"/>
      <point x="45.689655172413794" y="103.41379310344827" type="curve" smooth="yes"/>
      <point x="45.689655172413794" y="47.86206896551724"/>
      <point x="95.37931034482759" y="-10.0"/>
    </contour>
  </outline>
</glyph>
<glyph name="six" format="2">
  <advance width="559.0"/>
  <unicode hex="0036"/>
  <outline>
    <contour>
      <point x="293.0" y="-10.0" type="curve" smooth="yes"/>
      <point x="438.9310344827586" y="-10.0"/>
      <point x="517.9310344827586" y="88.0"/>
      <point x="517.9310344827586" y="230.24137931034483" type="curve" smooth="yes"/>
      <point x="517.9310344827586" y="359.48275862068965"/>
      <point x="438.9310344827586" y="436.48275862068965"/>
      <point x="317.55172413793105" y="436.48275862068965" type="curve" smooth="yes"/>
      <point x="250.68965517241378" y="436.48275862068965"/>
      <point x="206.93103448275863" y="415.2068965517241"/>
      <point x="177.6551724137931" y="393.7931034482759" type="curve"/>
      <point x="185.27586206896552" y="571.8965517241379"/>
      <point x="234.41379310344828" y="669.1724137931035"/>
      <point x="321.37931034482756" y="669.1724137931035" type="curve" smooth="yes"/>
      <point x="378.55172413793105" y="669.1724137931035"/>
      <point x="395.7241379310345" y="606.6206896551724"/>
      <point x="395.7241379310345" y="544.7241379310345" type="curve"/>
      <point x="469.3103448275862" y="544.7241379310345"/>
      <point x="499.41379310344826" y="576.0344827586207"/>
      <point x="499.41379310344826" y="615.8965517241379" type="curve" smooth="yes"/>
      <point x="499.41379310344826" y="671.7586206896551"/>
      <point x="449.13793103448273" y="724.0"/>
      <point x="326.9655172413793" y="724.0" type="curve" smooth="yes"/>
      <point x="140.0344827586207" y="724.0"/>
      <point x="51.06896551724138" y="550.0"/>
      <point x="51.06896551724138" y="341.37931034482756" type="curve" smooth="yes"/>
      <point x="51.06896551724138" y="97.0"/>
      <point x="150.68965517241378" y="-10.0"/>
    </contour>
    <contour>
      <point x="296.0" y="51.827586206896555" type="curve" smooth="yes"/>
      <point x="227.79310344827587" y="51.827586206896555"/>
      <point x="178.6551724137931" y="132.44827586206895"/>
      <point x="177.27586206896552" y="327.48275862068965" type="curve"/>
      <point x="198.06896551724137" y="352.37931034482756"/>
      <point x="244.93103448275863" y="379.2758620689655"/>
      <point x="287.0" y="379.2758620689655" type="curve" smooth="yes"/>
      <point x="351.58620689655174" y="379.2758620689655"/>
      <point x="389.2413793103448" y="330.51724137931035"/>
      <point x="389.2413793103448" y="220.24137931034483" type="curve" smooth="yes"/>
      <point x="389.2413793103448" y="102.96551724137932"/>
      <point x="354.58620689655174" y="51.827586206896555"/>
    </contour>
  </outline>
</glyph>
<glyph name="seven" format="2">
  <advance width="559.0"/>
  <unicode hex="0037"/>
  <outline>
    <contour>
      <point x="174.48275862068965" y="0.0" type="line"/>
      <point x="255.68965517241378" y="0.0" type="line"/>
      <point x="520.3103448275862" y="672.2068965517242" type="line"/>
      <point x="520.3103448275862" y="713.6206896551724" type="line"/>
      <point x="54.689655172413794" y="713.6206896551724" type="line"/>
      <point x="49.689655172413794" y="514.6206896551724" type="line"/>
      <point x="102.86206896551724" y="514.6206896551724" type="line"/>
      <point x="108.10344827586206" y="564.6206896551724" type="line" smooth="yes"/>
      <point x="111.72413793103448" y="597.6206896551724"/>
      <point x="130.10344827586206" y="615.6206896551724"/>
      <point x="166.10344827586206" y="615.6206896551724" type="curve" smooth="yes"/>
      <point x="429.1034482758621" y="615.6206896551724" type="line"/>
    </contour>
  </outline>
</glyph>
<glyph name="eight" format="2">
  <advance width="559.0"/>
  <unicode hex="0038"/>
  <outline>
    <contour>
      <point x="273.0" y="-10.0" type="curve" smooth="yes"/>
      <point x="428.3103448275862" y="-10.0"/>
      <point x="522.9310344827586" y="63.37931034482759"/>
      <point x="522.9310344827586" y="189.75862068965517" type="curve" smooth="yes"/>
      <point x="522.9310344827586" y="273.0344827586207"/>
      <point x="468.9655172413793" y="331.6551724137931"/>
      <point x="356.9310344827586" y="385.48275862068965" type="curve"/>
      <point x="439.17241379310343" y="427.3448275862069"/>
      <point x="491.9310344827586" y="467.1034482758621"/>
      <point x="491.9310344827586" y="550.1379310344828" type="curve" smooth="yes"/>
      <point x="491.9310344827586" y="650.7586206896551"/>
      <point x="419.9310344827586" y="724.0"/>
      <point x="285.0" y="724.0" type="curve" smooth="yes"/>
      <point x="119.82758620689656" y="724.0"/>
      <point x="59.06896551724138" y="635.7586206896551"/>
      <point x="59.06896551724138" y="543.1379310344828" type="curve" smooth="yes"/>
      <point x="59.06896551724138" y="462.86206896551727"/>
      <point x="106.48275862068965" y="406.2413793103448"/>
      <point x="184.9655172413793" y="361.37931034482756" type="curve"/>
      <point x="97.34482758620689" y="318.13793103448273"/>
      <point x="36.06896551724138" y="270.6551724137931"/>
      <point x="36.06896551724138" y="180.86206896551724" type="curve" smooth="yes"/>
      <point x="36.06896551724138" y="75.24137931034483"/>
      <point x="112.44827586206897" y="-10.0"/>
    </contour>
    <contour>
      <point x="278.0" y="42.827586206896555" type="curve" smooth="yes"/>
      <point x="202.0344827586207" y="42.827586206896555"/>
      <point x="156.6551724137931" y="96.96551724137932"/>
      <point x="156.6551724137931" y="176.86206896551724" type="curve" smooth="yes"/>
      <point x="156.6551724137931" y="248.75862068965517"/>
      <point x="192.93103448275863" y="296.55172413793105"/>
      <point x="244.75862068965517" y="327.44827586206895" type="curve"/>
      <point x="357.62068965517244" y="277.0344827586207"/>
      <point x="402.13793103448273" y="237.0"/>
      <point x="402.13793103448273" y="170.86206896551724" type="curve" smooth="yes"/>
      <point x="402.13793103448273" y="96.34482758620689"/>
      <point x="353.2068965517241" y="42.827586206896555"/>
    </contour>
    <contour>
      <point x="300.48275862068965" y="415.3103448275862" type="curve"/>
      <point x="223.27586206896552" y="450.7241379310345"/>
      <point x="182.24137931034483" y="485.0"/>
      <point x="182.24137931034483" y="555.1379310344828" type="curve" smooth="yes"/>
      <point x="182.24137931034483" y="621.0344827586207"/>
      <point x="216.41379310344828" y="670.1724137931035"/>
      <point x="279.0" y="670.1724137931035" type="curve" smooth="yes"/>
      <point x="348.7241379310345" y="670.1724137931035"/>
      <point x="379.9655172413793" y="610.6551724137931"/>
      <point x="379.9655172413793" y="552.1379310344828" type="curve" smooth="yes"/>
      <point x="379.9655172413793" y="484.62068965517244"/>
      <point x="359.3448275862069" y="446.7241379310345"/>
    </contour>
  </outline>
</glyph>
<glyph name="nine" format="2">
  <advance width="559.0"/>
  <unicode hex="0039"/>
  <outline>
    <contour>
      <point x="227.0" y="-10.379310344827585" type="curve"/>
      <point x="427.82758620689657" y="-10.379310344827585"/>
      <point x="507.9310344827586" y="171.79310344827587"/>
      <point x="507.9310344827586" y="388.0" type="curve"/>
      <point x="507.9310344827586" y="623.0"/>
      <point x="405.58620689655174" y="724.0"/>
      <point x="264.37931034482756" y="724.0" type="curve" smooth="yes"/>
      <point x="124.79310344827586" y="724.0"/>
      <point x="41.06896551724138" y="624.4827586206897"/>
      <point x="41.06896551724138" y="480.48275862068965" type="curve" smooth="yes"/>
      <point x="41.06896551724138" y="345.48275862068965"/>
      <point x="122.06896551724138" y="275.0"/>
      <point x="237.44827586206895" y="275.0" type="curve" smooth="yes"/>
      <point x="306.82758620689657" y="275.0"/>
      <point x="353.58620689655174" y="305.51724137931035"/>
      <point x="383.82758620689657" y="343.0" type="curve"/>
      <point x="376.82758620689657" y="147.58620689655172"/>
      <point x="328.44827586206895" y="49.58620689655172"/>
      <point x="230.48275862068965" y="49.58620689655172" type="curve" smooth="yes"/>
      <point x="165.0" y="49.58620689655172"/>
      <point x="130.6206896551724" y="92.79310344827586"/>
      <point x="112.0" y="145.9655172413793" type="curve"/>
      <point x="85.20689655172414" y="139.72413793103448"/>
      <point x="70.20689655172414" y="119.86206896551724"/>
      <point x="70.20689655172414" y="92.37931034482759" type="curve" smooth="yes"/>
      <point x="70.20689655172414" y="41.06896551724138"/>
      <point x="109.03448275862068" y="-10.379310344827585"/>
    </contour>
    <contour>
      <point x="272.48275862068965" y="342.0689655172414" type="curve" smooth="yes"/>
      <point x="204.79310344827587" y="342.0689655172414"/>
      <point x="170.13793103448276" y="389.17241379310343"/>
      <point x="170.13793103448276" y="488.0" type="curve" smooth="yes"/>
      <point x="170.13793103448276" y="601.8965517241379"/>
      <point x="206.17241379310346" y="661.551724137931"/>
      <point x="268.1034482758621" y="661.551724137931" type="curve" smooth="yes"/>
      <point x="336.41379310344826" y="661.551724137931"/>
      <point x="381.82758620689657" y="587.4137931034483"/>
      <point x="384.2068965517241" y="414.37931034482756" type="curve"/>
      <point x="364.9655172413793" y="373.2413793103448"/>
      <point x="326.9310344827586" y="342.0689655172414"/>
    </contour>
  </outline>
</glyph>
<glyph name="colon" format="2">
  <advance width="297.17241379310343"/>
  <unicode hex="003A"/>
  <outline>
    <contour>
      <point x="148.9655172413793" y="392.58620689655174" type="curve" smooth="yes"/>
      <point x="189.17241379310346" y="392.58620689655174"/>
      <point x="223.75862068965517" y="411.44827586206895"/>
      <point x="223.75862068965517" y="468.0344827586207" type="curve" smooth="yes"/>
      <point x="223.75862068965517" y="525.6206896551724"/>
      <point x="189.17241379310346" y="543.4827586206897"/>
      <point x="148.9655172413793" y="543.4827586206897" type="curve" smooth="yes"/>
      <point x="107.13793103448276" y="543.4827586206897"/>
      <point x="74.17241379310344" y="525.6206896551724"/>
      <point x="74.17241379310344" y="468.0344827586207" type="curve" smooth="yes"/>
      <point x="74.17241379310344" y="411.44827586206895"/>
      <point x="107.13793103448276" y="392.58620689655174"/>
    </contour>
    <contour>
      <point x="148.9655172413793" y="-7.620689655172414" type="curve" smooth="yes"/>
      <point x="189.17241379310346" y="-7.620689655172414"/>
      <point x="223.75862068965517" y="11.241379310344827"/>
      <point x="223.75862068965517" y="67.82758620689656" type="curve" smooth="yes"/>
      <point x="223.75862068965517" y="125.41379310344827"/>
      <point x="189.17241379310346" y="143.27586206896552"/>
      <point x="148.9655172413793" y="143.27586206896552" type="curve" smooth="yes"/>
      <point x="107.13793103448276" y="143.27586206896552"/>
      <point x="74.17241379310344" y="125.41379310344827"/>
      <point x="74.17241379310344" y="67.82758620689656" type="curve" smooth="yes"/>
      <point x="74.17241379310344" y="11.241379310344827"/>
      <point x="107.13793103448276" y="-7.620689655172414"/>
    </contour>
  </outline>
</glyph>
<glyph name="semicolon" format="2">
  <advance width="297.17241379310343"/>
  <unicode hex="003B"/>
  <outline>
    <contour>
      <point x="52.3448275862069" y="-154.0" type="line"/>
      <point x="178.17241379310346" y="-119.0"/>
      <point x="225.6551724137931" y="-43.0"/>
      <point x="225.6551724137931" y="42.0" type="curve" smooth="yes"/>
      <point x="225.6551724137931" y="105.44827586206897"/>
      <point x="189.6551724137931" y="143.27586206896552"/>
      <point x="139.3448275862069" y="143.27586206896552" type="curve" smooth="yes"/>
      <point x="99.86206896551724" y="143.27586206896552"/>
      <point x="70.0" y="120.41379310344827"/>
      <point x="70.0" y="78.06896551724138" type="curve" smooth="yes"/>
      <point x="70.0" y="5.275862068965517"/>
      <point x="143.0" y="15.517241379310345"/>
      <point x="143.0" y="-23.24137931034483" type="curve" smooth="yes"/>
      <point x="143.0" y="-62.241379310344826"/>
      <point x="113.0" y="-84.79310344827586"/>
      <point x="52.3448275862069" y="-105.79310344827586" type="curve"/>
    </contour>
    <contour>
      <point x="148.9655172413793" y="392.58620689655174" type="curve" smooth="yes"/>
      <point x="189.17241379310346" y="392.58620689655174"/>
      <point x="223.75862068965517" y="411.44827586206895"/>
      <point x="223.75862068965517" y="468.0344827586207" type="curve" smooth="yes"/>
      <point x="223.75862068965517" y="525.6206896551724"/>
      <point x="189.17241379310346" y="543.4827586206897"/>
      <point x="148.9655172413793" y="543.4827586206897" type="curve" smooth="yes"/>
      <point x="107.13793103448276" y="543.4827586206897"/>
      <point x="74.17241379310344" y="525.6206896551724"/>
      <point x="74.17241379310344" y="468.0344827586207" type="curve" smooth="yes"/>
      <point x="74.17241379310344" y="411.44827586206895"/>
      <point x="107.13793103448276" y="392.58620689655174"/>
    </contour>
  </outline>
</glyph>
<glyph name="greater" format="2">
  <advance width="559.0"/>
  <unicode hex="003E"/>
  <outline>
    <contour>
      <point x="65.0" y="106.27586206896552" type="line"/>
      <point x="494.0" y="338.13793103448273" type="line"/>
      <point x="494.0" y="376.86206896551727" type="line"/>
      <point x="65.0" y="609.7241379310345" type="line"/>
      <point x="65.0" y="535.2758620689655" type="line"/>
      <point x="392.3103448275862" y="357.0" type="line"/>
      <point x="65.0" y="180.72413793103448" type="line"/>
    </contour>
  </outline>
</glyph>
<glyph name="question" format="2">
  <advance width="531.0344827586207"/>
  <unicode hex="003F"/>
  <outline>
    <contour>
      <point x="207.0344827586207" y="217.75862068965517" type="line"/>
      <point x="268.0344827586207" y="217.75862068965517" type="line"/>
      <point x="280.44827586206895" y="317.1034482758621" type="line"/>
      <point x="410.0344827586207" y="370.58620689655174"/>
      <point x="477.55172413793105" y="433.0"/>
      <point x="477.55172413793105" y="541.1379310344828" type="curve" smooth="yes"/>
      <point x="477.55172413793105" y="656.3793103448276"/>
      <point x="377.7241379310345" y="724.0"/>
      <point x="242.41379310344828" y="724.0" type="curve" smooth="yes"/>
      <point x="102.24137931034483" y="724.0"/>
      <point x="39.275862068965516" y="674.1379310344828"/>
      <point x="39.275862068965516" y="609.5172413793103" type="curve" smooth="yes"/>
      <point x="39.275862068965516" y="564.0344827586207"/>
      <point x="89.17241379310344" y="541.4137931034483"/>
      <point x="158.27586206896552" y="541.4137931034483" type="curve"/>
      <point x="158.27586206896552" y="609.7931034482758"/>
      <point x="181.68965517241378" y="668.1724137931035"/>
      <point x="250.41379310344828" y="668.1724137931035" type="curve" smooth="yes"/>
      <point x="313.7586206896552" y="668.1724137931035"/>
      <point x="340.17241379310343" y="623.4137931034483"/>
      <point x="340.17241379310343" y="557.5172413793103" type="curve" smooth="yes"/>
      <point x="340.17241379310343" y="478.13793103448273"/>
      <point x="309.37931034482756" y="398.13793103448273"/>
      <point x="194.6206896551724" y="351.7586206896552" type="curve"/>
    </contour>
    <contour>
      <point x="236.0344827586207" y="-7.620689655172414" type="curve" smooth="yes"/>
      <point x="276.2413793103448" y="-7.620689655172414"/>
      <point x="310.82758620689657" y="11.241379310344827"/>
      <point x="310.82758620689657" y="67.82758620689656" type="curve" smooth="yes"/>
      <point x="310.82758620689657" y="125.41379310344827"/>
      <point x="276.2413793103448" y="143.27586206896552"/>
      <point x="236.0344827586207" y="143.27586206896552" type="curve" smooth="yes"/>
      <point x="194.20689655172413" y="143.27586206896552"/>
      <point x="161.24137931034483" y="125.41379310344827"/>
      <point x="161.24137931034483" y="67.82758620689656" type="curve" smooth="yes"/>
      <point x="161.24137931034483" y="11.241379310344827"/>
      <point x="194.20689655172413" y="-7.620689655172414"/>
    </contour>
  </outline>
</glyph>
<glyph name="bracketleft" format="2">
  <advance width="393.51724137931035"/>
  <unicode hex="005B"/>
  <outline>
    <contour>
      <point x="100.0" y="-128.0" type="line"/>
      <point x="356.51724137931035" y="-128.0" type="line"/>
      <point x="356.51724137931035" y="-79.17241379310344" type="line"/>
      <point x="313.51724137931035" y="-79.17241379310344" type="line" smooth="yes"/>
      <point x="268.51724137931035" y="-79.17241379310344"/>
      <point x="231.51724137931035" y="-70.17241379310344"/>
      <point x="231.51724137931035" y="-7.172413793103448" type="curve" smooth="yes"/>
      <point x="231.51724137931035" y="639.1724137931035" type="line" smooth="yes"/>
      <point x="231.51724137931035" y="702.1724137931035"/>
      <point x="268.51724137931035" y="711.1724137931035"/>
      <point x="313.51724137931035" y="711.1724137931035" type="curve" smooth="yes"/>
      <point x="356.51724137931035" y="711.1724137931035" type="line"/>
      <point x="356.51724137931035" y="760.0" type="line"/>
      <point x="100.0" y="760.0" type="line"/>
    </contour>
  </outline>
</glyph>
<glyph name="backslash" format="2">
  <advance width="288.0"/>
  <unicode hex="005C"/>
  <outline>
    <contour>
      <point x="220.93103448275863" y="-121.0" type="line"/>
      <point x="288.0" y="-121.0" type="line"/>
      <point x="66.06896551724138" y="760.0" type="line"/>
      <point x="0.0" y="760.0" type="line"/>
    </contour>
  </outline>
</glyph>
<glyph name="bracketright" format="2">
  <advance width="393.51724137931035"/>
  <unicode hex="005D"/>
  <outline>
    <contour>
      <point x="37.0" y="-128.0" type="line"/>
      <point x="293.51724137931035" y="-128.0" type="line"/>
      <point x="293.51724137931035" y="760.0" type="line"/>
      <point x="37.0" y="760.0" type="line"/>
      <point x="37.0" y="711.1724137931035" type="line"/>
      <point x="80.0" y="711.1724137931035" type="line" smooth="yes"/>
      <point x="125.0" y="711.1724137931035"/>
      <point x="162.0" y="702.1724137931035"/>
      <point x="162.0" y="639.1724137931035" type="curve" smooth="yes"/>
      <point x="162.0" y="-7.172413793103448" type="line" smooth="yes"/>
      <point x="162.0" y="-70.17241379310344"/>
      <point x="125.0" y="-79.17241379310344"/>
      <point x="80.0" y="-79.17241379310344" type="curve" smooth="yes"/>
      <point x="37.0" y="-79.17241379310344" type="line"/>
    </contour>
  </outline>
</glyph>
<glyph name="asciicircum" format="2">
  <advance width="559.0"/>
  <unicode hex="005E"/>
  <outline>
    <contour>
      <point x="47.89655172413793" y="263.51724137931035" type="line"/>
      <point x="121.72413793103448" y="263.51724137931035" type="line"/>
      <point x="278.0" y="611.448275862069" type="line"/>
      <point x="436.2758620689655" y="263.51724137931035" type="line"/>
      <point x="510.1034482758621" y="263.51724137931035" type="line"/>
      <point x="298.48275862068965" y="714.0" type="line"/>
      <point x="258.51724137931035" y="714.0" type="line"/>
    </contour>
  </outline>
</glyph>
<glyph name="braceleft" format="2">
  <advance width="436.6896551724138"/>
  <unicode hex="007B"/>
  <outline>
    <contour>
      <point x="315.1034482758621" y="-126.13793103448276" type="curve" smooth="yes"/>
      <point x="399.1034482758621" y="-126.13793103448276" type="line"/>
      <point x="399.1034482758621" y="-76.93103448275862" type="line"/>
      <point x="363.51724137931035" y="-76.93103448275862" type="line" smooth="yes"/>
      <point x="305.7586206896552" y="-76.93103448275862"/>
      <point x="288.3448275862069" y="-41.172413793103445"/>
      <point x="288.3448275862069" y="23.724137931034484" type="curve" smooth="yes"/>
      <point x="288.3448275862069" y="195.48275862068965" type="line" smooth="yes"/>
      <point x="288.3448275862069" y="257.7586206896552"/>
      <point x="253.9655172413793" y="299.0344827586207"/>
      <point x="177.9655172413793" y="315.7586206896552" type="curve"/>
      <point x="177.9655172413793" y="321.1034482758621" type="line"/>
      <point x="253.82758620689654" y="336.82758620689657"/>
      <point x="288.3448275862069" y="378.48275862068965"/>
      <point x="288.3448275862069" y="440.37931034482756" type="curve" smooth="yes"/>
      <point x="288.3448275862069" y="610.7586206896551" type="line" smooth="yes"/>
      <point x="288.3448275862069" y="676.0344827586207"/>
      <point x="305.7586206896552" y="710.7931034482758"/>
      <point x="363.51724137931035" y="710.7931034482758" type="curve" smooth="yes"/>
      <point x="399.1034482758621" y="710.7931034482758" type="line"/>
      <point x="399.1034482758621" y="760.0" type="line"/>
      <point x="315.1034482758621" y="760.0" type="line" smooth="yes"/>
      <point x="209.93103448275863" y="760.0"/>
      <point x="154.3448275862069" y="707.3793103448276"/>
      <point x="154.3448275862069" y="615.1379310344828" type="curve" smooth="yes"/>
      <point x="154.3448275862069" y="442.37931034482756" type="line" smooth="yes"/>
      <point x="154.3448275862069" y="365.1034482758621"/>
      <point x="102.9655172413793" y="346.82758620689657"/>
      <point x="37.58620689655172" y="344.82758620689657" type="curve"/>
      <point x="37.58620689655172" y="291.0344827586207" type="line"/>
      <point x="102.9655172413793" y="288.0344827586207"/>
      <point x="154.3448275862069" y="270.7586206896552"/>
      <point x="154.3448275862069" y="192.48275862068965" type="curve" smooth="yes"/>
      <point x="154.3448275862069" y="20.344827586206897" type="line" smooth="yes"/>
      <point x="154.3448275862069" y="-69.51724137931035"/>
      <point x="209.93103448275863" y="-126.13793103448276"/>
    </contour>
  </outline>
</glyph>
<glyph name="braceright" format="2">
  <advance width="436.6896551724138"/>
  <unicode hex="007D"/>
  <outline>
    <contour>
      <point x="37.58620689655172" y="-126.13793103448276" type="line"/>
      <point x="121.58620689655173" y="-126.13793103448276" type="line" smooth="yes"/>
      <point x="226.75862068965517" y="-126.13793103448276"/>
      <point x="282.3448275862069" y="-69.51724137931035"/>
      <point x="282.3448275862069" y="20.344827586206897" type="curve" smooth="yes"/>
      <point x="282.3448275862069" y="192.48275862068965" type="line" smooth="yes"/>
      <point x="282.3448275862069" y="270.7586206896552"/>
      <point x="333.7241379310345" y="288.0344827586207"/>
      <point x="399.1034482758621" y="291.0344827586207" type="curve"/>
      <point x="399.1034482758621" y="344.82758620689657" type="line"/>
      <point x="333.7241379310345" y="346.82758620689657"/>
      <point x="282.3448275862069" y="365.1034482758621"/>
      <point x="282.3448275862069" y="442.37931034482756" type="curve" smooth="yes"/>
      <point x="282.3448275862069" y="615.1379310344828" type="line" smooth="yes"/>
      <point x="282.3448275862069" y="707.3793103448276"/>
      <point x="226.75862068965517" y="760.0"/>
      <point x="121.58620689655173" y="760.0" type="curve" smooth="yes"/>
      <point x="37.58620689655172" y="760.0" type="line"/>
      <point x="37.58620689655172" y="710.7931034482758" type="line"/>
      <point x="73.17241379310344" y="710.7931034482758" type="line" smooth="yes"/>
      <point x="130.93103448275863" y="710.7931034482758"/>
      <point x="148.3448275862069" y="676.0344827586207"/>
      <point x="148.3448275862069" y="610.7586206896551" type="curve" smooth="yes"/>
      <point x="148.3448275862069" y="440.37931034482756" type="line" smooth="yes"/>
      <point x="148.3448275862069" y="378.48275862068965"/>
      <point x="182.86206896551724" y="336.82758620689657"/>
      <point x="258.7241379310345" y="321.1034482758621" type="curve"/>
      <point x="258.7241379310345" y="315.7586206896552" type="line"/>
      <point x="182.72413793103448" y="299.0344827586207"/>
      <point x="148.3448275862069" y="257.7586206896552"/>
      <point x="148.3448275862069" y="195.48275862068965" type="curve" smooth="yes"/>
      <point x="148.3448275862069" y="23.724137931034484" type="line" smooth="yes"/>
      <point x="148.3448275862069" y="-41.172413793103445"/>
      <point x="130.93103448275863" y="-76.93103448275862"/>
      <point x="73.17241379310344" y="-76.93103448275862" type="curve" smooth="yes"/>
      <point x="37.58620689655172" y="-76.93103448275862" type="line"/>
    </contour>
  </outline>
</glyph>
<glyph name="twosuperior" format="2">
  <advance width="400.0"/>
  <unicode hex="00B2"/>
  <outline>
    <contour>
      <point x="38.89655172413793" y="387.0" type="line"/>
      <point x="351.58620689655174" y="387.0" type="line"/>
      <point x="355.2068965517241" y="520.0689655172414" type="line"/>
      <point x="319.3448275862069" y="520.0689655172414" type="line"/>
      <point x="314.7241379310345" y="495.3448275862069" type="line"/>
      <point x="310.7241379310345" y="475.2068965517241"/>
      <point x="301.1034482758621" y="459.3103448275862"/>
      <point x="271.9655172413793" y="459.3103448275862" type="curve"/>
      <point x="117.65517241379311" y="459.3103448275862" type="line"/>
      <point x="208.75862068965517" y="533.551724137931" type="line"/>
      <point x="312.2413793103448" y="616.9655172413793"/>
      <point x="339.48275862068965" y="657.1034482758621"/>
      <point x="339.48275862068965" y="717.6206896551724" type="curve" smooth="yes"/>
      <point x="339.48275862068965" y="784.5172413793103"/>
      <point x="289.6896551724138" y="825.0"/>
      <point x="187.3793103448276" y="825.0" type="curve" smooth="yes"/>
      <point x="95.75862068965517" y="825.0"/>
      <point x="46.89655172413793" y="789.0"/>
      <point x="46.89655172413793" y="741.0" type="curve" smooth="yes"/>
      <point x="46.89655172413793" y="701.0344827586207"/>
      <point x="85.6896551724138" y="687.448275862069"/>
      <point x="130.06896551724137" y="687.448275862069" type="curve"/>
      <point x="130.06896551724137" y="733.448275862069"/>
      <point x="140.24137931034483" y="781.8965517241379"/>
      <point x="187.3793103448276" y="781.8965517241379" type="curve" smooth="yes"/>
      <point x="224.79310344827587" y="781.8965517241379"/>
      <point x="238.93103448275863" y="754.2413793103449"/>
      <point x="238.93103448275863" y="710.8620689655172" type="curve" smooth="yes"/>
      <point x="238.93103448275863" y="656.6206896551724"/>
      <point x="220.55172413793105" y="605.2068965517242"/>
      <point x="155.3448275862069" y="549.1034482758621" type="curve" smooth="yes"/>
      <point x="38.89655172413793" y="448.7586206896552" type="line"/>
    </contour>
  </outline>
</glyph>
<glyph name="threesuperior" format="2">
  <advance width="400.0"/>
  <unicode hex="00B3"/>
  <outline>
    <contour>
      <point x="168.41379310344828" y="380.0" type="curve" smooth="yes"/>
      <point x="249.6551724137931" y="380.0"/>
      <point x="355.3448275862069" y="413.0"/>
      <point x="355.3448275862069" y="511.0" type="curve" smooth="yes"/>
      <point x="355.3448275862069" y="574.0689655172414"/>
      <point x="305.48275862068965" y="602.3793103448276"/>
      <point x="242.55172413793105" y="612.0" type="curve"/>
      <point x="242.55172413793105" y="617.0" type="line"/>
      <point x="302.51724137931035" y="633.0"/>
      <point x="338.3448275862069" y="667.0"/>
      <point x="338.3448275862069" y="725.0" type="curve" smooth="yes"/>
      <point x="338.3448275862069" y="787.0"/>
      <point x="278.7241379310345" y="824.0"/>
      <point x="187.86206896551724" y="824.0" type="curve" smooth="yes"/>
      <point x="95.62068965517241" y="824.0"/>
      <point x="46.0" y="785.5172413793103"/>
      <point x="46.0" y="736.8965517241379" type="curve" smooth="yes"/>
      <point x="46.0" y="701.8965517241379"/>
      <point x="77.10344827586206" y="693.8965517241379"/>
      <point x="128.06896551724137" y="693.8965517241379" type="curve"/>
      <point x="128.06896551724137" y="739.8965517241379"/>
      <point x="141.20689655172413" y="780.8965517241379"/>
      <point x="186.6206896551724" y="780.8965517241379" type="curve" smooth="yes"/>
      <point x="223.27586206896552" y="780.8965517241379"/>
      <point x="237.41379310344828" y="757.5172413793103"/>
      <point x="237.41379310344828" y="715.3793103448276" type="curve" smooth="yes"/>
      <point x="237.41379310344828" y="663.6206896551724"/>
      <point x="204.6206896551724" y="631.8620689655172"/>
      <point x="154.6206896551724" y="631.8620689655172" type="curve" smooth="yes"/>
      <point x="121.62068965517241" y="631.8620689655172" type="line"/>
      <point x="121.62068965517241" y="587.1379310344828" type="line"/>
      <point x="154.6206896551724" y="587.1379310344828" type="line" smooth="yes"/>
      <point x="227.6206896551724" y="587.1379310344828"/>
      <point x="256.2758620689655" y="558.3793103448276"/>
      <point x="256.2758620689655" y="512.6206896551724" type="curve" smooth="yes"/>
      <point x="256.2758620689655" y="453.1034482758621"/>
      <point x="220.41379310344828" y="428.7241379310345"/>
      <point x="167.89655172413794" y="428.7241379310345" type="curve" smooth="yes"/>
      <point x="115.48275862068965" y="428.7241379310345"/>
      <point x="86.62068965517241" y="467.13793103448273"/>
      <point x="86.62068965517241" y="511.0" type="curve"/>
      <point x="51.172413793103445" y="511.0"/>
      <point x="34.41379310344828" y="489.13793103448273"/>
      <point x="34.41379310344828" y="462.0" type="curve" smooth="yes"/>
      <point x="34.41379310344828" y="413.0"/>
      <point x="81.41379310344827" y="380.0"/>
    </contour>
  </outline>
</glyph>
<glyph name="udatta-deva" format="2">
  <unicode hex="0951"/>
  <anchor x="0.0" y="559.5862068965517" name="_vedic"/>
  <outline>
    <contour>
      <point x="-35.06896551724138" y="923.1724137931035" type="line"/>
      <point x="35.06896551724138" y="923.1724137931035" type="line"/>
      <point x="35.06896551724138" y="1124.3793103448277" type="line"/>
      <point x="-35.06896551724138" y="1124.3793103448277" type="line"/>
    </contour>
  </outline>
</glyph>
<glyph name="anudatta-deva" format="2">
  <unicode hex="0952"/>
  <anchor x="0.0" y="0.0" name="_bottom"/>
  <outline>
    <contour>
      <point x="-197.48275862068965" y="-578.0344827586207" type="line"/>
      <point x="197.48275862068965" y="-578.0344827586207" type="line"/>
      <point x="197.48275862068965" y="-496.13793103448273" type="line"/>
      <point x="-197.48275862068965" y="-496.13793103448273" type="line"/>
    </contour>
  </outline>
</glyph>
<glyph name="danda-deva" format="2">
  <advance width="333.55172413793105"/>
  <unicode hex="0964"/>
  <outline>
    <contour>
      <point x="97.55172413793103" y="0.0" type="line"/>
      <point x="236.0" y="0.0" type="line"/>
      <point x="236.0" y="559.5862068965517" type="line"/>
      <point x="97.55172413793103" y="559.5862068965517" type="line"/>
    </contour>
  </outline>
</glyph>
<glyph name="dbldanda-deva" format="2">
  <advance width="606.2068965517242"/>
  <unicode hex="0965"/>
  <outline>
    <contour>
      <point x="370.2068965517241" y="0.0" type="line"/>
      <point x="508.65517241379314" y="0.0" type="line"/>
      <point x="508.65517241379314" y="559.5862068965517" type="line"/>
      <point x="370.2068965517241" y="559.5862068965517" type="line"/>
    </contour>
    <contour>
      <point x="97.55172413793103" y="0.0" type="line"/>
      <point x="236.0" y="0.0" type="line"/>
      <point x="236.0" y="559.5862068965517" type="line"/>
      <point x="97.55172413793103" y="559.5862068965517" type="line"/>
    </contour>
  </outline>
</glyph>
<glyph name="anusvara-tamil" format="2">
  <unicode hex="0B82"/>
  <note>
uni0B82
</note>
  <anchor x="0.0" y="559.5862068965517" name="_top"/>
  <outline>
    <contour>
      <point x="0.0" y="624.9310344827586" type="curve" smooth="yes"/>
      <point x="75.58620689655173" y="624.9310344827586"/>
      <point x="134.6551724137931" y="681.0"/>
      <point x="134.6551724137931" y="758.448275862069" type="curve" smooth="yes"/>
      <point x="134.6551724137931" y="836.2758620689655"/>
      <point x="75.58620689655173" y="892.3448275862069"/>
      <point x="0.0" y="892.3448275862069" type="curve" smooth="yes"/>
      <point x="-75.58620689655173" y="892.3448275862069"/>
      <point x="-134.6551724137931" y="836.2758620689655"/>
      <point x="-134.6551724137931" y="758.448275862069" type="curve" smooth="yes"/>
      <point x="-134.6551724137931" y="681.0"/>
      <point x="-75.58620689655173" y="624.9310344827586"/>
    </contour>
    <contour>
      <point x="0.0" y="693.2068965517242" type="curve" smooth="yes"/>
      <point x="-35.13793103448276" y="693.2068965517242"/>
      <point x="-63.0" y="721.0689655172414"/>
      <point x="-63.0" y="758.448275862069" type="curve" smooth="yes"/>
      <point x="-63.0" y="795.5862068965517"/>
      <point x="-35.13793103448276" y="823.448275862069"/>
      <point x="0.0" y="823.448275862069" type="curve" smooth="yes"/>
      <point x="35.13793103448276" y="823.448275862069"/>
      <point x="63.0" y="795.5862068965517"/>
      <point x="63.0" y="758.448275862069" type="curve" smooth="yes"/>
      <point x="63.0" y="721.0689655172414"/>
      <point x="35.13793103448276" y="693.2068965517242"/>
    </contour>
  </outline>
</glyph>
<glyph name="visarga-tamil" format="2">
  <advance width="926.2068965517242"/>
  <unicode hex="0B83"/>
  <note>
uni0B83
</note>
  <outline>
    <contour>
      <point x="688.5172413793103" y="-3.103448275862069" type="curve" smooth="yes"/>
      <point x="800.5172413793103" y="-3.103448275862069"/>
      <point x="874.4137931034483" y="71.89655172413794"/>
      <point x="874.4137931034483" y="184.3793103448276" type="curve" smooth="yes"/>
      <point x="874.4137931034483" y="296.48275862068965"/>
      <point x="800.5172413793103" y="370.86206896551727"/>
      <point x="688.5172413793103" y="370.86206896551727" type="curve" smooth="yes"/>
      <point x="581.448275862069" y="370.86206896551727"/>
      <point x="513.1724137931035" y="290.2758620689655"/>
      <point x="513.1724137931035" y="184.3793103448276" type="curve" smooth="yes"/>
      <point x="513.1724137931035" y="78.10344827586206"/>
      <point x="581.448275862069" y="-3.103448275862069"/>
    </contour>
    <contour>
      <point x="228.3793103448276" y="-3.103448275862069" type="curve" smooth="yes"/>
      <point x="340.37931034482756" y="-3.103448275862069"/>
      <point x="413.6551724137931" y="71.89655172413794"/>
      <point x="413.6551724137931" y="184.3793103448276" type="curve" smooth="yes"/>
      <point x="413.6551724137931" y="296.48275862068965"/>
      <point x="340.37931034482756" y="370.86206896551727"/>
      <point x="228.3793103448276" y="370.86206896551727" type="curve" smooth="yes"/>
      <point x="120.6896551724138" y="370.86206896551727"/>
      <point x="52.793103448275865" y="290.2758620689655"/>
      <point x="52.793103448275865" y="184.3793103448276" type="curve" smooth="yes"/>
      <point x="52.793103448275865" y="78.10344827586206"/>
      <point x="120.6896551724138" y="-3.103448275862069"/>
    </contour>
    <contour>
      <point x="460.3103448275862" y="428.13793103448273" type="curve" smooth="yes"/>
      <point x="572.3103448275862" y="428.13793103448273"/>
      <point x="645.5862068965517" y="505.2413793103448"/>
      <point x="645.5862068965517" y="614.6206896551724" type="curve" smooth="yes"/>
      <point x="645.5862068965517" y="727.1034482758621"/>
      <point x="572.3103448275862" y="801.1034482758621"/>
      <point x="460.3103448275862" y="801.1034482758621" type="curve" smooth="yes"/>
      <point x="353.2413793103448" y="801.1034482758621"/>
      <point x="284.3448275862069" y="720.8965517241379"/>
      <point x="284.3448275862069" y="614.6206896551724" type="curve" smooth="yes"/>
      <point x="284.3448275862069" y="508.3448275862069"/>
      <point x="353.2413793103448" y="428.13793103448273"/>
    </contour>
    <contour>
      <point x="212.75862068965517" y="50.241379310344826" type="curve" smooth="yes"/>
      <point x="151.24137931034483" y="50.241379310344826"/>
      <point x="110.10344827586206" y="103.24137931034483"/>
      <point x="110.10344827586206" y="184.3793103448276" type="curve" smooth="yes"/>
      <point x="110.10344827586206" y="264.51724137931035"/>
      <point x="151.24137931034483" y="317.51724137931035"/>
      <point x="212.75862068965517" y="317.51724137931035" type="curve" smooth="yes"/>
      <point x="277.41379310344826" y="317.51724137931035"/>
      <point x="312.2068965517241" y="267.17241379310343"/>
      <point x="312.2068965517241" y="184.3793103448276" type="curve" smooth="yes"/>
      <point x="312.2068965517241" y="100.20689655172414"/>
      <point x="277.41379310344826" y="50.241379310344826"/>
    </contour>
    <contour>
      <point x="445.3103448275862" y="481.1034482758621" type="curve" smooth="yes"/>
      <point x="383.17241379310343" y="481.1034482758621"/>
      <point x="342.6551724137931" y="533.4827586206897"/>
      <point x="342.6551724137931" y="614.6206896551724" type="curve" smooth="yes"/>
      <point x="342.6551724137931" y="694.7586206896551"/>
      <point x="383.17241379310343" y="747.7586206896551"/>
      <point x="445.3103448275862" y="747.7586206896551" type="curve" smooth="yes"/>
      <point x="509.9655172413793" y="747.7586206896551"/>
      <point x="543.7586206896551" y="697.7931034482758"/>
      <point x="543.7586206896551" y="614.6206896551724" type="curve" smooth="yes"/>
      <point x="543.7586206896551" y="530.8275862068965"/>
      <point x="509.9655172413793" y="481.1034482758621"/>
    </contour>
    <contour>
      <point x="673.5172413793103" y="50.241379310344826" type="curve" smooth="yes"/>
      <point x="612.0" y="50.241379310344826"/>
      <point x="570.8620689655172" y="103.24137931034483"/>
      <point x="570.8620689655172" y="184.3793103448276" type="curve" smooth="yes"/>
      <point x="570.8620689655172" y="264.51724137931035"/>
      <point x="612.0" y="317.51724137931035"/>
      <point x="673.5172413793103" y="317.51724137931035" type="curve" smooth="yes"/>
      <point x="738.1724137931035" y="317.51724137931035"/>
      <point x="772.3448275862069" y="267.17241379310343"/>
      <point x="772.3448275862069" y="184.3793103448276" type="curve" smooth="yes"/>
      <point x="772.3448275862069" y="100.20689655172414"/>
      <point x="738.1724137931035" y="50.241379310344826"/>
    </contour>
  </outline>
</glyph>
<glyph name="a-tamil" format="2">
  <advance width="1354.7586206896551"/>
  <unicode hex="0B85"/>
  <note>
uni0B85
</note>
  <anchor x="643.9310344827586" y="0.0" name="bottom"/>
  <anchor x="463.6896551724138" y="-140.0" name="nukta"/>
  <anchor x="646.2413793103449" y="559.5862068965517" name="top"/>
  <anchor x="646.2413793103449" y="559.5862068965517" name="vedic"/>
  <outline>
    <contour>
      <point x="1126.1379310344828" y="-217.0" type="line"/>
      <point x="1261.4827586206898" y="-217.0" type="line"/>
      <point x="1261.4827586206898" y="559.5862068965517" type="line"/>
      <point x="1126.1379310344828" y="559.5862068965517" type="line"/>
      <point x="1126.1379310344828" y="167.27586206896552" type="line"/>
      <point x="128.0" y="167.27586206896552" type="line" smooth="yes"/>
      <point x="64.03448275862068" y="167.27586206896552"/>
      <point x="32.793103448275865" y="134.31034482758622"/>
      <point x="32.793103448275865" y="85.9655172413793" type="curve" smooth="yes"/>
      <point x="32.793103448275865" y="-16.482758620689655"/>
      <point x="196.27586206896552" y="-140.0"/>
      <point x="463.6896551724138" y="-140.0" type="curve" smooth="yes"/>
      <point x="792.4137931034483" y="-140.0"/>
      <point x="992.0689655172414" y="7.068965517241379"/>
      <point x="992.0689655172414" y="241.31034482758622" type="curve" smooth="yes"/>
      <point x="992.0689655172414" y="428.3448275862069"/>
      <point x="848.6896551724138" y="564.5862068965517"/>
      <point x="646.2413793103449" y="564.5862068965517" type="curve" smooth="yes"/>
      <point x="497.0344827586207" y="564.5862068965517"/>
      <point x="401.86206896551727" y="487.9310344827586"/>
      <point x="401.86206896551727" y="380.0344827586207" type="curve" smooth="yes"/>
      <point x="401.86206896551727" y="295.2068965517241"/>
      <point x="468.62068965517244" y="229.6206896551724"/>
      <point x="570.3103448275862" y="229.6206896551724" type="curve" smooth="yes"/>
      <point x="675.8965517241379" y="229.6206896551724"/>
      <point x="734.448275862069" y="292.8965517241379"/>
      <point x="734.448275862069" y="368.9310344827586" type="curve" smooth="yes"/>
      <point x="734.448275862069" y="442.6896551724138"/>
      <point x="666.9310344827586" y="515.4827586206897"/>
      <point x="576.8965517241379" y="517.7586206896551" type="curve"/>
      <point x="519.4137931034483" y="513.5172413793103" type="line"/>
      <point x="576.3103448275862" y="499.37931034482756"/>
      <point x="627.3103448275862" y="447.6896551724138"/>
      <point x="627.3103448275862" y="386.0" type="curve" smooth="yes"/>
      <point x="627.3103448275862" y="339.48275862068965"/>
      <point x="599.2068965517242" y="303.48275862068965"/>
      <point x="548.0689655172414" y="303.48275862068965" type="curve" smooth="yes"/>
      <point x="507.0344827586207" y="303.48275862068965"/>
      <point x="469.55172413793105" y="329.2413793103448"/>
      <point x="469.55172413793105" y="385.7241379310345" type="curve" smooth="yes"/>
      <point x="469.55172413793105" y="451.0689655172414"/>
      <point x="529.6206896551724" y="505.62068965517244"/>
      <point x="631.1379310344828" y="505.62068965517244" type="curve" smooth="yes"/>
      <point x="741.3793103448276" y="505.62068965517244"/>
      <point x="855.7241379310345" y="429.1034482758621"/>
      <point x="855.7241379310345" y="260.55172413793105" type="curve" smooth="yes"/>
      <point x="855.7241379310345" y="27.82758620689655"/>
      <point x="674.448275862069" y="-81.0344827586207"/>
      <point x="451.8965517241379" y="-81.0344827586207" type="curve" smooth="yes"/>
      <point x="238.93103448275863" y="-81.0344827586207"/>
      <point x="97.37931034482759" y="9.137931034482758"/>
      <point x="97.37931034482759" y="81.06896551724138" type="curve" smooth="yes"/>
      <point x="97.37931034482759" y="98.3103448275862"/>
      <point x="105.62068965517241" y="108.93103448275862"/>
      <point x="132.6206896551724" y="108.93103448275862" type="curve" smooth="yes"/>
      <point x="1126.1379310344828" y="108.93103448275862" type="line"/>
    </contour>
  </outline>
</glyph>
<glyph name="aa-tamil" format="2">
  <advance width="1558.7586206896551"/>
  <unicode hex="0B86"/>
  <note>
uni0B86
</note>
  <anchor x="769.8275862068965" y="0.0" name="bottom"/>
  <anchor x="463.6896551724138" y="-140.0" name="nukta"/>
  <anchor x="771.8965517241379" y="559.5862068965517" name="top"/>
  <anchor x="772.1379310344828" y="559.5862068965517" name="vedic"/>
  <outline>
    <contour>
      <point x="1097.6896551724137" y="-453.55172413793105" type="curve" smooth="yes"/>
      <point x="1330.0" y="-453.55172413793105"/>
      <point x="1529.8620689655172" y="-327.0689655172414"/>
      <point x="1529.8620689655172" y="-107.44827586206897" type="curve" smooth="yes"/>
      <point x="1529.8620689655172" y="-0.7586206896551708"/>
      <point x="1477.3103448275863" y="69.20689655172414"/>
      <point x="1384.6206896551723" y="69.20689655172414" type="curve" smooth="yes"/>
      <point x="1299.2413793103449" y="69.20689655172414"/>
      <point x="1232.5862068965516" y="4.827586206896552"/>
      <point x="1224.9655172413793" y="-108.13793103448276" type="curve"/>
      <point x="1257.6896551724137" y="-117.03448275862068" type="line"/>
      <point x="1257.6896551724137" y="-57.93103448275862"/>
      <point x="1300.1724137931035" y="-29.17241379310345"/>
      <point x="1335.8275862068965" y="-29.17241379310345" type="curve" smooth="yes"/>
      <point x="1380.344827586207" y="-29.17241379310345"/>
      <point x="1403.9655172413793" y="-61.41379310344828"/>
      <point x="1403.9655172413793" y="-112.34482758620689" type="curve" smooth="yes"/>
      <point x="1403.9655172413793" y="-282.0"/>
      <point x="1246.3793103448277" y="-395.2068965517241"/>
      <point x="1083.1724137931035" y="-395.2068965517241" type="curve" smooth="yes"/>
      <point x="985.2413793103449" y="-395.2068965517241"/>
      <point x="870.448275862069" y="-363.86206896551727"/>
      <point x="870.448275862069" y="-282.37931034482756" type="curve" smooth="yes"/>
      <point x="870.448275862069" y="-230.41379310344828"/>
      <point x="918.8620689655172" y="-197.27586206896552"/>
      <point x="983.6551724137931" y="-190.51724137931035" type="curve"/>
      <point x="970.0344827586207" y="-133.17241379310346" type="line"/>
      <point x="875.1034482758621" y="-148.79310344827587"/>
      <point x="810.1034482758621" y="-196.82758620689654"/>
      <point x="810.1034482758621" y="-278.0" type="curve" smooth="yes"/>
      <point x="810.1034482758621" y="-399.58620689655174"/>
      <point x="950.2758620689655" y="-453.55172413793105"/>
    </contour>
    <component base="a-tamil"/>
  </outline>
</glyph>
<glyph name="i-tamil" format="2">
  <advance width="1055.2758620689656"/>
  <unicode hex="0B87"/>
  <note>
uni0B87
</note>
  <anchor x="511.2758620689655" y="0.0" name="bottom"/>
  <anchor x="509.2758620689655" y="-271.6551724137931" name="nukta"/>
  <anchor x="531.551724137931" y="850.1034482758621" name="top"/>
  <anchor x="517.2758620689655" y="559.5862068965517" name="vedic"/>
  <outline>
    <contour>
      <point x="244.06896551724137" y="-314.37931034482756" type="curve" smooth="yes"/>
      <point x="556.551724137931" y="-314.37931034482756"/>
      <point x="815.8275862068965" y="-69.89655172413794"/>
      <point x="815.8275862068965" y="236.51724137931035" type="curve" smooth="yes"/>
      <point x="815.8275862068965" y="438.1034482758621"/>
      <point x="689.4827586206897" y="564.5862068965517"/>
      <point x="499.2413793103448" y="564.5862068965517" type="curve" smooth="yes"/>
      <point x="354.7931034482759" y="564.5862068965517"/>
      <point x="264.55172413793105" y="490.3103448275862"/>
      <point x="264.55172413793105" y="382.62068965517244" type="curve" smooth="yes"/>
      <point x="264.55172413793105" y="297.51724137931035"/>
      <point x="333.9655172413793" y="236.20689655172413"/>
      <point x="418.51724137931035" y="236.20689655172413" type="curve" smooth="yes"/>
      <point x="519.6551724137931" y="236.20689655172413"/>
      <point x="575.9310344827586" y="294.8965517241379"/>
      <point x="575.9310344827586" y="374.0" type="curve" smooth="yes"/>
      <point x="575.9310344827586" y="447.17241379310343"/>
      <point x="506.0" y="516.3793103448276"/>
      <point x="401.6896551724138" y="523.2068965517242" type="curve"/>
      <point x="358.2068965517241" y="517.5862068965517" type="line"/>
      <point x="420.58620689655174" y="503.2068965517241"/>
      <point x="468.55172413793105" y="449.9310344827586"/>
      <point x="468.55172413793105" y="387.7241379310345" type="curve" smooth="yes"/>
      <point x="468.55172413793105" y="338.48275862068965"/>
      <point x="442.44827586206895" y="308.82758620689657"/>
      <point x="396.41379310344826" y="308.82758620689657" type="curve" smooth="yes"/>
      <point x="358.0" y="308.82758620689657"/>
      <point x="326.6551724137931" y="336.48275862068965"/>
      <point x="326.6551724137931" y="384.9655172413793" type="curve" smooth="yes"/>
      <point x="326.6551724137931" y="450.6896551724138"/>
      <point x="380.0344827586207" y="506.2413793103448"/>
      <point x="481.2413793103448" y="506.2413793103448" type="curve" smooth="yes"/>
      <point x="615.7586206896551" y="506.2413793103448"/>
      <point x="679.4827586206897" y="391.82758620689657"/>
      <point x="679.4827586206897" y="243.3793103448276" type="curve" smooth="yes"/>
      <point x="679.4827586206897" y="-32.275862068965516"/>
      <point x="520.8620689655172" y="-255.41379310344828"/>
      <point x="250.51724137931035" y="-255.41379310344828" type="curve" smooth="yes"/>
      <point x="169.27586206896552" y="-255.41379310344828"/>
      <point x="112.65517241379311" y="-218.44827586206895"/>
      <point x="112.65517241379311" y="-154.20689655172413" type="curve" smooth="yes"/>
      <point x="112.65517241379311" y="-25.20689655172414"/>
      <point x="328.41379310344826" y="50.172413793103445"/>
      <point x="506.8965517241379" y="50.172413793103445" type="curve" smooth="yes"/>
      <point x="680.9310344827586" y="50.172413793103445"/>
      <point x="897.9310344827586" y="-17.379310344827587"/>
      <point x="897.9310344827586" y="-146.44827586206895" type="curve" smooth="yes"/>
      <point x="897.9310344827586" y="-228.6551724137931"/>
      <point x="825.551724137931" y="-255.41379310344828"/>
      <point x="741.3793103448276" y="-255.41379310344828" type="curve" smooth="yes"/>
      <point x="463.0344827586207" y="-255.41379310344828"/>
      <point x="135.89655172413794" y="61.206896551724135"/>
      <point x="135.89655172413794" y="362.7241379310345" type="curve" smooth="yes"/>
      <point x="135.89655172413794" y="625.3103448275862"/>
      <point x="326.17241379310343" y="740.2413793103449"/>
      <point x="530.3103448275862" y="740.2413793103449" type="curve" smooth="yes"/>
      <point x="783.6896551724138" y="740.2413793103449"/>
      <point x="932.0344827586207" y="583.6206896551724"/>
      <point x="932.0344827586207" y="311.58620689655174" type="curve" smooth="yes"/>
      <point x="932.0344827586207" y="97.17241379310344" type="line"/>
      <point x="997.4827586206897" y="97.17241379310344" type="line"/>
      <point x="997.4827586206897" y="317.7931034482759" type="line" smooth="yes"/>
      <point x="997.4827586206897" y="667.2758620689655"/>
      <point x="824.8620689655172" y="850.1034482758621"/>
      <point x="531.551724137931" y="850.1034482758621" type="curve" smooth="yes"/>
      <point x="269.9310344827586" y="850.1034482758621"/>
      <point x="65.27586206896552" y="687.1379310344828"/>
      <point x="65.27586206896552" y="411.0" type="curve" smooth="yes"/>
      <point x="65.27586206896552" y="39.96551724137931"/>
      <point x="420.3448275862069" y="-313.7586206896552"/>
      <point x="774.2413793103449" y="-313.7586206896552" type="curve" smooth="yes"/>
      <point x="881.7931034482758" y="-313.7586206896552"/>
      <point x="968.551724137931" y="-260.7931034482759"/>
      <point x="968.551724137931" y="-163.55172413793105" type="curve" smooth="yes"/>
      <point x="968.551724137931" y="21.137931034482758"/>
      <point x="724.2758620689655" y="108.13793103448276"/>
      <point x="507.51724137931035" y="108.13793103448276" type="curve" smooth="yes"/>
      <point x="282.55172413793105" y="108.13793103448276"/>
      <point x="42.793103448275865" y="18.655172413793103"/>
      <point x="42.793103448275865" y="-153.58620689655172" type="curve" smooth="yes"/>
      <point x="42.793103448275865" y="-256.41379310344826"/>
      <point x="127.24137931034483" y="-314.37931034482756"/>
    </contour>
  </outline>
</glyph>
<glyph name="ii-tamil" format="2">
  <advance width="853.4827586206897"/>
  <unicode hex="0B88"/>
  <note>
uni0B88
</note>
  <anchor x="439.6896551724138" y="0.0" name="bottom"/>
  <anchor x="439.6896551724138" y="0.0" name="nukta"/>
  <anchor x="441.6896551724138" y="559.5862068965517" name="top"/>
  <anchor x="442.3103448275862" y="559.5862068965517" name="vedic"/>
  <outline>
    <contour>
      <point x="93.03448275862068" y="0.0" type="line"/>
      <point x="159.6206896551724" y="0.0" type="line"/>
      <point x="159.6206896551724" y="501.2413793103448" type="line"/>
      <point x="446.2413793103448" y="501.2413793103448" type="line"/>
      <point x="446.2413793103448" y="0.0" type="line"/>
      <point x="585.9310344827586" y="0.0" type="line"/>
      <point x="585.9310344827586" y="501.2413793103448" type="line"/>
      <point x="802.4827586206897" y="501.2413793103448" type="line"/>
      <point x="802.4827586206897" y="559.5862068965517" type="line"/>
      <point x="93.03448275862068" y="559.5862068965517" type="line"/>
    </contour>
    <contour>
      <point x="302.9310344827586" y="194.86206896551724" type="curve" smooth="yes"/>
      <point x="342.86206896551727" y="194.86206896551724"/>
      <point x="374.9310344827586" y="226.93103448275863"/>
      <point x="374.9310344827586" y="265.2413793103448" type="curve" smooth="yes"/>
      <point x="374.9310344827586" y="302.55172413793105"/>
      <point x="342.86206896551727" y="334.62068965517244"/>
      <point x="302.9310344827586" y="334.62068965517244" type="curve" smooth="yes"/>
      <point x="263.0" y="334.62068965517244"/>
      <point x="230.93103448275863" y="302.55172413793105"/>
      <point x="230.93103448275863" y="265.2413793103448" type="curve" smooth="yes"/>
      <point x="230.93103448275863" y="226.93103448275863"/>
      <point x="263.0" y="194.86206896551724"/>
    </contour>
    <contour>
      <point x="728.6206896551724" y="194.86206896551724" type="curve" smooth="yes"/>
      <point x="769.551724137931" y="194.86206896551724"/>
      <point x="800.6206896551724" y="226.93103448275863"/>
      <point x="800.6206896551724" y="265.2413793103448" type="curve" smooth="yes"/>
      <point x="800.6206896551724" y="302.55172413793105"/>
      <point x="769.551724137931" y="334.62068965517244"/>
      <point x="728.6206896551724" y="334.62068965517244" type="curve" smooth="yes"/>
      <point x="688.6896551724138" y="334.62068965517244"/>
      <point x="657.0" y="302.55172413793105"/>
      <point x="657.0" y="265.2413793103448" type="curve" smooth="yes"/>
      <point x="657.0" y="226.93103448275863"/>
      <point x="688.6896551724138" y="194.86206896551724"/>
    </contour>
  </outline>
</glyph>
<glyph name="u-tamil" format="2">
  <advance width="1014.9655172413793"/>
  <unicode hex="0B89"/>
  <note>
uni0B89
</note>
  <anchor x="527.3793103448276" y="0.0" name="bottom"/>
  <anchor x="527.3793103448276" y="0.0" name="nukta"/>
  <anchor x="530.6206896551724" y="559.5862068965517" name="top"/>
  <anchor x="530.3793103448276" y="559.5862068965517" name="vedic"/>
  <outline>
    <contour>
      <point x="147.17241379310346" y="0.0" type="curve" smooth="yes"/>
      <point x="1001.7931034482758" y="0.0" type="line"/>
      <point x="1001.7931034482758" y="58.3448275862069" type="line"/>
      <point x="140.41379310344828" y="58.3448275862069" type="line" smooth="yes"/>
      <point x="120.03448275862068" y="58.3448275862069"/>
      <point x="105.13793103448276" y="72.72413793103448"/>
      <point x="105.13793103448276" y="94.62068965517241" type="curve" smooth="yes"/>
      <point x="105.13793103448276" y="117.51724137931035"/>
      <point x="120.03448275862068" y="131.27586206896552"/>
      <point x="140.41379310344828" y="131.27586206896552" type="curve" smooth="yes"/>
      <point x="398.48275862068965" y="131.27586206896552" type="line" smooth="yes"/>
      <point x="572.7586206896551" y="131.27586206896552"/>
      <point x="692.0" y="197.51724137931035"/>
      <point x="692.0" y="335.37931034482756" type="curve" smooth="yes"/>
      <point x="692.0" y="487.82758620689657"/>
      <point x="558.2068965517242" y="564.5862068965517"/>
      <point x="389.51724137931035" y="564.5862068965517" type="curve" smooth="yes"/>
      <point x="215.41379310344828" y="564.5862068965517"/>
      <point x="129.06896551724137" y="486.3103448275862"/>
      <point x="129.06896551724137" y="381.2758620689655" type="curve" smooth="yes"/>
      <point x="129.06896551724137" y="297.0689655172414"/>
      <point x="197.68965517241378" y="240.17241379310346"/>
      <point x="289.0689655172414" y="240.17241379310346" type="curve" smooth="yes"/>
      <point x="395.8965517241379" y="240.17241379310346"/>
      <point x="448.86206896551727" y="297.2413793103448"/>
      <point x="448.86206896551727" y="368.9310344827586" type="curve" smooth="yes"/>
      <point x="448.86206896551727" y="442.0689655172414"/>
      <point x="386.9310344827586" y="513.0"/>
      <point x="293.7931034482759" y="517.7586206896551" type="curve"/>
      <point x="242.27586206896552" y="513.5172413793103" type="line"/>
      <point x="305.0" y="495.0344827586207"/>
      <point x="346.0689655172414" y="441.48275862068965"/>
      <point x="346.0689655172414" y="384.7586206896552" type="curve" smooth="yes"/>
      <point x="346.0689655172414" y="339.48275862068965"/>
      <point x="317.9655172413793" y="307.82758620689657"/>
      <point x="272.41379310344826" y="307.82758620689657" type="curve" smooth="yes"/>
      <point x="227.0344827586207" y="307.82758620689657"/>
      <point x="196.3793103448276" y="336.6896551724138"/>
      <point x="196.3793103448276" y="385.7241379310345" type="curve" smooth="yes"/>
      <point x="196.3793103448276" y="449.82758620689657"/>
      <point x="248.13793103448276" y="505.62068965517244"/>
      <point x="366.6551724137931" y="505.62068965517244" type="curve" smooth="yes"/>
      <point x="471.82758620689657" y="505.62068965517244"/>
      <point x="556.0344827586207" y="448.86206896551727"/>
      <point x="556.0344827586207" y="347.13793103448273" type="curve" smooth="yes"/>
      <point x="556.0344827586207" y="239.6551724137931"/>
      <point x="490.6551724137931" y="188.0"/>
      <point x="377.6551724137931" y="188.0" type="curve" smooth="yes"/>
      <point x="147.17241379310346" y="188.0" type="line" smooth="yes"/>
      <point x="83.17241379310344" y="188.0"/>
      <point x="42.793103448275865" y="155.86206896551724"/>
      <point x="42.793103448275865" y="94.62068965517241" type="curve" smooth="yes"/>
      <point x="42.793103448275865" y="34.37931034482759"/>
      <point x="83.17241379310344" y="0.0"/>
    </contour>
  </outline>
</glyph>
<glyph name="uu-tamil" format="2">
  <advance width="1772.655172413793"/>
  <unicode hex="0B8A"/>
  <note>
uni0B8A
</note>
  <anchor x="918.4137931034483" y="0.0" name="bottom"/>
  <anchor x="918.7931034482758" y="0.0" name="nukta"/>
  <anchor x="921.7931034482758" y="559.5862068965517" name="top"/>
  <anchor x="921.4137931034483" y="559.5862068965517" name="vedic"/>
  <outline>
    <contour>
      <point x="147.17241379310346" y="0.0" type="curve" smooth="yes"/>
      <point x="1726.551724137931" y="0.0" type="line"/>
      <point x="1726.551724137931" y="58.3448275862069" type="line"/>
      <point x="140.41379310344828" y="58.3448275862069" type="line" smooth="yes"/>
      <point x="120.03448275862068" y="58.3448275862069"/>
      <point x="105.13793103448276" y="72.72413793103448"/>
      <point x="105.13793103448276" y="94.62068965517241" type="curve" smooth="yes"/>
      <point x="105.13793103448276" y="117.51724137931035"/>
      <point x="120.03448275862068" y="131.27586206896552"/>
      <point x="140.41379310344828" y="131.27586206896552" type="curve" smooth="yes"/>
      <point x="398.48275862068965" y="131.27586206896552" type="line" smooth="yes"/>
      <point x="572.7586206896551" y="131.27586206896552"/>
      <point x="692.0" y="197.51724137931035"/>
      <point x="692.0" y="335.37931034482756" type="curve" smooth="yes"/>
      <point x="692.0" y="487.82758620689657"/>
      <point x="558.2068965517242" y="564.5862068965517"/>
      <point x="389.51724137931035" y="564.5862068965517" type="curve" smooth="yes"/>
      <point x="215.41379310344828" y="564.5862068965517"/>
      <point x="129.06896551724137" y="486.3103448275862"/>
      <point x="129.06896551724137" y="381.2758620689655" type="curve" smooth="yes"/>
      <point x="129.06896551724137" y="297.0689655172414"/>
      <point x="197.68965517241378" y="240.17241379310346"/>
      <point x="289.0689655172414" y="240.17241379310346" type="curve" smooth="yes"/>
      <point x="395.8965517241379" y="240.17241379310346"/>
      <point x="448.86206896551727" y="297.2413793103448"/>
      <point x="448.86206896551727" y="368.9310344827586" type="curve" smooth="yes"/>
      <point x="448.86206896551727" y="442.0689655172414"/>
      <point x="386.9310344827586" y="513.0"/>
      <point x="293.7931034482759" y="517.7586206896551" type="curve"/>
      <point x="242.27586206896552" y="513.5172413793103" type="line"/>
      <point x="305.0" y="495.0344827586207"/>
      <point x="346.0689655172414" y="441.48275862068965"/>
      <point x="346.0689655172414" y="384.7586206896552" type="curve" smooth="yes"/>
      <point x="346.0689655172414" y="339.48275862068965"/>
      <point x="317.9655172413793" y="307.82758620689657"/>
      <point x="272.41379310344826" y="307.82758620689657" type="curve" smooth="yes"/>
      <point x="227.0344827586207" y="307.82758620689657"/>
      <point x="196.3793103448276" y="336.6896551724138"/>
      <point x="196.3793103448276" y="385.7241379310345" type="curve" smooth="yes"/>
      <point x="196.3793103448276" y="449.82758620689657"/>
      <point x="248.13793103448276" y="505.62068965517244"/>
      <point x="366.6551724137931" y="505.62068965517244" type="curve" smooth="yes"/>
      <point x="471.82758620689657" y="505.62068965517244"/>
      <point x="556.0344827586207" y="448.86206896551727"/>
      <point x="556.0344827586207" y="347.13793103448273" type="curve" smooth="yes"/>
      <point x="556.0344827586207" y="239.6551724137931"/>
      <point x="490.6551724137931" y="188.0"/>
      <point x="377.6551724137931" y="188.0" type="curve" smooth="yes"/>
      <point x="147.17241379310346" y="188.0" type="line" smooth="yes"/>
      <point x="83.17241379310344" y="188.0"/>
      <point x="42.793103448275865" y="155.86206896551724"/>
      <point x="42.793103448275865" y="94.62068965517241" type="curve" smooth="yes"/>
      <point x="42.793103448275865" y="34.37931034482759"/>
      <point x="83.17241379310344" y="0.0"/>
    </contour>
    <contour>
      <point x="982.2758620689655" y="116.0344827586207" type="curve" smooth="yes"/>
      <point x="1084.1724137931035" y="116.0344827586207"/>
      <point x="1150.103448275862" y="168.13793103448276"/>
      <point x="1150.103448275862" y="253.17241379310346" type="curve" smooth="yes"/>
      <point x="1150.103448275862" y="338.3448275862069"/>
      <point x="1087.2068965517242" y="390.62068965517244"/>
      <point x="999.2413793103449" y="390.62068965517244" type="curve" smooth="yes"/>
      <point x="910.4827586206897" y="390.62068965517244"/>
      <point x="845.1724137931035" y="326.55172413793105"/>
      <point x="836.3793103448276" y="229.0344827586207" type="curve"/>
      <point x="865.2758620689655" y="202.17241379310346" type="line"/>
      <point x="874.3103448275862" y="270.13793103448273"/>
      <point x="915.3793103448276" y="328.86206896551727"/>
      <point x="973.1379310344828" y="328.86206896551727" type="curve" smooth="yes"/>
      <point x="1014.551724137931" y="328.86206896551727"/>
      <point x="1045.3103448275863" y="300.3448275862069"/>
      <point x="1045.3103448275863" y="258.0344827586207" type="curve" smooth="yes"/>
      <point x="1045.3103448275863" y="208.06896551724137"/>
      <point x="1009.2413793103449" y="175.24137931034483"/>
      <point x="954.3448275862069" y="175.24137931034483" type="curve" smooth="yes"/>
      <point x="887.8275862068965" y="175.24137931034483"/>
      <point x="840.9310344827586" y="228.20689655172413"/>
      <point x="840.9310344827586" y="330.17241379310343" type="curve" smooth="yes"/>
      <point x="840.9310344827586" y="445.48275862068965"/>
      <point x="930.6551724137931" y="506.2413793103448"/>
      <point x="1027.8620689655172" y="506.2413793103448" type="curve" smooth="yes"/>
      <point x="1135.896551724138" y="506.2413793103448"/>
      <point x="1226.8275862068965" y="439.7241379310345"/>
      <point x="1228.0689655172414" y="317.7586206896552" type="curve"/>
      <point x="1286.2068965517242" y="317.7586206896552" type="line"/>
      <point x="1283.7241379310344" y="474.13793103448273"/>
      <point x="1176.4137931034484" y="564.5862068965517"/>
      <point x="1030.2068965517242" y="564.5862068965517" type="curve" smooth="yes"/>
      <point x="883.3448275862069" y="564.5862068965517"/>
      <point x="776.3448275862069" y="472.7586206896552"/>
      <point x="776.3448275862069" y="329.41379310344826" type="curve" smooth="yes"/>
      <point x="776.3448275862069" y="201.48275862068965"/>
      <point x="862.8275862068965" y="116.0344827586207"/>
    </contour>
    <contour>
      <point x="1228.0689655172414" y="118.17241379310344" type="line"/>
      <point x="1347.2758620689656" y="118.17241379310344" type="line"/>
      <point x="1347.2758620689656" y="502.0" type="line"/>
      <point x="1510.2413793103449" y="502.0" type="line"/>
      <point x="1510.2413793103449" y="118.17241379310344" type="line"/>
      <point x="1630.0689655172414" y="118.17241379310344" type="line"/>
      <point x="1630.0689655172414" y="502.0" type="line"/>
      <point x="1726.551724137931" y="502.0" type="line"/>
      <point x="1726.551724137931" y="559.5862068965517" type="line"/>
      <point x="1250.448275862069" y="559.5862068965517" type="line"/>
      <point x="1250.448275862069" y="370.9310344827586" type="line"/>
      <point x="1228.0689655172414" y="369.41379310344826" type="line"/>
    </contour>
  </outline>
</glyph>
<glyph name="e-tamil" format="2">
  <advance width="969.6551724137931"/>
  <unicode hex="0B8E"/>
  <note>
uni0B8E
</note>
  <anchor x="517.4137931034483" y="0.0" name="bottom"/>
  <anchor x="518.4137931034483" y="0.0" name="nukta"/>
  <anchor x="519.0344827586207" y="559.5862068965517" name="top"/>
  <anchor x="520.4137931034483" y="559.5862068965517" name="vedic"/>
  <outline>
    <contour>
      <point x="289.7931034482759" y="-5.0" type="curve" smooth="yes"/>
      <point x="409.3448275862069" y="-5.0"/>
      <point x="484.44827586206895" y="64.58620689655173"/>
      <point x="484.44827586206895" y="156.20689655172413" type="curve" smooth="yes"/>
      <point x="484.44827586206895" y="245.10344827586206"/>
      <point x="423.9655172413793" y="315.41379310344826"/>
      <point x="317.55172413793105" y="315.41379310344826" type="curve" smooth="yes"/>
      <point x="210.24137931034483" y="315.41379310344826"/>
      <point x="134.44827586206895" y="243.89655172413794"/>
      <point x="123.72413793103448" y="112.44827586206897" type="curve"/>
      <point x="161.79310344827587" y="90.41379310344827" type="line"/>
      <point x="166.55172413793105" y="190.20689655172413"/>
      <point x="214.93103448275863" y="240.9655172413793"/>
      <point x="277.44827586206895" y="240.9655172413793" type="curve" smooth="yes"/>
      <point x="340.1034482758621" y="240.9655172413793"/>
      <point x="368.48275862068965" y="196.82758620689654"/>
      <point x="368.48275862068965" y="152.20689655172413" type="curve" smooth="yes"/>
      <point x="368.48275862068965" y="102.17241379310344"/>
      <point x="332.58620689655174" y="56.44827586206897"/>
      <point x="262.86206896551727" y="56.44827586206897" type="curve" smooth="yes"/>
      <point x="174.58620689655172" y="56.44827586206897"/>
      <point x="117.0" y="140.44827586206895"/>
      <point x="117.0" y="259.55172413793105" type="curve" smooth="yes"/>
      <point x="117.0" y="397.2413793103448"/>
      <point x="222.06896551724137" y="501.2413793103448"/>
      <point x="415.51724137931035" y="501.2413793103448" type="curve" smooth="yes"/>
      <point x="651.1034482758621" y="501.2413793103448" type="line"/>
      <point x="651.1034482758621" y="0.0" type="line"/>
      <point x="787.0689655172414" y="0.0" type="line"/>
      <point x="787.0689655172414" y="501.2413793103448" type="line"/>
      <point x="951.8965517241379" y="501.2413793103448" type="line"/>
      <point x="951.8965517241379" y="559.5862068965517" type="line"/>
      <point x="410.6551724137931" y="559.5862068965517" type="line" smooth="yes"/>
      <point x="187.24137931034483" y="559.5862068965517"/>
      <point x="55.89655172413793" y="428.7931034482759"/>
      <point x="55.89655172413793" y="261.17241379310343" type="curve" smooth="yes"/>
      <point x="55.89655172413793" y="104.72413793103448"/>
      <point x="151.44827586206895" y="-5.0"/>
    </contour>
  </outline>
</glyph>
<glyph name="ee-tamil" format="2">
  <advance width="969.6551724137931"/>
  <unicode hex="0B8F"/>
  <note>
uni0B8F
</note>
  <anchor x="517.4137931034483" y="0.0" name="bottom"/>
  <anchor x="518.4137931034483" y="-210.51724137931035" name="nukta"/>
  <anchor x="520.4137931034483" y="559.5862068965517" name="top"/>
  <anchor x="520.4137931034483" y="559.5862068965517" name="vedic"/>
  <outline>
    <contour>
      <point x="474.3448275862069" y="-264.82758620689657" type="line"/>
      <point x="787.0689655172414" y="24.551724137931036" type="line"/>
      <point x="787.0689655172414" y="501.2413793103448" type="line"/>
      <point x="951.8965517241379" y="501.2413793103448" type="line"/>
      <point x="951.8965517241379" y="559.5862068965517" type="line"/>
      <point x="408.7586206896552" y="559.5862068965517" type="line" smooth="yes"/>
      <point x="185.3448275862069" y="559.5862068965517"/>
      <point x="55.89655172413793" y="428.7931034482759"/>
      <point x="55.89655172413793" y="261.17241379310343" type="curve" smooth="yes"/>
      <point x="55.89655172413793" y="104.72413793103448"/>
      <point x="151.44827586206895" y="-4.620689655172414"/>
      <point x="289.7931034482759" y="-4.620689655172414" type="curve" smooth="yes"/>
      <point x="409.3448275862069" y="-4.620689655172414"/>
      <point x="484.44827586206895" y="64.96551724137932"/>
      <point x="484.44827586206895" y="156.20689655172413" type="curve" smooth="yes"/>
      <point x="484.44827586206895" y="245.10344827586206"/>
      <point x="423.9655172413793" y="315.7931034482759"/>
      <point x="317.55172413793105" y="315.7931034482759" type="curve" smooth="yes"/>
      <point x="210.24137931034483" y="315.7931034482759"/>
      <point x="134.44827586206895" y="243.89655172413794"/>
      <point x="123.72413793103448" y="112.82758620689656" type="curve"/>
      <point x="161.79310344827587" y="90.79310344827586" type="line"/>
      <point x="166.55172413793105" y="190.58620689655172"/>
      <point x="214.93103448275863" y="240.9655172413793"/>
      <point x="277.44827586206895" y="240.9655172413793" type="curve" smooth="yes"/>
      <point x="340.1034482758621" y="240.9655172413793"/>
      <point x="368.48275862068965" y="197.20689655172413"/>
      <point x="368.48275862068965" y="152.20689655172413" type="curve" smooth="yes"/>
      <point x="368.48275862068965" y="102.55172413793103"/>
      <point x="332.58620689655174" y="56.44827586206897"/>
      <point x="262.86206896551727" y="56.44827586206897" type="curve" smooth="yes"/>
      <point x="174.58620689655172" y="56.44827586206897"/>
      <point x="117.0" y="137.3448275862069"/>
      <point x="117.0" y="259.55172413793105" type="curve" smooth="yes"/>
      <point x="117.0" y="397.2413793103448"/>
      <point x="222.06896551724137" y="501.2413793103448"/>
      <point x="415.51724137931035" y="501.2413793103448" type="curve" smooth="yes"/>
      <point x="651.1034482758621" y="501.2413793103448" type="line"/>
      <point x="651.1034482758621" y="-11.931034482758621" type="line"/>
      <point x="431.7241379310345" y="-217.0" type="line"/>
    </contour>
  </outline>
</glyph>
<glyph name="ai-tamil" format="2">
  <advance width="1060.3793103448277"/>
  <unicode hex="0B90"/>
  <note>
uni0B90
</note>
  <anchor x="533.0344827586207" y="0.0" name="bottom"/>
  <anchor x="529.6206896551724" y="-313.37931034482756" name="nukta"/>
  <anchor x="545.0" y="559.5862068965517" name="top"/>
  <anchor x="545.2413793103449" y="559.5862068965517" name="vedic"/>
  <outline>
    <contour>
      <point x="317.37931034482756" y="-313.37931034482756" type="curve" smooth="yes"/>
      <point x="431.58620689655174" y="-313.37931034482756"/>
      <point x="527.448275862069" y="-272.37931034482756"/>
      <point x="547.1379310344828" y="-167.48275862068965" type="curve"/>
      <point x="563.3448275862069" y="-235.10344827586206"/>
      <point x="631.7931034482758" y="-313.37931034482756"/>
      <point x="772.4137931034483" y="-313.37931034482756" type="curve" smooth="yes"/>
      <point x="920.5172413793103" y="-313.37931034482756"/>
      <point x="1005.4827586206897" y="-235.13793103448276"/>
      <point x="1005.4827586206897" y="-112.41379310344827" type="curve" smooth="yes"/>
      <point x="1005.4827586206897" y="-49.6551724137931"/>
      <point x="979.8275862068965" y="8.103448275862068"/>
      <point x="931.0689655172414" y="68.06896551724138" type="curve"/>
      <point x="886.1034482758621" y="36.310344827586206" type="line"/>
      <point x="928.1034482758621" y="-15.137931034482758"/>
      <point x="942.1379310344828" y="-56.310344827586206"/>
      <point x="942.1379310344828" y="-103.55172413793103" type="curve" smooth="yes"/>
      <point x="942.1379310344828" y="-198.13793103448276"/>
      <point x="879.5862068965517" y="-252.3793103448276"/>
      <point x="772.4137931034483" y="-252.3793103448276" type="curve" smooth="yes"/>
      <point x="666.4137931034483" y="-252.3793103448276"/>
      <point x="620.7241379310345" y="-171.0"/>
      <point x="620.7241379310345" y="-77.72413793103448" type="curve" smooth="yes"/>
      <point x="620.7241379310345" y="-34.172413793103445" type="line"/>
      <point x="483.2758620689655" y="-34.172413793103445" type="line"/>
      <point x="483.2758620689655" y="-87.37931034482759" type="line" smooth="yes"/>
      <point x="483.2758620689655" y="-206.0"/>
      <point x="422.6896551724138" y="-254.6551724137931"/>
      <point x="338.51724137931035" y="-254.6551724137931" type="curve" smooth="yes"/>
      <point x="258.8965517241379" y="-254.6551724137931"/>
      <point x="194.9655172413793" y="-218.10344827586206"/>
      <point x="194.9655172413793" y="-121.34482758620689" type="curve" smooth="yes"/>
      <point x="194.9655172413793" y="41.93103448275862"/>
      <point x="351.0344827586207" y="63.37931034482759"/>
      <point x="572.4827586206897" y="78.48275862068965" type="curve" smooth="yes"/>
      <point x="796.5862068965517" y="94.44827586206897"/>
      <point x="1003.5862068965517" y="148.79310344827587"/>
      <point x="1003.5862068965517" y="346.2068965517241" type="curve" smooth="yes"/>
      <point x="1003.5862068965517" y="501.2758620689655"/>
      <point x="896.8275862068965" y="565.2068965517242"/>
      <point x="760.7931034482758" y="565.2068965517242" type="curve" smooth="yes"/>
      <point x="656.1724137931035" y="565.2068965517242"/>
      <point x="584.5172413793103" y="520.1034482758621"/>
      <point x="557.2413793103449" y="432.17241379310343" type="curve"/>
      <point x="522.4827586206897" y="519.2413793103449"/>
      <point x="427.0689655172414" y="565.2068965517242"/>
      <point x="318.9655172413793" y="565.2068965517242" type="curve" smooth="yes"/>
      <point x="169.51724137931035" y="565.2068965517242"/>
      <point x="60.51724137931034" y="486.55172413793105"/>
      <point x="60.51724137931034" y="350.86206896551727" type="curve" smooth="yes"/>
      <point x="60.51724137931034" y="239.24137931034483"/>
      <point x="139.20689655172413" y="157.86206896551724"/>
      <point x="247.27586206896552" y="157.86206896551724" type="curve" smooth="yes"/>
      <point x="342.2413793103448" y="157.86206896551724"/>
      <point x="406.9655172413793" y="201.27586206896552"/>
      <point x="406.9655172413793" y="282.82758620689657" type="curve" smooth="yes"/>
      <point x="406.9655172413793" y="362.2413793103448"/>
      <point x="350.7241379310345" y="410.7586206896552"/>
      <point x="268.13793103448273" y="410.7586206896552" type="curve" smooth="yes"/>
      <point x="201.20689655172413" y="410.7586206896552"/>
      <point x="123.06896551724138" y="372.41379310344826"/>
      <point x="112.6896551724138" y="245.24137931034483" type="curve"/>
      <point x="145.89655172413794" y="223.3793103448276" type="line"/>
      <point x="152.41379310344828" y="315.17241379310343"/>
      <point x="196.79310344827587" y="351.37931034482756"/>
      <point x="239.51724137931035" y="351.37931034482756" type="curve" smooth="yes"/>
      <point x="280.51724137931035" y="351.37931034482756"/>
      <point x="306.51724137931035" y="324.62068965517244"/>
      <point x="306.51724137931035" y="283.9655172413793" type="curve" smooth="yes"/>
      <point x="306.51724137931035" y="239.48275862068965"/>
      <point x="276.55172413793105" y="216.82758620689654"/>
      <point x="232.44827586206895" y="216.82758620689654" type="curve" smooth="yes"/>
      <point x="173.3793103448276" y="216.82758620689654"/>
      <point x="122.0" y="257.8965517241379"/>
      <point x="122.0" y="348.9655172413793" type="curve" smooth="yes"/>
      <point x="122.0" y="455.44827586206895"/>
      <point x="209.3448275862069" y="506.2413793103448"/>
      <point x="305.7931034482759" y="506.2413793103448" type="curve" smooth="yes"/>
      <point x="411.6551724137931" y="506.2413793103448"/>
      <point x="483.2758620689655" y="454.9310344827586"/>
      <point x="483.2758620689655" y="349.86206896551727" type="curve" smooth="yes"/>
      <point x="483.2758620689655" y="216.24137931034483" type="line"/>
      <point x="620.7241379310345" y="216.24137931034483" type="line"/>
      <point x="620.7241379310345" y="367.17241379310343" type="line" smooth="yes"/>
      <point x="620.7241379310345" y="450.7931034482759"/>
      <point x="663.6551724137931" y="506.2413793103448"/>
      <point x="740.9655172413793" y="506.2413793103448" type="curve" smooth="yes"/>
      <point x="826.7586206896551" y="506.2413793103448"/>
      <point x="864.5172413793103" y="451.82758620689657"/>
      <point x="864.5172413793103" y="363.0344827586207" type="curve" smooth="yes"/>
      <point x="864.5172413793103" y="194.31034482758622"/>
      <point x="713.9655172413793" y="137.82758620689654"/>
      <point x="473.7241379310345" y="122.34482758620689" type="curve" smooth="yes"/>
      <point x="237.89655172413794" y="107.24137931034483"/>
      <point x="55.89655172413793" y="67.58620689655173"/>
      <point x="55.89655172413793" y="-108.72413793103448" type="curve" smooth="yes"/>
      <point x="55.89655172413793" y="-243.0"/>
      <point x="171.6206896551724" y="-313.37931034482756"/>
    </contour>
  </outline>
</glyph>
<glyph name="o-tamil" format="2">
  <advance width="1056.0689655172414"/>
  <unicode hex="0B92"/>
  <note>
uni0B92
</note>
  <anchor x="535.3793103448276" y="0.0" name="bottom"/>
  <anchor x="533.3793103448276" y="-335.0" name="nukta"/>
  <anchor x="528.3793103448276" y="559.5862068965517" name="top"/>
  <anchor x="528.3793103448276" y="559.5862068965517" name="vedic"/>
  <outline>
    <contour>
      <point x="387.3448275862069" y="-364.0689655172414" type="curve" smooth="yes"/>
      <point x="641.5172413793103" y="-364.0689655172414"/>
      <point x="628.6551724137931" y="-155.93103448275863"/>
      <point x="810.4827586206897" y="-155.93103448275863" type="curve" smooth="yes"/>
      <point x="868.9310344827586" y="-155.93103448275863" type="line"/>
      <point x="868.9310344827586" y="-94.86206896551724" type="line"/>
      <point x="791.8620689655172" y="-94.86206896551724" type="line" smooth="yes"/>
      <point x="614.7241379310345" y="-94.86206896551724"/>
      <point x="525.4827586206897" y="90.3103448275862"/>
      <point x="639.3793103448276" y="221.0344827586207" type="curve"/>
      <point x="645.0" y="217.6551724137931" type="line"/>
      <point x="604.6206896551724" y="122.48275862068965"/>
      <point x="640.8965517241379" y="-5.0"/>
      <point x="795.0" y="-5.0" type="curve" smooth="yes"/>
      <point x="914.7931034482758" y="-5.0"/>
      <point x="1001.1724137931035" y="77.75862068965517"/>
      <point x="1001.1724137931035" y="201.6206896551724" type="curve" smooth="yes"/>
      <point x="1001.1724137931035" y="426.6551724137931"/>
      <point x="771.2068965517242" y="564.5862068965517"/>
      <point x="504.55172413793105" y="564.5862068965517" type="curve" smooth="yes"/>
      <point x="275.51724137931035" y="564.5862068965517"/>
      <point x="55.89655172413793" y="450.17241379310343"/>
      <point x="55.89655172413793" y="230.72413793103448" type="curve" smooth="yes"/>
      <point x="55.89655172413793" y="93.89655172413794"/>
      <point x="152.20689655172413" y="-5.0"/>
      <point x="286.6896551724138" y="-5.0" type="curve" smooth="yes"/>
      <point x="403.7586206896552" y="-5.0"/>
      <point x="478.2413793103448" y="64.96551724137932"/>
      <point x="478.2413793103448" y="156.20689655172413" type="curve" smooth="yes"/>
      <point x="478.2413793103448" y="245.10344827586206"/>
      <point x="417.7586206896552" y="315.7931034482759"/>
      <point x="314.44827586206895" y="315.7931034482759" type="curve" smooth="yes"/>
      <point x="207.13793103448276" y="315.7931034482759"/>
      <point x="128.24137931034483" y="241.41379310344828"/>
      <point x="118.13793103448276" y="106.62068965517241" type="curve"/>
      <point x="155.58620689655172" y="84.58620689655173" type="line"/>
      <point x="160.3448275862069" y="187.48275862068965"/>
      <point x="211.82758620689654" y="240.9655172413793"/>
      <point x="274.3448275862069" y="240.9655172413793" type="curve" smooth="yes"/>
      <point x="334.51724137931035" y="240.9655172413793"/>
      <point x="362.2758620689655" y="197.20689655172413"/>
      <point x="362.2758620689655" y="152.20689655172413" type="curve" smooth="yes"/>
      <point x="362.2758620689655" y="102.55172413793103"/>
      <point x="326.37931034482756" y="56.44827586206897"/>
      <point x="259.7586206896552" y="56.44827586206897" type="curve" smooth="yes"/>
      <point x="174.9655172413793" y="56.44827586206897"/>
      <point x="117.0" y="125.0344827586207"/>
      <point x="117.0" y="229.9655172413793" type="curve" smooth="yes"/>
      <point x="117.0" y="410.6896551724138"/>
      <point x="311.13793103448273" y="510.58620689655174"/>
      <point x="505.3103448275862" y="510.58620689655174" type="curve" smooth="yes"/>
      <point x="711.8275862068965" y="510.58620689655174"/>
      <point x="870.1724137931035" y="405.17241379310343"/>
      <point x="870.1724137931035" y="223.41379310344828" type="curve" smooth="yes"/>
      <point x="870.1724137931035" y="133.6551724137931"/>
      <point x="838.3448275862069" y="56.44827586206897"/>
      <point x="762.7586206896551" y="56.44827586206897" type="curve" smooth="yes"/>
      <point x="673.2068965517242" y="56.44827586206897"/>
      <point x="659.7241379310345" y="176.44827586206895"/>
      <point x="723.5172413793103" y="269.9310344827586" type="curve"/>
      <point x="663.7931034482758" y="315.17241379310343" type="line"/>
      <point x="493.3103448275862" y="198.44827586206895"/>
      <point x="496.2068965517241" y="-27.413793103448274"/>
      <point x="651.7241379310345" y="-115.0" type="curve"/>
      <point x="651.7241379310345" y="-120.0" type="line"/>
      <point x="512.1034482758621" y="-133.9655172413793"/>
      <point x="492.13793103448273" y="-296.82758620689657"/>
      <point x="349.55172413793105" y="-296.82758620689657" type="curve" smooth="yes"/>
      <point x="289.62068965517244" y="-296.82758620689657"/>
      <point x="253.10344827586206" y="-260.2413793103448"/>
      <point x="253.10344827586206" y="-210.10344827586206" type="curve" smooth="yes"/>
      <point x="253.10344827586206" y="-171.72413793103448"/>
      <point x="272.3448275862069" y="-140.75862068965517"/>
      <point x="315.0689655172414" y="-114.24137931034483" type="curve"/>
      <point x="279.17241379310343" y="-70.13793103448276" type="line"/>
      <point x="221.82758620689654" y="-108.65517241379311"/>
      <point x="195.9655172413793" y="-153.24137931034483"/>
      <point x="195.9655172413793" y="-205.3793103448276" type="curve" smooth="yes"/>
      <point x="195.9655172413793" y="-293.7586206896552"/>
      <point x="271.1034482758621" y="-364.0689655172414"/>
    </contour>
  </outline>
</glyph>
<glyph name="oo-tamil" format="2">
  <advance width="1056.0689655172414"/>
  <unicode hex="0B93"/>
  <note>
uni0B93
</note>
  <anchor x="521.2068965517242" y="0.0" name="bottom"/>
  <anchor x="519.2068965517242" y="-342.3103448275862" name="nukta"/>
  <anchor x="514.2068965517242" y="559.5862068965517" name="top"/>
  <anchor x="514.2068965517242" y="559.5862068965517" name="vedic"/>
  <outline>
    <contour>
      <point x="364.13793103448273" y="-386.48275862068965" type="curve" smooth="yes"/>
      <point x="647.7586206896551" y="-386.48275862068965"/>
      <point x="635.0689655172414" y="-155.93103448275863"/>
      <point x="802.2758620689655" y="-155.93103448275863" type="curve" smooth="yes"/>
      <point x="862.1034482758621" y="-155.93103448275863" type="line"/>
      <point x="862.1034482758621" y="-94.86206896551724" type="line"/>
      <point x="794.0344827586207" y="-94.86206896551724" type="line" smooth="yes"/>
      <point x="613.7931034482758" y="-94.86206896551724"/>
      <point x="527.3448275862069" y="97.13793103448276"/>
      <point x="630.6896551724138" y="221.0344827586207" type="curve"/>
      <point x="636.9310344827586" y="217.0344827586207" type="line"/>
      <point x="599.0344827586207" y="121.86206896551724"/>
      <point x="640.8965517241379" y="-5.0"/>
      <point x="795.0" y="-5.0" type="curve" smooth="yes"/>
      <point x="914.7931034482758" y="-5.0"/>
      <point x="1001.1724137931035" y="77.75862068965517"/>
      <point x="1001.1724137931035" y="201.6206896551724" type="curve" smooth="yes"/>
      <point x="1001.1724137931035" y="426.6551724137931"/>
      <point x="771.2068965517242" y="564.5862068965517"/>
      <point x="504.55172413793105" y="564.5862068965517" type="curve" smooth="yes"/>
      <point x="275.51724137931035" y="564.5862068965517"/>
      <point x="55.89655172413793" y="450.17241379310343"/>
      <point x="55.89655172413793" y="230.72413793103448" type="curve" smooth="yes"/>
      <point x="55.89655172413793" y="93.89655172413794"/>
      <point x="152.20689655172413" y="-5.0"/>
      <point x="286.6896551724138" y="-5.0" type="curve" smooth="yes"/>
      <point x="403.7586206896552" y="-5.0"/>
      <point x="478.2413793103448" y="64.96551724137932"/>
      <point x="478.2413793103448" y="156.20689655172413" type="curve" smooth="yes"/>
      <point x="478.2413793103448" y="245.10344827586206"/>
      <point x="417.7586206896552" y="315.7931034482759"/>
      <point x="314.44827586206895" y="315.7931034482759" type="curve" smooth="yes"/>
      <point x="207.13793103448276" y="315.7931034482759"/>
      <point x="128.24137931034483" y="241.41379310344828"/>
      <point x="118.13793103448276" y="106.62068965517241" type="curve"/>
      <point x="155.58620689655172" y="84.58620689655173" type="line"/>
      <point x="160.3448275862069" y="187.48275862068965"/>
      <point x="211.82758620689654" y="240.9655172413793"/>
      <point x="274.3448275862069" y="240.9655172413793" type="curve" smooth="yes"/>
      <point x="334.51724137931035" y="240.9655172413793"/>
      <point x="362.2758620689655" y="197.20689655172413"/>
      <point x="362.2758620689655" y="152.20689655172413" type="curve" smooth="yes"/>
      <point x="362.2758620689655" y="102.55172413793103"/>
      <point x="326.37931034482756" y="56.44827586206897"/>
      <point x="259.7586206896552" y="56.44827586206897" type="curve" smooth="yes"/>
      <point x="174.9655172413793" y="56.44827586206897"/>
      <point x="117.0" y="125.0344827586207"/>
      <point x="117.0" y="229.9655172413793" type="curve" smooth="yes"/>
      <point x="117.0" y="410.6896551724138"/>
      <point x="311.13793103448273" y="510.58620689655174"/>
      <point x="505.3103448275862" y="510.58620689655174" type="curve" smooth="yes"/>
      <point x="711.8275862068965" y="510.58620689655174"/>
      <point x="870.1724137931035" y="405.17241379310343"/>
      <point x="870.1724137931035" y="223.41379310344828" type="curve" smooth="yes"/>
      <point x="870.1724137931035" y="133.6551724137931"/>
      <point x="838.3448275862069" y="56.44827586206897"/>
      <point x="762.7586206896551" y="56.44827586206897" type="curve" smooth="yes"/>
      <point x="673.2068965517242" y="56.44827586206897"/>
      <point x="650.4137931034483" y="176.44827586206895"/>
      <point x="714.8275862068965" y="269.9310344827586" type="curve"/>
      <point x="655.1034482758621" y="315.17241379310343" type="line"/>
      <point x="482.7586206896552" y="195.9655172413793"/>
      <point x="498.62068965517244" y="-28.655172413793103"/>
      <point x="657.2413793103449" y="-116.24137931034483" type="curve"/>
      <point x="657.2413793103449" y="-121.24137931034483" type="line"/>
      <point x="513.6551724137931" y="-132.75862068965517"/>
      <point x="488.2068965517241" y="-321.1034482758621"/>
      <point x="323.7241379310345" y="-321.1034482758621" type="curve" smooth="yes"/>
      <point x="247.06896551724137" y="-321.1034482758621"/>
      <point x="212.6206896551724" y="-272.9655172413793"/>
      <point x="212.6206896551724" y="-225.48275862068965" type="curve" smooth="yes"/>
      <point x="212.6206896551724" y="-181.24137931034483"/>
      <point x="250.0" y="-150.79310344827587"/>
      <point x="290.7241379310345" y="-150.79310344827587" type="curve" smooth="yes"/>
      <point x="333.55172413793105" y="-150.79310344827587"/>
      <point x="365.44827586206895" y="-173.3793103448276"/>
      <point x="381.17241379310343" y="-224.75862068965517" type="curve"/>
      <point x="425.55172413793105" y="-204.0689655172414"/>
      <point x="452.7586206896552" y="-173.20689655172413"/>
      <point x="452.7586206896552" y="-139.89655172413794" type="curve" smooth="yes"/>
      <point x="452.7586206896552" y="-89.55172413793103"/>
      <point x="399.2068965517241" y="-60.724137931034484"/>
      <point x="339.8965517241379" y="-60.724137931034484" type="curve" smooth="yes"/>
      <point x="244.41379310344828" y="-60.724137931034484"/>
      <point x="153.6206896551724" y="-115.65517241379311"/>
      <point x="153.6206896551724" y="-220.24137931034483" type="curve" smooth="yes"/>
      <point x="153.6206896551724" y="-321.6896551724138"/>
      <point x="246.75862068965517" y="-386.48275862068965"/>
    </contour>
  </outline>
</glyph>
<glyph name="au-tamil" format="2">
  <advance width="2337.551724137931"/>
  <unicode hex="0B94"/>
  <note>
uni0B94
</note>
  <anchor x="1193.5862068965516" y="0.0" name="bottom"/>
  <anchor x="1288.8620689655172" y="0.0" name="nukta"/>
  <anchor x="1186.5862068965516" y="559.5862068965517" name="top"/>
  <anchor x="1186.5862068965516" y="559.5862068965517" name="vedic"/>
  <outline>
    <contour>
      <point x="1320.4137931034484" y="-4.620689655172414" type="curve" smooth="yes"/>
      <point x="1439.5862068965516" y="-4.620689655172414"/>
      <point x="1514.448275862069" y="64.96551724137932"/>
      <point x="1514.448275862069" y="156.20689655172413" type="curve" smooth="yes"/>
      <point x="1514.448275862069" y="245.10344827586206"/>
      <point x="1453.5862068965516" y="315.7931034482759"/>
      <point x="1347.7931034482758" y="315.7931034482759" type="curve" smooth="yes"/>
      <point x="1240.8620689655172" y="315.7931034482759"/>
      <point x="1165.0689655172414" y="243.89655172413794"/>
      <point x="1154.344827586207" y="112.82758620689656" type="curve"/>
      <point x="1192.4137931034484" y="90.79310344827586" type="line"/>
      <point x="1197.1724137931035" y="190.58620689655172"/>
      <point x="1245.551724137931" y="240.9655172413793"/>
      <point x="1307.6896551724137" y="240.9655172413793" type="curve" smooth="yes"/>
      <point x="1370.7241379310344" y="240.9655172413793"/>
      <point x="1399.103448275862" y="197.20689655172413"/>
      <point x="1399.103448275862" y="152.20689655172413" type="curve" smooth="yes"/>
      <point x="1399.103448275862" y="102.55172413793103"/>
      <point x="1363.2068965517242" y="56.44827586206897"/>
      <point x="1293.4827586206898" y="56.44827586206897" type="curve" smooth="yes"/>
      <point x="1204.8275862068965" y="56.44827586206897"/>
      <point x="1147.6206896551723" y="140.44827586206895"/>
      <point x="1147.6206896551723" y="259.55172413793105" type="curve" smooth="yes"/>
      <point x="1147.6206896551723" y="400.7241379310345"/>
      <point x="1249.2413793103449" y="506.2413793103448"/>
      <point x="1429.7586206896551" y="506.2413793103448" type="curve" smooth="yes"/>
      <point x="1565.7241379310344" y="506.2413793103448"/>
      <point x="1682.103448275862" y="428.6896551724138"/>
      <point x="1682.103448275862" y="295.6896551724138" type="curve"/>
      <point x="1740.8275862068965" y="305.2758620689655" type="line"/>
      <point x="1725.2758620689656" y="476.1034482758621"/>
      <point x="1587.1379310344828" y="564.5862068965517"/>
      <point x="1422.3103448275863" y="564.5862068965517" type="curve" smooth="yes"/>
      <point x="1213.2758620689656" y="564.5862068965517"/>
      <point x="1086.1379310344828" y="432.2758620689655"/>
      <point x="1086.1379310344828" y="261.17241379310343" type="curve" smooth="yes"/>
      <point x="1086.1379310344828" y="104.72413793103448"/>
      <point x="1182.0689655172414" y="-4.620689655172414"/>
    </contour>
    <contour>
      <point x="1682.103448275862" y="0.0" type="line"/>
      <point x="1817.6896551724137" y="0.0" type="line"/>
      <point x="1817.6896551724137" y="501.2413793103448" type="line"/>
      <point x="2019.6206896551723" y="501.2413793103448" type="line"/>
      <point x="2019.6206896551723" y="0.0" type="line"/>
      <point x="2155.5862068965516" y="0.0" type="line"/>
      <point x="2155.5862068965516" y="501.2413793103448" type="line"/>
      <point x="2319.793103448276" y="501.2413793103448" type="line"/>
      <point x="2319.793103448276" y="559.5862068965517" type="line"/>
      <point x="1704.7241379310344" y="559.5862068965517" type="line"/>
      <point x="1704.7241379310344" y="366.51724137931035" type="line"/>
      <point x="1682.103448275862" y="373.9310344827586" type="line"/>
    </contour>
    <component base="o-tamil"/>
  </outline>
</glyph>
<glyph name="nga-tamil" format="2">
  <advance width="1069.9310344827586"/>
  <unicode hex="0B99"/>
  <note>
uni0B99
</note>
  <anchor x="533.7241379310345" y="0.0" name="bottom"/>
  <anchor x="584.2068965517242" y="559.5862068965517" name="imatra"/>
  <anchor x="534.3448275862069" y="0.0" name="nukta"/>
  <anchor x="531.8620689655172" y="559.5862068965517" name="top"/>
  <anchor x="534.3448275862069" y="559.5862068965517" name="vedic"/>
  <outline>
    <contour>
      <point x="93.03448275862068" y="0.0" type="line"/>
      <point x="155.27586206896552" y="0.0" type="line"/>
      <point x="155.27586206896552" y="501.2413793103448" type="line"/>
      <point x="314.8965517241379" y="501.2413793103448" type="line"/>
      <point x="314.8965517241379" y="182.9655172413793" type="line"/>
      <point x="442.7931034482759" y="182.9655172413793" type="line"/>
      <point x="442.7931034482759" y="219.27586206896552" type="line" smooth="yes"/>
      <point x="442.7931034482759" y="265.82758620689657"/>
      <point x="473.9310344827586" y="294.2758620689655"/>
      <point x="515.3793103448276" y="294.2758620689655" type="curve" smooth="yes"/>
      <point x="559.2068965517242" y="294.2758620689655"/>
      <point x="592.0" y="260.58620689655174"/>
      <point x="592.0" y="203.79310344827587" type="curve" smooth="yes"/>
      <point x="592.0" y="113.3103448275862"/>
      <point x="522.3448275862069" y="58.3448275862069"/>
      <point x="436.2758620689655" y="58.3448275862069" type="curve" smooth="yes"/>
      <point x="314.8965517241379" y="58.3448275862069" type="line"/>
      <point x="314.8965517241379" y="0.0" type="line"/>
      <point x="976.6551724137931" y="0.0" type="line"/>
      <point x="976.6551724137931" y="559.5862068965517" type="line"/>
      <point x="838.2068965517242" y="559.5862068965517" type="line"/>
      <point x="838.2068965517242" y="58.3448275862069" type="line"/>
      <point x="586.0689655172414" y="58.3448275862069" type="line"/>
      <point x="650.8965517241379" y="71.86206896551724"/>
      <point x="721.0" y="130.55172413793105"/>
      <point x="721.0" y="227.86206896551724" type="curve" smooth="yes"/>
      <point x="721.0" y="318.7241379310345"/>
      <point x="655.4827586206897" y="381.48275862068965"/>
      <point x="565.3793103448276" y="381.48275862068965" type="curve" smooth="yes"/>
      <point x="504.2068965517241" y="381.48275862068965"/>
      <point x="462.1034482758621" y="349.7931034482759"/>
      <point x="446.51724137931035" y="322.7931034482759" type="curve"/>
      <point x="446.51724137931035" y="501.2413793103448" type="line"/>
      <point x="610.3448275862069" y="501.2413793103448" type="line"/>
      <point x="610.3448275862069" y="559.5862068965517" type="line"/>
      <point x="93.03448275862068" y="559.5862068965517" type="line"/>
    </contour>
  </outline>
</glyph>
<glyph name="ja-tamil" format="2">
  <advance width="1058.2413793103449"/>
  <unicode hex="0B9C"/>
  <note>
uni0B9C
</note>
  <anchor x="533.0344827586207" y="0.0" name="bottom"/>
  <anchor x="529.6206896551724" y="-313.37931034482756" name="nukta"/>
  <anchor x="548.5862068965517" y="559.5862068965517" name="top"/>
  <anchor x="542.9655172413793" y="559.5862068965517" name="vedic"/>
  <outline>
    <contour>
      <point x="298.62068965517244" y="-313.37931034482756" type="curve" smooth="yes"/>
      <point x="560.6206896551724" y="-313.37931034482756"/>
      <point x="547.7931034482758" y="-19.482758620689655"/>
      <point x="749.2758620689655" y="-19.482758620689655" type="curve" smooth="yes"/>
      <point x="822.551724137931" y="-19.482758620689655"/>
      <point x="867.3793103448276" y="-66.86206896551724"/>
      <point x="867.3793103448276" y="-132.3793103448276" type="curve" smooth="yes"/>
      <point x="867.3793103448276" y="-199.20689655172413"/>
      <point x="828.0" y="-253.82758620689654"/>
      <point x="749.0344827586207" y="-253.82758620689654" type="curve" smooth="yes"/>
      <point x="717.551724137931" y="-253.82758620689654"/>
      <point x="683.9310344827586" y="-244.58620689655172"/>
      <point x="640.9655172413793" y="-220.24137931034483" type="curve"/>
      <point x="621.3448275862069" y="-259.86206896551727" type="line"/>
      <point x="682.4827586206897" y="-300.13793103448273"/>
      <point x="741.6551724137931" y="-313.37931034482756"/>
      <point x="794.7241379310345" y="-313.37931034482756" type="curve" smooth="yes"/>
      <point x="914.7241379310345" y="-313.37931034482756"/>
      <point x="1003.3448275862069" y="-244.31034482758622"/>
      <point x="1003.3448275862069" y="-143.58620689655172" type="curve" smooth="yes"/>
      <point x="1003.3448275862069" y="-16.862068965517242"/>
      <point x="912.6896551724138" y="40.724137931034484"/>
      <point x="785.9655172413793" y="40.724137931034484" type="curve" smooth="yes"/>
      <point x="513.6206896551724" y="40.724137931034484"/>
      <point x="529.1724137931035" y="-255.41379310344828"/>
      <point x="321.2413793103448" y="-255.41379310344828" type="curve" smooth="yes"/>
      <point x="241.20689655172413" y="-255.41379310344828"/>
      <point x="194.58620689655172" y="-196.82758620689654"/>
      <point x="194.58620689655172" y="-116.41379310344827" type="curve" smooth="yes"/>
      <point x="194.58620689655172" y="40.96551724137931"/>
      <point x="358.41379310344826" y="64.72413793103448"/>
      <point x="573.1034482758621" y="84.58620689655173" type="curve" smooth="yes"/>
      <point x="811.4827586206897" y="106.6896551724138"/>
      <point x="1003.3448275862069" y="155.48275862068965"/>
      <point x="1003.3448275862069" y="348.0689655172414" type="curve" smooth="yes"/>
      <point x="1003.3448275862069" y="500.0344827586207"/>
      <point x="897.8275862068965" y="565.2068965517242"/>
      <point x="762.0344827586207" y="565.2068965517242" type="curve" smooth="yes"/>
      <point x="664.0" y="565.2068965517242"/>
      <point x="584.5172413793103" y="520.1034482758621"/>
      <point x="557.2413793103449" y="432.17241379310343" type="curve"/>
      <point x="522.8620689655172" y="519.2413793103449"/>
      <point x="438.86206896551727" y="565.2068965517242"/>
      <point x="330.7586206896552" y="565.2068965517242" type="curve" smooth="yes"/>
      <point x="179.20689655172413" y="565.2068965517242"/>
      <point x="60.51724137931034" y="486.55172413793105"/>
      <point x="60.51724137931034" y="350.86206896551727" type="curve" smooth="yes"/>
      <point x="60.51724137931034" y="236.13793103448276"/>
      <point x="135.10344827586206" y="157.86206896551724"/>
      <point x="247.27586206896552" y="157.86206896551724" type="curve" smooth="yes"/>
      <point x="339.58620689655174" y="157.86206896551724"/>
      <point x="408.2068965517241" y="196.6551724137931"/>
      <point x="408.2068965517241" y="282.82758620689657" type="curve" smooth="yes"/>
      <point x="408.2068965517241" y="367.3448275862069"/>
      <point x="350.44827586206895" y="410.7586206896552"/>
      <point x="271.86206896551727" y="410.7586206896552" type="curve" smooth="yes"/>
      <point x="206.17241379310346" y="410.7586206896552"/>
      <point x="129.0344827586207" y="369.9310344827586"/>
      <point x="120.51724137931035" y="245.24137931034483" type="curve"/>
      <point x="152.48275862068965" y="223.3793103448276" type="line"/>
      <point x="161.48275862068965" y="319.51724137931035"/>
      <point x="204.10344827586206" y="351.37931034482756"/>
      <point x="246.86206896551724" y="351.37931034482756" type="curve" smooth="yes"/>
      <point x="278.41379310344826" y="351.37931034482756"/>
      <point x="304.41379310344826" y="328.58620689655174"/>
      <point x="304.41379310344826" y="289.55172413793105" type="curve" smooth="yes"/>
      <point x="304.41379310344826" y="245.9655172413793"/>
      <point x="276.82758620689657" y="216.82758620689654"/>
      <point x="232.44827586206895" y="216.82758620689654" type="curve" smooth="yes"/>
      <point x="169.6551724137931" y="216.82758620689654"/>
      <point x="128.20689655172413" y="257.8965517241379"/>
      <point x="128.20689655172413" y="348.9655172413793" type="curve" smooth="yes"/>
      <point x="128.20689655172413" y="452.7241379310345"/>
      <point x="215.93103448275863" y="506.2413793103448"/>
      <point x="312.37931034482756" y="506.2413793103448" type="curve" smooth="yes"/>
      <point x="418.2413793103448" y="506.2413793103448"/>
      <point x="483.2758620689655" y="454.9310344827586"/>
      <point x="483.2758620689655" y="349.86206896551727" type="curve" smooth="yes"/>
      <point x="483.2758620689655" y="216.24137931034483" type="line"/>
      <point x="621.1034482758621" y="216.24137931034483" type="line"/>
      <point x="621.1034482758621" y="367.17241379310343" type="line" smooth="yes"/>
      <point x="621.1034482758621" y="450.7931034482759"/>
      <point x="666.7586206896551" y="506.2413793103448"/>
      <point x="744.0689655172414" y="506.2413793103448" type="curve" smooth="yes"/>
      <point x="826.1379310344828" y="506.2413793103448"/>
      <point x="864.2758620689655" y="454.9310344827586"/>
      <point x="864.2758620689655" y="361.7931034482759" type="curve" smooth="yes"/>
      <point x="864.2758620689655" y="208.9655172413793"/>
      <point x="742.4827586206897" y="144.75862068965517"/>
      <point x="474.1034482758621" y="122.75862068965517" type="curve" smooth="yes"/>
      <point x="267.9655172413793" y="106.0"/>
      <point x="55.89655172413793" y="83.89655172413794"/>
      <point x="55.89655172413793" y="-108.82758620689656" type="curve" smooth="yes"/>
      <point x="55.89655172413793" y="-243.75862068965517"/>
      <point x="165.06896551724137" y="-313.37931034482756"/>
    </contour>
  </outline>
</glyph>
<glyph name="tta-tamil" format="2">
  <advance width="936.2758620689655"/>
  <unicode hex="0B9F"/>
  <note>
uni0B9F
</note>
  <anchor x="484.0689655172414" y="0.0" name="bottom"/>
  <anchor x="484.0689655172414" y="0.0" name="nukta"/>
  <anchor x="556.7241379310345" y="559.5862068965517" name="top"/>
  <anchor x="508.8965517241379" y="559.5862068965517" name="vedic"/>
  <outline>
    <contour>
      <point x="93.03448275862068" y="0.0" type="line"/>
      <point x="924.7586206896551" y="0.0" type="line"/>
      <point x="924.7586206896551" y="58.3448275862069" type="line"/>
      <point x="231.10344827586206" y="58.3448275862069" type="line"/>
      <point x="231.10344827586206" y="559.5862068965517" type="line"/>
      <point x="93.03448275862068" y="559.5862068965517" type="line"/>
    </contour>
  </outline>
</glyph>
<glyph name="ta-tamil" format="2">
  <advance width="893.7241379310345"/>
  <unicode hex="0BA4"/>
  <note>
uni0BA4
</note>
  <anchor x="441.2758620689655" y="0.0" name="bottom"/>
  <anchor x="616.1034482758621" y="559.5862068965517" name="imatra"/>
  <anchor x="470.44827586206895" y="-135.0344827586207" name="nukta"/>
  <anchor x="468.1034482758621" y="559.5862068965517" name="top"/>
  <anchor x="446.37931034482756" y="559.5862068965517" name="vedic"/>
  <outline>
    <contour>
      <point x="172.6551724137931" y="-263.8965517241379" type="curve"/>
      <point x="172.6551724137931" y="-184.3448275862069"/>
      <point x="195.75862068965517" y="-135.0344827586207"/>
      <point x="302.7931034482759" y="-135.0344827586207" type="curve" smooth="yes"/>
      <point x="459.51724137931035" y="-135.0344827586207" type="line" smooth="yes"/>
      <point x="722.551724137931" y="-135.0344827586207"/>
      <point x="838.448275862069" y="-50.44827586206897"/>
      <point x="838.448275862069" y="104.82758620689656" type="curve" smooth="yes"/>
      <point x="838.448275862069" y="242.93103448275863"/>
      <point x="722.8620689655172" y="325.0689655172414"/>
      <point x="565.8275862068965" y="325.0689655172414" type="curve" smooth="yes"/>
      <point x="553.7241379310345" y="325.0689655172414" type="line"/>
      <point x="553.7241379310345" y="501.2413793103448" type="line"/>
      <point x="717.551724137931" y="501.2413793103448" type="line"/>
      <point x="717.551724137931" y="559.5862068965517" type="line"/>
      <point x="199.9655172413793" y="559.5862068965517" type="line"/>
      <point x="199.9655172413793" y="303.37931034482756" type="line"/>
      <point x="265.3103448275862" y="303.37931034482756" type="line"/>
      <point x="265.3103448275862" y="501.2413793103448" type="line"/>
      <point x="416.51724137931035" y="501.2413793103448" type="line"/>
      <point x="416.51724137931035" y="325.6896551724138" type="line"/>
      <point x="247.89655172413794" y="325.6896551724138" type="line" smooth="yes"/>
      <point x="129.17241379310346" y="325.6896551724138"/>
      <point x="60.51724137931034" y="258.48275862068965"/>
      <point x="60.51724137931034" y="166.9655172413793" type="curve" smooth="yes"/>
      <point x="60.51724137931034" y="62.10344827586207"/>
      <point x="149.68965517241378" y="-4.0"/>
      <point x="281.7241379310345" y="-4.0" type="curve" smooth="yes"/>
      <point x="460.51724137931035" y="-4.0"/>
      <point x="553.7241379310345" y="86.20689655172414"/>
      <point x="553.7241379310345" y="216.75862068965517" type="curve" smooth="yes"/>
      <point x="553.7241379310345" y="264.86206896551727" type="line"/>
      <point x="565.8275862068965" y="264.86206896551727" type="line" smooth="yes"/>
      <point x="647.0689655172414" y="264.86206896551727"/>
      <point x="707.5862068965517" y="202.68965517241378"/>
      <point x="707.5862068965517" y="109.06896551724138" type="curve" smooth="yes"/>
      <point x="707.5862068965517" y="-26.379310344827587"/>
      <point x="606.0344827586207" y="-83.55172413793103"/>
      <point x="429.41379310344826" y="-83.55172413793103" type="curve" smooth="yes"/>
      <point x="249.79310344827587" y="-83.55172413793103" type="line" smooth="yes"/>
      <point x="148.75862068965517" y="-83.55172413793103"/>
      <point x="56.96551724137931" y="-103.03448275862068"/>
      <point x="56.96551724137931" y="-182.72413793103448" type="curve" smooth="yes"/>
      <point x="56.96551724137931" y="-238.55172413793105"/>
      <point x="102.24137931034483" y="-263.8965517241379"/>
    </contour>
    <contour>
      <point x="267.51724137931035" y="56.44827586206897" type="curve" smooth="yes"/>
      <point x="177.20689655172413" y="56.44827586206897"/>
      <point x="128.72413793103448" y="98.27586206896552"/>
      <point x="128.72413793103448" y="165.58620689655172" type="curve" smooth="yes"/>
      <point x="128.72413793103448" y="224.24137931034483"/>
      <point x="171.13793103448276" y="267.3448275862069"/>
      <point x="259.0" y="267.3448275862069" type="curve" smooth="yes"/>
      <point x="416.51724137931035" y="267.3448275862069" type="line"/>
      <point x="416.51724137931035" y="206.3793103448276" type="line" smooth="yes"/>
      <point x="416.51724137931035" y="107.37931034482759"/>
      <point x="352.86206896551727" y="56.44827586206897"/>
    </contour>
  </outline>
</glyph>
<glyph name="na-tamil" format="2">
  <advance width="850.8275862068965"/>
  <unicode hex="0BA8"/>
  <note>
uni0BA8
</note>
  <anchor x="411.6896551724138" y="0.0" name="bottom"/>
  <anchor x="569.6896551724138" y="559.5862068965517" name="imatra"/>
  <anchor x="414.86206896551727" y="-210.17241379310346" name="nukta"/>
  <anchor x="418.2758620689655" y="559.5862068965517" name="top"/>
  <anchor x="444.17241379310343" y="559.5862068965517" name="vedic"/>
  <outline>
    <contour>
      <point x="208.72413793103448" y="-263.8965517241379" type="curve"/>
      <point x="208.72413793103448" y="-184.3448275862069"/>
      <point x="231.82758620689654" y="-134.41379310344828"/>
      <point x="338.48275862068965" y="-134.41379310344828" type="curve" smooth="yes"/>
      <point x="428.9310344827586" y="-134.41379310344828" type="line" smooth="yes"/>
      <point x="655.7586206896551" y="-134.41379310344828"/>
      <point x="795.9310344827586" y="-56.41379310344828"/>
      <point x="795.9310344827586" y="133.68965517241378" type="curve" smooth="yes"/>
      <point x="795.9310344827586" y="275.62068965517244"/>
      <point x="708.2413793103449" y="342.51724137931035"/>
      <point x="614.448275862069" y="342.51724137931035" type="curve" smooth="yes"/>
      <point x="539.3448275862069" y="342.51724137931035"/>
      <point x="499.7241379310345" y="302.62068965517244"/>
      <point x="486.37931034482756" y="272.0" type="curve"/>
      <point x="486.37931034482756" y="501.2413793103448" type="line"/>
      <point x="652.4827586206897" y="501.2413793103448" type="line"/>
      <point x="652.4827586206897" y="559.5862068965517" type="line"/>
      <point x="111.20689655172414" y="559.5862068965517" type="line"/>
      <point x="111.20689655172414" y="0.0" type="line"/>
      <point x="177.79310344827587" y="0.0" type="line"/>
      <point x="177.79310344827587" y="501.2413793103448" type="line"/>
      <point x="348.9310344827586" y="501.2413793103448" type="line"/>
      <point x="348.9310344827586" y="0.0" type="line"/>
      <point x="486.37931034482756" y="0.0" type="line"/>
      <point x="486.37931034482756" y="183.6206896551724" type="line" smooth="yes"/>
      <point x="486.37931034482756" y="227.93103448275863"/>
      <point x="512.3103448275862" y="264.8965517241379"/>
      <point x="561.7586206896551" y="264.8965517241379" type="curve" smooth="yes"/>
      <point x="614.5862068965517" y="264.8965517241379"/>
      <point x="656.4827586206897" y="226.58620689655172"/>
      <point x="656.4827586206897" y="120.82758620689656" type="curve" smooth="yes"/>
      <point x="656.4827586206897" y="-9.517241379310345"/>
      <point x="593.8965517241379" y="-82.93103448275862"/>
      <point x="419.3103448275862" y="-82.93103448275862" type="curve" smooth="yes"/>
      <point x="285.86206896551727" y="-82.93103448275862" type="line" smooth="yes"/>
      <point x="184.82758620689654" y="-82.93103448275862"/>
      <point x="93.03448275862068" y="-103.03448275862068"/>
      <point x="93.03448275862068" y="-182.72413793103448" type="curve" smooth="yes"/>
      <point x="93.03448275862068" y="-237.41379310344828"/>
      <point x="138.31034482758622" y="-263.8965517241379"/>
    </contour>
  </outline>
</glyph>
<glyph name="pa-tamil" format="2">
  <advance width="940.2068965517242"/>
  <unicode hex="0BAA"/>
  <note>
uni0BAA
</note>
  <anchor x="470.1034482758621" y="0.0" name="bottom"/>
  <anchor x="837.551724137931" y="559.5862068965517" name="imatra"/>
  <anchor x="470.1034482758621" y="0.0" name="nukta"/>
  <anchor x="467.62068965517244" y="559.5862068965517" name="top"/>
  <anchor x="470.1034482758621" y="559.5862068965517" name="vedic"/>
  <outline>
    <contour>
      <point x="93.03448275862068" y="0.0" type="line"/>
      <point x="846.9310344827586" y="0.0" type="line"/>
      <point x="846.9310344827586" y="559.5862068965517" type="line"/>
      <point x="708.4827586206897" y="559.5862068965517" type="line"/>
      <point x="708.4827586206897" y="58.3448275862069" type="line"/>
      <point x="228.6206896551724" y="58.3448275862069" type="line"/>
      <point x="228.6206896551724" y="559.5862068965517" type="line"/>
      <point x="93.03448275862068" y="559.5862068965517" type="line"/>
    </contour>
  </outline>
</glyph>
<glyph name="ma-tamil" format="2">
  <advance width="955.6551724137931"/>
  <unicode hex="0BAE"/>
  <note>
uni0BAE
</note>
  <anchor x="477.13793103448273" y="0.0" name="bottom"/>
  <anchor x="862.3793103448276" y="559.5862068965517" name="imatra"/>
  <anchor x="477.51724137931035" y="0.0" name="nukta"/>
  <anchor x="524.6896551724138" y="559.5862068965517" name="top"/>
  <anchor x="493.8965517241379" y="559.5862068965517" name="vedic"/>
  <outline>
    <contour>
      <point x="93.03448275862068" y="0.0" type="line"/>
      <point x="731.5862068965517" y="0.0" type="line" smooth="yes"/>
      <point x="854.8965517241379" y="0.0"/>
      <point x="894.7586206896551" y="85.03448275862068"/>
      <point x="894.7586206896551" y="237.17241379310346" type="curve" smooth="yes"/>
      <point x="894.7586206896551" y="453.44827586206895"/>
      <point x="792.1379310344828" y="565.2068965517242"/>
      <point x="653.9655172413793" y="565.2068965517242" type="curve" smooth="yes"/>
      <point x="536.6896551724138" y="565.2068965517242"/>
      <point x="455.58620689655174" y="493.8965517241379"/>
      <point x="455.58620689655174" y="376.6551724137931" type="curve" smooth="yes"/>
      <point x="455.58620689655174" y="58.3448275862069" type="line"/>
      <point x="231.10344827586206" y="58.3448275862069" type="line"/>
      <point x="231.10344827586206" y="559.5862068965517" type="line"/>
      <point x="93.03448275862068" y="559.5862068965517" type="line"/>
    </contour>
    <contour>
      <point x="592.7931034482758" y="58.3448275862069" type="line"/>
      <point x="592.7931034482758" y="383.86206896551727" type="line" smooth="yes"/>
      <point x="592.7931034482758" y="465.37931034482756"/>
      <point x="631.448275862069" y="499.37931034482756"/>
      <point x="685.7241379310345" y="499.37931034482756" type="curve" smooth="yes"/>
      <point x="751.0" y="499.37931034482756"/>
      <point x="828.7931034482758" y="418.13793103448273"/>
      <point x="828.7931034482758" y="238.27586206896552" type="curve" smooth="yes"/>
      <point x="828.7931034482758" y="128.0344827586207"/>
      <point x="812.9655172413793" y="58.3448275862069"/>
      <point x="725.0689655172414" y="58.3448275862069" type="curve" smooth="yes"/>
    </contour>
  </outline>
</glyph>
<glyph name="ya-tamil" format="2">
  <advance width="1031.8620689655172"/>
  <unicode hex="0BAF"/>
  <note>
uni0BAF
</note>
  <anchor x="573.2758620689656" y="0.0" name="bottom"/>
  <anchor x="928.5862068965517" y="559.5862068965517" name="imatra"/>
  <anchor x="573.2758620689656" y="0.0" name="nukta"/>
  <anchor x="554.6896551724138" y="559.5862068965517" name="top"/>
  <anchor x="513.9310344827586" y="559.5862068965517" name="vedic"/>
  <outline>
    <contour>
      <point x="259.41379310344826" y="-8.10344827586207" type="curve" smooth="yes"/>
      <point x="346.6896551724138" y="-8.10344827586207"/>
      <point x="387.3103448275862" y="42.172413793103445"/>
      <point x="400.0344827586207" y="66.03448275862068" type="curve"/>
      <point x="400.0344827586207" y="0.0" type="line"/>
      <point x="938.5862068965517" y="0.0" type="line"/>
      <point x="938.5862068965517" y="559.5862068965517" type="line"/>
      <point x="800.7586206896551" y="559.5862068965517" type="line"/>
      <point x="800.7586206896551" y="58.3448275862069" type="line"/>
      <point x="526.1379310344828" y="58.3448275862069" type="line"/>
      <point x="526.1379310344828" y="559.5862068965517" type="line"/>
      <point x="390.3103448275862" y="559.5862068965517" type="line"/>
      <point x="390.3103448275862" y="150.68965517241378" type="line" smooth="yes"/>
      <point x="390.3103448275862" y="97.51724137931035"/>
      <point x="356.9310344827586" y="59.724137931034484"/>
      <point x="305.37931034482756" y="59.724137931034484" type="curve" smooth="yes"/>
      <point x="261.1034482758621" y="59.724137931034484"/>
      <point x="226.9655172413793" y="90.0"/>
      <point x="226.9655172413793" y="152.86206896551724" type="curve" smooth="yes"/>
      <point x="226.9655172413793" y="559.5862068965517" type="line"/>
      <point x="89.89655172413794" y="559.5862068965517" type="line"/>
      <point x="89.89655172413794" y="166.75862068965517" type="line" smooth="yes"/>
      <point x="89.89655172413794" y="56.96551724137931"/>
      <point x="153.48275862068965" y="-8.10344827586207"/>
    </contour>
  </outline>
</glyph>
<glyph name="ra-tamil" format="2">
  <advance width="678.4827586206897"/>
  <unicode hex="0BB0"/>
  <note>
uni0BB0
</note>
  <anchor x="338.9310344827586" y="0.0" name="bottom"/>
  <anchor x="567.7931034482758" y="559.5862068965517" name="imatra"/>
  <anchor x="338.9310344827586" y="-217.0" name="nukta"/>
  <anchor x="357.8965517241379" y="559.5862068965517" name="top"/>
  <anchor x="376.6896551724138" y="559.5862068965517" name="vedic"/>
  <outline>
    <contour>
      <point x="179.82758620689654" y="-264.82758620689657" type="line"/>
      <point x="496.51724137931035" y="28.275862068965516" type="line"/>
      <point x="496.51724137931035" y="501.2413793103448" type="line"/>
      <point x="660.7241379310345" y="501.2413793103448" type="line"/>
      <point x="660.7241379310345" y="559.5862068965517" type="line"/>
      <point x="93.03448275862068" y="559.5862068965517" type="line"/>
      <point x="93.03448275862068" y="0.0" type="line"/>
      <point x="159.6206896551724" y="0.0" type="line"/>
      <point x="159.6206896551724" y="501.2413793103448" type="line"/>
      <point x="357.2068965517241" y="501.2413793103448" type="line"/>
      <point x="357.2068965517241" y="-11.931034482758621" type="line"/>
      <point x="137.20689655172413" y="-217.0" type="line"/>
    </contour>
  </outline>
</glyph>
<glyph name="rra-tamil" format="2">
  <advance width="920.8620689655172"/>
  <unicode hex="0BB1"/>
  <note>
uni0BB1
</note>
  <anchor x="462.3448275862069" y="0.0" name="bottom"/>
  <anchor x="461.48275862068965" y="-203.9655172413793" name="nukta"/>
  <anchor x="447.3103448275862" y="559.5862068965517" name="top"/>
  <anchor x="480.82758620689657" y="559.5862068965517" name="vedic"/>
  <outline>
    <contour>
      <point x="204.9655172413793" y="-260.7931034482759" type="curve"/>
      <point x="204.9655172413793" y="-182.24137931034483"/>
      <point x="228.0689655172414" y="-132.68965517241378"/>
      <point x="335.3448275862069" y="-132.68965517241378" type="curve" smooth="yes"/>
      <point x="439.8965517241379" y="-132.68965517241378" type="line" smooth="yes"/>
      <point x="705.4827586206897" y="-132.68965517241378"/>
      <point x="872.7586206896551" y="-14.96551724137931"/>
      <point x="872.7586206896551" y="243.3448275862069" type="curve" smooth="yes"/>
      <point x="872.7586206896551" y="438.0"/>
      <point x="780.2068965517242" y="564.5862068965517"/>
      <point x="609.0" y="564.5862068965517" type="curve" smooth="yes"/>
      <point x="499.62068965517244" y="564.5862068965517"/>
      <point x="443.51724137931035" y="505.7586206896552"/>
      <point x="422.0344827586207" y="456.1034482758621" type="curve"/>
      <point x="405.3103448275862" y="506.2068965517241"/>
      <point x="359.48275862068965" y="563.5862068965517"/>
      <point x="267.7586206896552" y="563.5862068965517" type="curve" smooth="yes"/>
      <point x="175.06896551724137" y="563.5862068965517"/>
      <point x="108.06896551724138" y="506.48275862068965"/>
      <point x="108.06896551724138" y="392.44827586206895" type="curve" smooth="yes"/>
      <point x="108.06896551724138" y="0.0" type="line"/>
      <point x="174.6551724137931" y="0.0" type="line"/>
      <point x="174.6551724137931" y="386.86206896551727" type="line" smooth="yes"/>
      <point x="174.6551724137931" y="465.2758620689655"/>
      <point x="205.58620689655172" y="502.13793103448273"/>
      <point x="263.8965517241379" y="502.13793103448273" type="curve" smooth="yes"/>
      <point x="321.7931034482759" y="502.13793103448273"/>
      <point x="351.17241379310343" y="458.0"/>
      <point x="351.17241379310343" y="381.3103448275862" type="curve" smooth="yes"/>
      <point x="351.17241379310343" y="0.0" type="line"/>
      <point x="488.37931034482756" y="0.0" type="line"/>
      <point x="488.37931034482756" y="373.48275862068965" type="line" smooth="yes"/>
      <point x="488.37931034482756" y="458.2758620689655"/>
      <point x="533.0689655172414" y="503.13793103448273"/>
      <point x="596.8275862068965" y="503.13793103448273" type="curve" smooth="yes"/>
      <point x="669.8965517241379" y="503.13793103448273"/>
      <point x="732.551724137931" y="439.44827586206895"/>
      <point x="732.551724137931" y="255.17241379310346" type="curve" smooth="yes"/>
      <point x="732.551724137931" y="20.896551724137932"/>
      <point x="617.4827586206897" y="-79.3103448275862"/>
      <point x="437.48275862068965" y="-79.3103448275862" type="curve" smooth="yes"/>
      <point x="282.1034482758621" y="-79.3103448275862" type="line" smooth="yes"/>
      <point x="181.68965517241378" y="-79.3103448275862"/>
      <point x="89.89655172413794" y="-101.03448275862068"/>
      <point x="89.89655172413794" y="-182.72413793103448" type="curve" smooth="yes"/>
      <point x="89.89655172413794" y="-238.55172413793105"/>
      <point x="137.44827586206895" y="-260.7931034482759"/>
    </contour>
  </outline>
</glyph>
<glyph name="la-tamil" format="2">
  <advance width="1119.7931034482758"/>
  <unicode hex="0BB2"/>
  <note>
uni0BB2
</note>
  <anchor x="559.8965517241379" y="0.0" name="bottom"/>
  <anchor x="559.8965517241379" y="0.0" name="nukta"/>
  <anchor x="597.1724137931035" y="559.5862068965517" name="top"/>
  <anchor x="556.8965517241379" y="559.5862068965517" name="vedic"/>
  <outline>
    <contour>
      <point x="290.17241379310343" y="-4.620689655172414" type="curve" smooth="yes"/>
      <point x="409.3448275862069" y="-4.620689655172414"/>
      <point x="484.44827586206895" y="64.96551724137932"/>
      <point x="484.44827586206895" y="156.20689655172413" type="curve" smooth="yes"/>
      <point x="484.44827586206895" y="245.10344827586206"/>
      <point x="423.9655172413793" y="315.7931034482759"/>
      <point x="317.55172413793105" y="315.7931034482759" type="curve" smooth="yes"/>
      <point x="210.6206896551724" y="315.7931034482759"/>
      <point x="134.82758620689654" y="243.89655172413794"/>
      <point x="124.10344827586206" y="112.82758620689656" type="curve"/>
      <point x="162.17241379310346" y="90.79310344827586" type="line"/>
      <point x="166.93103448275863" y="190.58620689655172"/>
      <point x="215.31034482758622" y="240.9655172413793"/>
      <point x="277.44827586206895" y="240.9655172413793" type="curve" smooth="yes"/>
      <point x="340.48275862068965" y="240.9655172413793"/>
      <point x="368.86206896551727" y="197.20689655172413"/>
      <point x="368.86206896551727" y="152.20689655172413" type="curve" smooth="yes"/>
      <point x="368.86206896551727" y="102.55172413793103"/>
      <point x="332.9655172413793" y="56.44827586206897"/>
      <point x="263.2413793103448" y="56.44827586206897" type="curve" smooth="yes"/>
      <point x="175.72413793103448" y="56.44827586206897"/>
      <point x="117.0" y="138.17241379310346"/>
      <point x="117.0" y="252.72413793103448" type="curve" smooth="yes"/>
      <point x="117.0" y="401.7586206896552"/>
      <point x="220.6206896551724" y="506.2413793103448"/>
      <point x="382.0689655172414" y="506.2413793103448" type="curve" smooth="yes"/>
      <point x="518.8620689655172" y="506.2413793103448"/>
      <point x="599.1034482758621" y="428.7586206896552"/>
      <point x="599.1034482758621" y="292.6896551724138" type="curve" smooth="yes"/>
      <point x="599.1034482758621" y="184.17241379310346" type="line" smooth="yes"/>
      <point x="599.1034482758621" y="66.6896551724138"/>
      <point x="683.3448275862069" y="-3.103448275862069"/>
      <point x="810.5172413793103" y="-3.103448275862069" type="curve" smooth="yes"/>
      <point x="962.8275862068965" y="-3.103448275862069"/>
      <point x="1059.2758620689656" y="128.51724137931035"/>
      <point x="1059.2758620689656" y="293.2758620689655" type="curve" smooth="yes"/>
      <point x="1059.2758620689656" y="386.7931034482759"/>
      <point x="1031.655172413793" y="475.7586206896552"/>
      <point x="953.1034482758621" y="563.9655172413793" type="curve"/>
      <point x="908.0344827586207" y="527.5862068965517" type="line"/>
      <point x="976.3103448275862" y="451.41379310344826"/>
      <point x="999.6896551724138" y="378.6896551724138"/>
      <point x="999.6896551724138" y="289.62068965517244" type="curve" smooth="yes"/>
      <point x="999.6896551724138" y="167.3448275862069"/>
      <point x="926.4827586206897" y="57.13793103448276"/>
      <point x="835.1724137931035" y="57.13793103448276" type="curve" smooth="yes"/>
      <point x="769.4137931034483" y="57.13793103448276"/>
      <point x="735.6896551724138" y="95.86206896551724"/>
      <point x="735.6896551724138" y="176.9655172413793" type="curve" smooth="yes"/>
      <point x="735.6896551724138" y="298.13793103448273" type="line" smooth="yes"/>
      <point x="735.6896551724138" y="465.1034482758621"/>
      <point x="584.6206896551724" y="564.5862068965517"/>
      <point x="397.8965517241379" y="564.5862068965517" type="curve" smooth="yes"/>
      <point x="187.31034482758622" y="564.5862068965517"/>
      <point x="55.89655172413793" y="434.41379310344826"/>
      <point x="55.89655172413793" y="255.10344827586206" type="curve" smooth="yes"/>
      <point x="55.89655172413793" y="102.44827586206897"/>
      <point x="153.3448275862069" y="-4.620689655172414"/>
    </contour>
  </outline>
</glyph>
<glyph name="va-tamil" format="2">
  <advance width="1194.9655172413793"/>
  <unicode hex="0BB5"/>
  <note>
uni0BB5
</note>
  <anchor x="629.5172413793103" y="0.0" name="bottom"/>
  <anchor x="986.4137931034483" y="559.5862068965517" name="imatra"/>
  <anchor x="629.5172413793103" y="0.0" name="nukta"/>
  <anchor x="613.6896551724138" y="559.5862068965517" name="top"/>
  <anchor x="578.4827586206897" y="559.5862068965517" name="vedic"/>
  <outline>
    <contour>
      <point x="290.17241379310343" y="-4.620689655172414" type="curve" smooth="yes"/>
      <point x="409.3448275862069" y="-4.620689655172414"/>
      <point x="484.44827586206895" y="64.96551724137932"/>
      <point x="484.44827586206895" y="156.20689655172413" type="curve" smooth="yes"/>
      <point x="484.44827586206895" y="245.10344827586206"/>
      <point x="423.9655172413793" y="315.7931034482759"/>
      <point x="317.55172413793105" y="315.7931034482759" type="curve" smooth="yes"/>
      <point x="210.6206896551724" y="315.7931034482759"/>
      <point x="134.82758620689654" y="243.89655172413794"/>
      <point x="124.10344827586206" y="112.82758620689656" type="curve"/>
      <point x="162.17241379310346" y="90.79310344827586" type="line"/>
      <point x="166.93103448275863" y="190.58620689655172"/>
      <point x="215.31034482758622" y="240.9655172413793"/>
      <point x="277.44827586206895" y="240.9655172413793" type="curve" smooth="yes"/>
      <point x="340.48275862068965" y="240.9655172413793"/>
      <point x="368.86206896551727" y="197.20689655172413"/>
      <point x="368.86206896551727" y="152.20689655172413" type="curve" smooth="yes"/>
      <point x="368.86206896551727" y="102.55172413793103"/>
      <point x="332.9655172413793" y="56.44827586206897"/>
      <point x="263.2413793103448" y="56.44827586206897" type="curve" smooth="yes"/>
      <point x="175.72413793103448" y="56.44827586206897"/>
      <point x="117.0" y="138.17241379310346"/>
      <point x="117.0" y="252.72413793103448" type="curve" smooth="yes"/>
      <point x="117.0" y="394.3103448275862"/>
      <point x="215.86206896551724" y="506.2413793103448"/>
      <point x="405.2413793103448" y="506.2413793103448" type="curve" smooth="yes"/>
      <point x="556.1034482758621" y="506.2413793103448"/>
      <point x="658.6896551724138" y="405.1034482758621"/>
      <point x="658.6896551724138" y="260.7241379310345" type="curve" smooth="yes"/>
      <point x="658.6896551724138" y="168.6206896551724"/>
      <point x="624.6551724137931" y="90.44827586206897"/>
      <point x="570.2413793103449" y="43.62068965517241" type="curve"/>
      <point x="589.4827586206897" y="0.0" type="line"/>
      <point x="1101.6896551724137" y="0.0" type="line"/>
      <point x="1101.6896551724137" y="559.5862068965517" type="line"/>
      <point x="963.8620689655172" y="559.5862068965517" type="line"/>
      <point x="963.8620689655172" y="58.3448275862069" type="line"/>
      <point x="688.4137931034483" y="58.3448275862069" type="line"/>
      <point x="750.0344827586207" y="114.37931034482759"/>
      <point x="788.8275862068965" y="189.44827586206895"/>
      <point x="788.8275862068965" y="273.41379310344826" type="curve" smooth="yes"/>
      <point x="788.8275862068965" y="439.13793103448273"/>
      <point x="635.6896551724138" y="564.5862068965517"/>
      <point x="420.7241379310345" y="564.5862068965517" type="curve" smooth="yes"/>
      <point x="183.06896551724137" y="564.5862068965517"/>
      <point x="55.89655172413793" y="426.9655172413793"/>
      <point x="55.89655172413793" y="255.10344827586206" type="curve" smooth="yes"/>
      <point x="55.89655172413793" y="102.44827586206897"/>
      <point x="153.3448275862069" y="-4.620689655172414"/>
    </contour>
  </outline>
</glyph>
<glyph name="sha-tamil" format="2">
  <advance width="1188.2758620689656"/>
  <unicode hex="0BB6"/>
  <note>
uni0BB6
</note>
  <anchor x="603.3103448275862" y="0.0" name="bottom"/>
  <anchor x="923.5172413793103" y="559.5862068965517" name="imatra"/>
  <anchor x="603.3103448275862" y="0.0" name="nukta"/>
  <anchor x="604.448275862069" y="559.5862068965517" name="top"/>
  <anchor x="608.448275862069" y="559.5862068965517" name="vedic"/>
  <outline>
    <contour>
      <point x="318.51724137931035" y="-5.0" type="curve" smooth="yes"/>
      <point x="442.3103448275862" y="-5.0"/>
      <point x="528.448275862069" y="49.48275862068966"/>
      <point x="528.448275862069" y="210.0" type="curve" smooth="yes"/>
      <point x="528.448275862069" y="501.2413793103448" type="line"/>
      <point x="678.1724137931035" y="501.2413793103448" type="line"/>
      <point x="678.1724137931035" y="175.41379310344828" type="line" smooth="yes"/>
      <point x="678.1724137931035" y="59.44827586206897"/>
      <point x="759.2758620689655" y="-5.0"/>
      <point x="874.6551724137931" y="-5.0" type="curve" smooth="yes"/>
      <point x="1004.7586206896551" y="-5.0"/>
      <point x="1127.3793103448277" y="118.27586206896552"/>
      <point x="1127.3793103448277" y="327.7241379310345" type="curve" smooth="yes"/>
      <point x="1127.3793103448277" y="478.9655172413793"/>
      <point x="1081.896551724138" y="559.5862068965517"/>
      <point x="961.0689655172414" y="559.5862068965517" type="curve" smooth="yes"/>
      <point x="465.1034482758621" y="559.5862068965517" type="line"/>
      <point x="465.1034482758621" y="210.0" type="line" smooth="yes"/>
      <point x="465.1034482758621" y="78.48275862068965"/>
      <point x="405.3448275862069" y="58.3448275862069"/>
      <point x="339.6896551724138" y="58.3448275862069" type="curve" smooth="yes"/>
      <point x="275.7931034482759" y="58.3448275862069"/>
      <point x="228.3448275862069" y="92.58620689655173"/>
      <point x="228.3448275862069" y="186.68965517241378" type="curve" smooth="yes"/>
      <point x="228.3448275862069" y="559.5862068965517" type="line"/>
      <point x="89.89655172413794" y="559.5862068965517" type="line"/>
      <point x="89.89655172413794" y="195.0" type="line" smooth="yes"/>
      <point x="89.89655172413794" y="62.41379310344828"/>
      <point x="190.6206896551724" y="-5.0"/>
    </contour>
    <contour>
      <point x="899.3103448275862" y="58.3448275862069" type="curve" smooth="yes"/>
      <point x="848.3103448275862" y="58.3448275862069"/>
      <point x="814.7586206896551" y="87.34482758620689"/>
      <point x="814.7586206896551" y="155.79310344827587" type="curve" smooth="yes"/>
      <point x="814.7586206896551" y="501.2413793103448" type="line"/>
      <point x="954.551724137931" y="501.2413793103448" type="line" smooth="yes"/>
      <point x="1041.8275862068965" y="501.2413793103448"/>
      <point x="1062.655172413793" y="435.58620689655174"/>
      <point x="1062.655172413793" y="326.62068965517244" type="curve" smooth="yes"/>
      <point x="1062.655172413793" y="173.79310344827587"/>
      <point x="982.7586206896551" y="58.3448275862069"/>
    </contour>
  </outline>
</glyph>
<glyph name="sa-tamil" format="2">
  <advance width="1474.0"/>
  <unicode hex="0BB8"/>
  <note>
uni0BB8
</note>
  <anchor x="737.8275862068965" y="0.0" name="bottom"/>
  <anchor x="737.8275862068965" y="0.0" name="nukta"/>
  <anchor x="725.0344827586207" y="559.5862068965517" name="top"/>
  <anchor x="736.6896551724138" y="559.5862068965517" name="vedic"/>
  <outline>
    <contour>
      <point x="631.0344827586207" y="0.0" type="line"/>
      <point x="767.0" y="0.0" type="line"/>
      <point x="767.0" y="404.62068965517244" type="line" smooth="yes"/>
      <point x="767.0" y="469.82758620689657"/>
      <point x="798.6206896551724" y="506.48275862068965"/>
      <point x="862.3793103448276" y="506.48275862068965" type="curve" smooth="yes"/>
      <point x="920.8620689655172" y="506.48275862068965"/>
      <point x="948.2758620689655" y="471.62068965517244"/>
      <point x="948.2758620689655" y="417.62068965517244" type="curve" smooth="yes"/>
      <point x="948.2758620689655" y="186.06896551724137" type="line" smooth="yes"/>
      <point x="948.2758620689655" y="68.58620689655173"/>
      <point x="1032.5172413793102" y="-3.103448275862069"/>
      <point x="1159.6896551724137" y="-3.103448275862069" type="curve" smooth="yes"/>
      <point x="1316.1724137931035" y="-3.103448275862069"/>
      <point x="1413.4827586206898" y="127.89655172413794"/>
      <point x="1413.4827586206898" y="293.2758620689655" type="curve" smooth="yes"/>
      <point x="1413.4827586206898" y="386.7931034482759"/>
      <point x="1385.2068965517242" y="476.13793103448273"/>
      <point x="1305.896551724138" y="563.9655172413793" type="curve"/>
      <point x="1257.6896551724137" y="525.8275862068965" type="line"/>
      <point x="1327.103448275862" y="448.13793103448273"/>
      <point x="1348.8620689655172" y="378.0689655172414"/>
      <point x="1348.8620689655172" y="289.0" type="curve" smooth="yes"/>
      <point x="1348.8620689655172" y="166.10344827586206"/>
      <point x="1275.655172413793" y="57.13793103448276"/>
      <point x="1184.5862068965516" y="57.13793103448276" type="curve" smooth="yes"/>
      <point x="1125.4137931034484" y="57.13793103448276"/>
      <point x="1085.4827586206898" y="95.86206896551724"/>
      <point x="1085.4827586206898" y="178.86206896551724" type="curve" smooth="yes"/>
      <point x="1085.4827586206898" y="389.82758620689657" type="line" smooth="yes"/>
      <point x="1085.4827586206898" y="496.13793103448273"/>
      <point x="1001.9310344827586" y="564.5862068965517"/>
      <point x="882.5862068965517" y="564.5862068965517" type="curve" smooth="yes"/>
      <point x="767.1379310344828" y="564.5862068965517"/>
      <point x="694.2758620689655" y="505.7586206896552"/>
      <point x="694.2758620689655" y="408.13793103448273" type="curve" smooth="yes"/>
      <point x="694.2758620689655" y="348.0" type="line"/>
      <point x="631.0344827586207" y="348.0" type="line"/>
    </contour>
    <contour>
      <point x="296.6551724137931" y="-4.620689655172414" type="curve" smooth="yes"/>
      <point x="416.2068965517241" y="-4.620689655172414"/>
      <point x="488.82758620689657" y="64.96551724137932"/>
      <point x="488.82758620689657" y="156.20689655172413" type="curve" smooth="yes"/>
      <point x="488.82758620689657" y="245.10344827586206"/>
      <point x="430.2068965517241" y="315.7931034482759"/>
      <point x="323.7931034482759" y="315.7931034482759" type="curve" smooth="yes"/>
      <point x="202.20689655172413" y="315.7931034482759"/>
      <point x="136.3448275862069" y="229.6206896551724"/>
      <point x="129.3448275862069" y="112.20689655172414" type="curve"/>
      <point x="166.79310344827587" y="90.79310344827586" type="line"/>
      <point x="171.55172413793105" y="181.89655172413794"/>
      <point x="211.24137931034483" y="240.9655172413793"/>
      <point x="283.9310344827586" y="240.9655172413793" type="curve" smooth="yes"/>
      <point x="346.9655172413793" y="240.9655172413793"/>
      <point x="373.48275862068965" y="197.20689655172413"/>
      <point x="373.48275862068965" y="152.20689655172413" type="curve" smooth="yes"/>
      <point x="373.48275862068965" y="102.55172413793103"/>
      <point x="338.82758620689657" y="56.44827586206897"/>
      <point x="269.1034482758621" y="56.44827586206897" type="curve" smooth="yes"/>
      <point x="180.44827586206895" y="56.44827586206897"/>
      <point x="122.0" y="141.0689655172414"/>
      <point x="122.0" y="260.17241379310343" type="curve" smooth="yes"/>
      <point x="122.0" y="408.37931034482756"/>
      <point x="232.6551724137931" y="503.7586206896552"/>
      <point x="385.7241379310345" y="503.7586206896552" type="curve" smooth="yes"/>
      <point x="522.7931034482758" y="503.7586206896552"/>
      <point x="631.0344827586207" y="441.58620689655174"/>
      <point x="631.0344827586207" y="284.8965517241379" type="curve"/>
      <point x="705.3103448275862" y="286.7931034482759" type="line"/>
      <point x="703.4137931034483" y="468.13793103448273"/>
      <point x="572.7931034482758" y="565.2068965517242"/>
      <point x="391.9310344827586" y="565.2068965517242" type="curve" smooth="yes"/>
      <point x="199.89655172413794" y="565.2068965517242"/>
      <point x="60.51724137931034" y="447.48275862068965"/>
      <point x="60.51724137931034" y="261.17241379310343" type="curve" smooth="yes"/>
      <point x="60.51724137931034" y="104.72413793103448"/>
      <point x="157.68965517241378" y="-4.620689655172414"/>
    </contour>
  </outline>
</glyph>
<glyph name="ha-tamil" format="2">
  <advance width="1723.8275862068965"/>
  <unicode hex="0BB9"/>
  <note>
uni0BB9
</note>
  <anchor x="907.7241379310345" y="0.0" name="bottom"/>
  <anchor x="907.7241379310345" y="-150.13793103448276" name="nukta"/>
  <anchor x="888.3448275862069" y="559.5862068965517" name="top"/>
  <anchor x="865.6206896551724" y="559.5862068965517" name="vedic"/>
  <outline>
    <contour>
      <point x="239.6206896551724" y="-276.62068965517244" type="curve"/>
      <point x="239.6206896551724" y="-198.44827586206895"/>
      <point x="262.7241379310345" y="-150.13793103448276"/>
      <point x="370.0" y="-150.13793103448276" type="curve" smooth="yes"/>
      <point x="1141.1724137931035" y="-150.13793103448276" type="line" smooth="yes"/>
      <point x="1480.8620689655172" y="-150.13793103448276"/>
      <point x="1675.7241379310344" y="-56.206896551724135"/>
      <point x="1675.7241379310344" y="235.9655172413793" type="curve" smooth="yes"/>
      <point x="1675.7241379310344" y="439.2758620689655"/>
      <point x="1582.4827586206898" y="563.3448275862069"/>
      <point x="1416.448275862069" y="563.3448275862069" type="curve" smooth="yes"/>
      <point x="1303.7241379310344" y="563.3448275862069"/>
      <point x="1238.4827586206898" y="505.13793103448273"/>
      <point x="1217.6206896551723" y="454.86206896551727" type="curve"/>
      <point x="1202.1379310344828" y="506.86206896551727"/>
      <point x="1156.9310344827586" y="562.3448275862069"/>
      <point x="1069.9655172413793" y="562.3448275862069" type="curve" smooth="yes"/>
      <point x="977.6551724137931" y="562.3448275862069"/>
      <point x="909.5172413793103" y="505.2413793103448"/>
      <point x="909.5172413793103" y="391.82758620689657" type="curve" smooth="yes"/>
      <point x="909.5172413793103" y="58.3448275862069" type="line"/>
      <point x="688.4137931034483" y="58.3448275862069" type="line"/>
      <point x="750.0344827586207" y="114.37931034482759"/>
      <point x="788.8275862068965" y="189.44827586206895"/>
      <point x="788.8275862068965" y="273.41379310344826" type="curve" smooth="yes"/>
      <point x="788.8275862068965" y="439.13793103448273"/>
      <point x="635.6896551724138" y="564.5862068965517"/>
      <point x="420.7241379310345" y="564.5862068965517" type="curve" smooth="yes"/>
      <point x="183.06896551724137" y="564.5862068965517"/>
      <point x="55.89655172413793" y="426.9655172413793"/>
      <point x="55.89655172413793" y="255.10344827586206" type="curve" smooth="yes"/>
      <point x="55.89655172413793" y="102.44827586206897"/>
      <point x="153.3448275862069" y="-4.620689655172414"/>
      <point x="290.17241379310343" y="-4.620689655172414" type="curve" smooth="yes"/>
      <point x="409.3448275862069" y="-4.620689655172414"/>
      <point x="484.44827586206895" y="64.96551724137932"/>
      <point x="484.44827586206895" y="156.20689655172413" type="curve" smooth="yes"/>
      <point x="484.44827586206895" y="245.10344827586206"/>
      <point x="423.9655172413793" y="315.7931034482759"/>
      <point x="317.55172413793105" y="315.7931034482759" type="curve" smooth="yes"/>
      <point x="210.6206896551724" y="315.7931034482759"/>
      <point x="134.82758620689654" y="243.89655172413794"/>
      <point x="124.10344827586206" y="112.82758620689656" type="curve"/>
      <point x="162.17241379310346" y="90.79310344827586" type="line"/>
      <point x="166.93103448275863" y="190.58620689655172"/>
      <point x="215.31034482758622" y="240.9655172413793"/>
      <point x="277.44827586206895" y="240.9655172413793" type="curve" smooth="yes"/>
      <point x="340.48275862068965" y="240.9655172413793"/>
      <point x="368.86206896551727" y="197.20689655172413"/>
      <point x="368.86206896551727" y="152.20689655172413" type="curve" smooth="yes"/>
      <point x="368.86206896551727" y="102.55172413793103"/>
      <point x="332.9655172413793" y="56.44827586206897"/>
      <point x="263.2413793103448" y="56.44827586206897" type="curve" smooth="yes"/>
      <point x="175.72413793103448" y="56.44827586206897"/>
      <point x="117.0" y="138.17241379310346"/>
      <point x="117.0" y="252.72413793103448" type="curve" smooth="yes"/>
      <point x="117.0" y="394.3103448275862"/>
      <point x="215.86206896551724" y="506.2413793103448"/>
      <point x="405.2413793103448" y="506.2413793103448" type="curve" smooth="yes"/>
      <point x="556.1034482758621" y="506.2413793103448"/>
      <point x="658.6896551724138" y="405.1034482758621"/>
      <point x="658.6896551724138" y="260.7241379310345" type="curve" smooth="yes"/>
      <point x="658.6896551724138" y="168.6206896551724"/>
      <point x="624.6551724137931" y="90.44827586206897"/>
      <point x="570.2413793103449" y="43.62068965517241" type="curve"/>
      <point x="589.4827586206897" y="0.0" type="line"/>
      <point x="976.1034482758621" y="0.0" type="line"/>
      <point x="976.1034482758621" y="389.3448275862069" type="line" smooth="yes"/>
      <point x="976.1034482758621" y="467.13793103448273"/>
      <point x="1006.8965517241379" y="504.0"/>
      <point x="1067.103448275862" y="504.0" type="curve" smooth="yes"/>
      <point x="1124.3793103448277" y="504.0"/>
      <point x="1154.896551724138" y="459.86206896551727"/>
      <point x="1154.896551724138" y="383.17241379310343" type="curve" smooth="yes"/>
      <point x="1154.896551724138" y="-0.6206896551724138" type="line"/>
      <point x="1292.7241379310344" y="-0.6206896551724138" type="line"/>
      <point x="1292.7241379310344" y="375.9655172413793" type="line" smooth="yes"/>
      <point x="1292.7241379310344" y="460.13793103448273"/>
      <point x="1337.1724137931035" y="505.0"/>
      <point x="1404.2758620689656" y="505.0" type="curve" smooth="yes"/>
      <point x="1474.0689655172414" y="505.0"/>
      <point x="1536.2758620689656" y="438.0689655172414"/>
      <point x="1536.2758620689656" y="253.17241379310346" type="curve" smooth="yes"/>
      <point x="1536.2758620689656" y="-18.517241379310345"/>
      <point x="1421.6206896551723" y="-93.65517241379311"/>
      <point x="1128.2758620689656" y="-93.65517241379311" type="curve" smooth="yes"/>
      <point x="316.7586206896552" y="-93.65517241379311" type="line" smooth="yes"/>
      <point x="216.3448275862069" y="-93.65517241379311"/>
      <point x="124.55172413793103" y="-114.13793103448276"/>
      <point x="124.55172413793103" y="-194.82758620689654" type="curve" smooth="yes"/>
      <point x="124.55172413793103" y="-251.27586206896552"/>
      <point x="169.20689655172413" y="-276.62068965517244"/>
    </contour>
  </outline>
</glyph>
<glyph name="aaMatra-tamil" format="2">
  <advance width="682.2068965517242"/>
  <unicode hex="0BBE"/>
  <note>
uni0BBE
</note>
  <anchor x="369.8965517241379" y="0.0" name="bottom"/>
  <anchor x="368.8965517241379" y="0.0" name="nukta"/>
  <anchor x="362.8965517241379" y="559.5862068965517" name="top"/>
  <anchor x="362.8965517241379" y="559.5862068965517" name="vedic"/>
  <outline>
    <contour>
      <point x="93.03448275862068" y="0.0" type="line"/>
      <point x="159.6206896551724" y="0.0" type="line"/>
      <point x="159.6206896551724" y="501.2413793103448" type="line"/>
      <point x="364.6551724137931" y="501.2413793103448" type="line"/>
      <point x="364.6551724137931" y="0.0" type="line"/>
      <point x="500.2413793103448" y="0.0" type="line"/>
      <point x="500.2413793103448" y="501.2413793103448" type="line"/>
      <point x="664.448275862069" y="501.2413793103448" type="line"/>
      <point x="664.448275862069" y="559.5862068965517" type="line"/>
      <point x="93.03448275862068" y="559.5862068965517" type="line"/>
    </contour>
  </outline>
</glyph>
<glyph name="iMatra-tamil" format="2">
  <advance width="240.68965517241378"/>
  <unicode hex="0BBF"/>
  <note>
uni0BBF
</note>
  <anchor x="-138.55172413793105" y="855.1034482758621" name="top"/>
  <outline>
    <contour>
      <point x="80.44827586206897" y="0.0" type="line"/>
      <point x="147.0344827586207" y="0.0" type="line"/>
      <point x="147.0344827586207" y="563.7931034482758" type="line" smooth="yes"/>
      <point x="147.0344827586207" y="734.7586206896551"/>
      <point x="34.310344827586206" y="855.1034482758621"/>
      <point x="-138.55172413793105" y="855.1034482758621" type="curve" smooth="yes"/>
      <point x="-294.0689655172414" y="855.1034482758621"/>
      <point x="-378.7586206896552" y="766.2068965517242"/>
      <point x="-378.7586206896552" y="663.7931034482758" type="curve" smooth="yes"/>
      <point x="-378.7586206896552" y="569.8275862068965"/>
      <point x="-312.0" y="510.55172413793105"/>
      <point x="-216.3448275862069" y="510.55172413793105" type="curve" smooth="yes"/>
      <point x="-213.20689655172413" y="510.55172413793105" type="line"/>
      <point x="-213.20689655172413" y="559.5862068965517" type="line"/>
      <point x="-216.3448275862069" y="559.5862068965517" type="line" smooth="yes"/>
      <point x="-267.58620689655174" y="559.5862068965517"/>
      <point x="-306.3103448275862" y="590.7241379310345"/>
      <point x="-306.3103448275862" y="640.8620689655172" type="curve" smooth="yes"/>
      <point x="-306.3103448275862" y="705.8965517241379"/>
      <point x="-244.0689655172414" y="742.8965517241379"/>
      <point x="-148.0344827586207" y="742.8965517241379" type="curve" smooth="yes"/>
      <point x="-8.862068965517242" y="742.8965517241379"/>
      <point x="80.44827586206897" y="666.2068965517242"/>
      <point x="80.44827586206897" y="527.5862068965517" type="curve" smooth="yes"/>
    </contour>
  </outline>
</glyph>
<glyph name="iiMatra-tamil" format="2">
  <unicode hex="0BC0"/>
  <note>
uni0BC0
</note>
  <anchor x="0.0" y="559.5862068965517" name="_imatra"/>
  <anchor x="20.06896551724138" y="895.6551724137931" name="top"/>
  <outline>
    <contour>
      <point x="-30.20689655172414" y="503.13793103448273" type="curve" smooth="yes"/>
      <point x="0.0" y="503.13793103448273" type="line"/>
      <point x="0.0" y="559.5862068965517" type="line"/>
      <point x="-30.20689655172414" y="559.5862068965517" type="line" smooth="yes"/>
      <point x="-105.93103448275862" y="559.5862068965517"/>
      <point x="-156.13793103448276" y="607.7241379310345"/>
      <point x="-156.13793103448276" y="685.8620689655172" type="curve" smooth="yes"/>
      <point x="-156.13793103448276" y="773.7241379310345"/>
      <point x="-93.3103448275862" y="837.9310344827586"/>
      <point x="12.344827586206897" y="837.9310344827586" type="curve" smooth="yes"/>
      <point x="81.13793103448276" y="837.9310344827586"/>
      <point x="128.41379310344828" y="801.9310344827586"/>
      <point x="128.41379310344828" y="741.7931034482758" type="curve" smooth="yes"/>
      <point x="128.41379310344828" y="703.7586206896551"/>
      <point x="99.75862068965517" y="672.1379310344828"/>
      <point x="56.62068965517241" y="672.1379310344828" type="curve" smooth="yes"/>
      <point x="-31.551724137931032" y="672.1379310344828"/>
      <point x="-50.44827586206897" y="771.5172413793103"/>
      <point x="-2.551724137931034" y="861.551724137931" type="curve"/>
      <point x="-53.0" y="865.551724137931" type="line"/>
      <point x="-129.48275862068965" y="741.4137931034483"/>
      <point x="-74.37931034482759" y="603.2413793103449"/>
      <point x="74.96551724137932" y="603.2413793103449" type="curve" smooth="yes"/>
      <point x="162.82758620689654" y="603.2413793103449"/>
      <point x="226.31034482758622" y="656.0"/>
      <point x="226.31034482758622" y="733.0689655172414" type="curve" smooth="yes"/>
      <point x="226.31034482758622" y="834.1379310344828"/>
      <point x="141.10344827586206" y="895.6551724137931"/>
      <point x="20.06896551724138" y="895.6551724137931" type="curve" smooth="yes"/>
      <point x="-119.65517241379311" y="895.6551724137931"/>
      <point x="-220.3448275862069" y="812.4137931034483"/>
      <point x="-220.3448275862069" y="689.3448275862069" type="curve" smooth="yes"/>
      <point x="-220.3448275862069" y="577.8620689655172"/>
      <point x="-139.41379310344828" y="503.13793103448273"/>
    </contour>
  </outline>
</glyph>
<glyph name="uuMatra-tamil" format="2">
  <advance width="946.2758620689655"/>
  <unicode hex="0BC2"/>
  <note>
uni0BC2
</note>
  <anchor x="501.86206896551727" y="781.2413793103449" name="top"/>
  <outline>
    <contour>
      <point x="425.7586206896552" y="6.206896551724138" type="curve" smooth="yes"/>
      <point x="705.9310344827586" y="6.206896551724138"/>
      <point x="891.6896551724138" y="165.89655172413794"/>
      <point x="891.6896551724138" y="401.6896551724138" type="curve" smooth="yes"/>
      <point x="891.6896551724138" y="606.1379310344828"/>
      <point x="749.7241379310345" y="781.2413793103449"/>
      <point x="501.86206896551727" y="781.2413793103449" type="curve" smooth="yes"/>
      <point x="284.7241379310345" y="781.2413793103449"/>
      <point x="184.24137931034483" y="646.7586206896551"/>
      <point x="184.24137931034483" y="529.8275862068965" type="curve" smooth="yes"/>
      <point x="184.24137931034483" y="419.13793103448273" type="line" smooth="yes"/>
      <point x="184.24137931034483" y="283.37931034482756"/>
      <point x="264.55172413793105" y="220.20689655172413"/>
      <point x="378.6896551724138" y="220.20689655172413" type="curve" smooth="yes"/>
      <point x="476.3448275862069" y="220.20689655172413"/>
      <point x="573.2068965517242" y="275.8965517241379"/>
      <point x="573.2068965517242" y="396.6551724137931" type="curve" smooth="yes"/>
      <point x="573.2068965517242" y="559.5862068965517" type="line"/>
      <point x="-284.86206896551727" y="559.5862068965517" type="line"/>
      <point x="-242.75862068965517" y="501.2413793103448" type="line"/>
      <point x="437.62068965517244" y="501.2413793103448" type="line"/>
      <point x="437.62068965517244" y="384.55172413793105" type="line" smooth="yes"/>
      <point x="437.62068965517244" y="318.58620689655174"/>
      <point x="393.37931034482756" y="286.62068965517244"/>
      <point x="344.17241379310343" y="286.62068965517244" type="curve" smooth="yes"/>
      <point x="282.1034482758621" y="286.62068965517244"/>
      <point x="248.3448275862069" y="326.6896551724138"/>
      <point x="248.3448275862069" y="409.17241379310343" type="curve" smooth="yes"/>
      <point x="248.3448275862069" y="529.8275862068965" type="line" smooth="yes"/>
      <point x="248.3448275862069" y="626.2758620689655"/>
      <point x="345.13793103448273" y="715.2068965517242"/>
      <point x="480.7586206896552" y="715.2068965517242" type="curve" smooth="yes"/>
      <point x="681.7241379310345" y="715.2068965517242"/>
      <point x="753.8620689655172" y="581.1724137931035"/>
      <point x="753.8620689655172" y="412.58620689655174" type="curve" smooth="yes"/>
      <point x="753.8620689655172" y="212.0344827586207"/>
      <point x="645.6896551724138" y="69.51724137931035"/>
      <point x="426.13793103448273" y="69.51724137931035" type="curve" smooth="yes"/>
      <point x="296.44827586206895" y="69.51724137931035"/>
      <point x="175.31034482758622" y="119.86206896551724"/>
      <point x="92.44827586206897" y="235.0" type="curve"/>
      <point x="47.86206896551724" y="199.6551724137931" type="line"/>
      <point x="137.3448275862069" y="75.93103448275862"/>
      <point x="276.37931034482756" y="6.206896551724138"/>
    </contour>
  </outline>
</glyph>
<glyph name="eMatra-tamil" format="2">
  <advance width="894.7586206896551"/>
  <unicode hex="0BC6"/>
  <note>
uni0BC6
</note>
  <outline>
    <contour>
      <point x="354.48275862068965" y="-4.620689655172414" type="curve" smooth="yes"/>
      <point x="473.6551724137931" y="-4.620689655172414"/>
      <point x="548.1379310344828" y="64.96551724137932"/>
      <point x="548.1379310344828" y="156.20689655172413" type="curve" smooth="yes"/>
      <point x="548.1379310344828" y="251.3448275862069"/>
      <point x="487.6551724137931" y="322.0344827586207"/>
      <point x="379.3448275862069" y="322.0344827586207" type="curve" smooth="yes"/>
      <point x="266.17241379310343" y="322.0344827586207"/>
      <point x="188.48275862068965" y="243.89655172413794"/>
      <point x="180.27586206896552" y="103.34482758620689" type="curve"/>
      <point x="217.72413793103448" y="81.3103448275862" type="line"/>
      <point x="220.58620689655172" y="190.58620689655172"/>
      <point x="270.86206896551727" y="247.20689655172413"/>
      <point x="339.86206896551727" y="247.20689655172413" type="curve" smooth="yes"/>
      <point x="404.7931034482759" y="247.20689655172413"/>
      <point x="432.7931034482759" y="203.44827586206895"/>
      <point x="432.7931034482759" y="152.20689655172413" type="curve" smooth="yes"/>
      <point x="432.7931034482759" y="102.55172413793103"/>
      <point x="396.8965517241379" y="56.44827586206897"/>
      <point x="327.17241379310343" y="56.44827586206897" type="curve" smooth="yes"/>
      <point x="182.0344827586207" y="56.44827586206897"/>
      <point x="122.0" y="227.82758620689654"/>
      <point x="122.0" y="380.3448275862069" type="curve" smooth="yes"/>
      <point x="122.0" y="595.2758620689655"/>
      <point x="252.89655172413794" y="740.2413793103449"/>
      <point x="455.2068965517241" y="740.2413793103449" type="curve" smooth="yes"/>
      <point x="651.1724137931035" y="740.2413793103449"/>
      <point x="734.5172413793103" y="641.3103448275862"/>
      <point x="734.5172413793103" y="415.58620689655174" type="curve" smooth="yes"/>
      <point x="734.5172413793103" y="0.0" type="line"/>
      <point x="801.1034482758621" y="0.0" type="line"/>
      <point x="801.1034482758621" y="452.2068965517241" type="line" smooth="yes"/>
      <point x="801.1034482758621" y="711.6551724137931"/>
      <point x="693.8620689655172" y="850.1034482758621"/>
      <point x="458.58620689655174" y="850.1034482758621" type="curve" smooth="yes"/>
      <point x="213.24137931034483" y="850.1034482758621"/>
      <point x="60.51724137931034" y="652.5172413793103"/>
      <point x="60.51724137931034" y="392.3448275862069" type="curve" smooth="yes"/>
      <point x="60.51724137931034" y="195.68965517241378"/>
      <point x="158.20689655172413" y="-4.620689655172414"/>
    </contour>
  </outline>
</glyph>
<glyph name="eeMatra-tamil" format="2">
  <advance width="680.3793103448276"/>
  <unicode hex="0BC7"/>
  <note>
uni0BC7
</note>
  <outline>
    <contour>
      <point x="430.48275862068965" y="-5.0" type="curve" smooth="yes"/>
      <point x="543.2068965517242" y="-5.0"/>
      <point x="629.4827586206897" y="55.89655172413793"/>
      <point x="629.4827586206897" y="156.20689655172413" type="curve" smooth="yes"/>
      <point x="629.4827586206897" y="253.6206896551724"/>
      <point x="568.2413793103449" y="322.7931034482759"/>
      <point x="461.3103448275862" y="322.7931034482759" type="curve" smooth="yes"/>
      <point x="349.41379310344826" y="322.7931034482759"/>
      <point x="263.62068965517244" y="244.06896551724137"/>
      <point x="260.86206896551727" y="87.3103448275862" type="curve"/>
      <point x="298.6896551724138" y="66.79310344827586" type="line"/>
      <point x="297.86206896551727" y="193.17241379310346"/>
      <point x="354.48275862068965" y="247.9655172413793"/>
      <point x="422.7241379310345" y="247.9655172413793" type="curve" smooth="yes"/>
      <point x="485.7586206896552" y="247.9655172413793"/>
      <point x="514.1379310344828" y="204.20689655172413"/>
      <point x="514.1379310344828" y="152.20689655172413" type="curve" smooth="yes"/>
      <point x="514.1379310344828" y="94.72413793103448"/>
      <point x="469.55172413793105" y="56.44827586206897"/>
      <point x="404.7931034482759" y="56.44827586206897" type="curve" smooth="yes"/>
      <point x="282.86206896551727" y="56.44827586206897"/>
      <point x="122.0" y="178.0344827586207"/>
      <point x="122.0" y="422.55172413793105" type="curve" smooth="yes"/>
      <point x="122.0" y="666.8275862068965"/>
      <point x="282.86206896551727" y="788.0344827586207"/>
      <point x="404.7931034482759" y="788.0344827586207" type="curve" smooth="yes"/>
      <point x="469.55172413793105" y="788.0344827586207"/>
      <point x="514.1379310344828" y="749.7586206896551"/>
      <point x="514.1379310344828" y="692.8965517241379" type="curve" smooth="yes"/>
      <point x="514.1379310344828" y="640.2758620689655"/>
      <point x="485.7586206896552" y="596.5172413793103"/>
      <point x="422.7241379310345" y="596.5172413793103" type="curve" smooth="yes"/>
      <point x="354.48275862068965" y="596.5172413793103"/>
      <point x="297.86206896551727" y="651.6896551724138"/>
      <point x="298.6896551724138" y="778.3103448275862" type="curve"/>
      <point x="260.86206896551727" y="758.1724137931035" type="line"/>
      <point x="263.62068965517244" y="601.0344827586207"/>
      <point x="349.41379310344826" y="522.0689655172414"/>
      <point x="461.3103448275862" y="522.0689655172414" type="curve" smooth="yes"/>
      <point x="568.2413793103449" y="522.0689655172414"/>
      <point x="629.4827586206897" y="591.4827586206897"/>
      <point x="629.4827586206897" y="688.2758620689655" type="curve" smooth="yes"/>
      <point x="629.4827586206897" y="788.5862068965517"/>
      <point x="543.2068965517242" y="849.4827586206897"/>
      <point x="430.48275862068965" y="849.4827586206897" type="curve" smooth="yes"/>
      <point x="259.1034482758621" y="849.4827586206897"/>
      <point x="60.51724137931034" y="704.551724137931"/>
      <point x="60.51724137931034" y="422.55172413793105" type="curve" smooth="yes"/>
      <point x="60.51724137931034" y="139.93103448275863"/>
      <point x="259.1034482758621" y="-5.0"/>
    </contour>
  </outline>
</glyph>
<glyph name="aiMatra-tamil" format="2">
  <advance width="1380.103448275862"/>
  <unicode hex="0BC8"/>
  <note>
uni0BC8
</note>
  <outline>
    <contour>
      <point x="1111.4137931034484" y="-14.310344827586206" type="line"/>
      <point x="1257.7586206896551" y="34.55172413793103"/>
      <point x="1325.2068965517242" y="131.75862068965517"/>
      <point x="1325.2068965517242" y="254.41379310344828" type="curve" smooth="yes"/>
      <point x="1325.2068965517242" y="448.2413793103448"/>
      <point x="1158.8620689655172" y="564.5862068965517"/>
      <point x="950.551724137931" y="564.5862068965517" type="curve" smooth="yes"/>
      <point x="728.2758620689655" y="564.5862068965517"/>
      <point x="572.8620689655172" y="409.48275862068965"/>
      <point x="572.8620689655172" y="206.3793103448276" type="curve" smooth="yes"/>
      <point x="572.8620689655172" y="77.93103448275862"/>
      <point x="641.0689655172414" y="-5.620689655172414"/>
      <point x="760.6551724137931" y="-5.620689655172414" type="curve" smooth="yes"/>
      <point x="877.0" y="-5.620689655172414"/>
      <point x="951.2413793103449" y="72.65517241379311"/>
      <point x="951.2413793103449" y="200.20689655172413" type="curve" smooth="yes"/>
      <point x="951.2413793103449" y="415.1034482758621"/>
      <point x="735.3793103448276" y="563.9655172413793"/>
      <point x="478.13793103448273" y="563.9655172413793" type="curve" smooth="yes"/>
      <point x="251.24137931034483" y="563.9655172413793"/>
      <point x="55.89655172413793" y="449.3448275862069"/>
      <point x="55.89655172413793" y="231.51724137931035" type="curve" smooth="yes"/>
      <point x="55.89655172413793" y="83.20689655172414"/>
      <point x="157.68965517241378" y="-5.241379310344827"/>
      <point x="290.7931034482759" y="-5.241379310344827" type="curve" smooth="yes"/>
      <point x="409.9655172413793" y="-5.241379310344827"/>
      <point x="484.44827586206895" y="63.724137931034484"/>
      <point x="484.44827586206895" y="155.58620689655172" type="curve" smooth="yes"/>
      <point x="484.44827586206895" y="243.86206896551724"/>
      <point x="423.9655172413793" y="314.55172413793105"/>
      <point x="318.17241379310343" y="314.55172413793105" type="curve" smooth="yes"/>
      <point x="207.51724137931035" y="314.55172413793105"/>
      <point x="127.37931034482759" y="234.58620689655172"/>
      <point x="124.72413793103448" y="111.58620689655173" type="curve"/>
      <point x="162.79310344827587" y="89.55172413793103" type="line"/>
      <point x="167.55172413793105" y="189.9655172413793"/>
      <point x="215.93103448275863" y="240.3448275862069"/>
      <point x="278.0689655172414" y="240.3448275862069" type="curve" smooth="yes"/>
      <point x="341.1034482758621" y="240.3448275862069"/>
      <point x="369.48275862068965" y="195.9655172413793"/>
      <point x="369.48275862068965" y="150.9655172413793" type="curve" smooth="yes"/>
      <point x="369.48275862068965" y="101.3103448275862"/>
      <point x="333.58620689655174" y="55.827586206896555"/>
      <point x="263.86206896551727" y="55.827586206896555" type="curve" smooth="yes"/>
      <point x="178.82758620689654" y="55.827586206896555"/>
      <point x="117.0" y="118.93103448275862"/>
      <point x="117.0" y="230.3793103448276" type="curve" smooth="yes"/>
      <point x="117.0" y="405.13793103448273"/>
      <point x="262.17241379310343" y="505.62068965517244"/>
      <point x="463.51724137931035" y="505.62068965517244" type="curve" smooth="yes"/>
      <point x="688.2068965517242" y="505.62068965517244"/>
      <point x="823.448275862069" y="392.7931034482759"/>
      <point x="823.448275862069" y="196.86206896551724" type="curve" smooth="yes"/>
      <point x="823.448275862069" y="113.62068965517241"/>
      <point x="791.448275862069" y="58.310344827586206"/>
      <point x="729.0" y="58.310344827586206" type="curve" smooth="yes"/>
      <point x="666.6896551724138" y="58.310344827586206"/>
      <point x="633.8275862068965" y="118.0"/>
      <point x="633.8275862068965" y="203.6206896551724" type="curve" smooth="yes"/>
      <point x="633.8275862068965" y="373.48275862068965"/>
      <point x="754.1034482758621" y="506.2413793103448"/>
      <point x="945.2413793103449" y="506.2413793103448" type="curve" smooth="yes"/>
      <point x="1102.1379310344828" y="506.2413793103448"/>
      <point x="1197.551724137931" y="403.37931034482756"/>
      <point x="1197.551724137931" y="247.86206896551724" type="curve" smooth="yes"/>
      <point x="1197.551724137931" y="163.0"/>
      <point x="1161.3103448275863" y="76.89655172413794"/>
      <point x="1086.9310344827586" y="26.551724137931032" type="curve"/>
    </contour>
  </outline>
</glyph>
<glyph name="halant-tamil" format="2">
  <unicode hex="0BCD"/>
  <note>
uni0BCD
</note>
  <anchor x="0.0" y="559.5862068965517" name="_top"/>
  <outline>
    <contour>
      <point x="0.0" y="638.2413793103449" type="curve" smooth="yes"/>
      <point x="43.93103448275862" y="638.2413793103449"/>
      <point x="79.0" y="673.6896551724138"/>
      <point x="79.0" y="715.6206896551724" type="curve" smooth="yes"/>
      <point x="79.0" y="756.9310344827586"/>
      <point x="43.93103448275862" y="792.3793103448276"/>
      <point x="0.0" y="792.3793103448276" type="curve" smooth="yes"/>
      <point x="-43.93103448275862" y="792.3793103448276"/>
      <point x="-79.0" y="756.9310344827586"/>
      <point x="-79.0" y="715.6206896551724" type="curve" smooth="yes"/>
      <point x="-79.0" y="673.6896551724138"/>
      <point x="-43.93103448275862" y="638.2413793103449"/>
    </contour>
  </outline>
</glyph>
